<svg xmlns="http://www.w3.org/2000/svg" width="22.84" height="26.384"><g data-name="Group 420"><path fill="#010427" d="m0 19.788 11.42 6.595V13.19L0 6.595Z" data-name="Path 3862"/><path fill="#f4646a" d="M22.839 6.595V19.78l-11.42 6.595V13.19Z" data-name="Path 3863"/><path fill="#fde7e8" d="m11.42 0 11.42 6.595-11.42 6.595L0 6.595Z" data-name="Path 3864"/><path fill="none" stroke="#010427" stroke-miterlimit="10" d="m16.454 14.037 2.187-1.257a.365.365 0 0 1 .546.316v1.1a.365.365 0 0 1-.185.317l-2.185 1.238a.365.365 0 0 1-.544-.316v-1.079a.365.365 0 0 1 .181-.319Z" data-name="Path 3865"/><path fill="none" stroke="#fff" stroke-miterlimit="10" d="m18.266 3.934-11.414 6.6v6.595l-2.858-1.65v-6.6s11.157-6.433 11.42-6.591" data-name="Path 3866"/></g></svg>