<svg xmlns="http://www.w3.org/2000/svg" width="400" height="400" viewBox="0 0 400 400">
  <rect width="400" height="400" fill="#f9543e"/>
  <g transform="translate(61 44) scale(1.84)">
    <path d="M63.9,42.234a1.374,1.374,0,0,1,.28.086A1.288,1.288,0,0,0,63.9,42.234Zm-.63.02-.022,0Zm-.022,0a1.562,1.562,0,0,0-.358.142A1.43,1.43,0,0,1,63.244,42.258Zm.022,0a1.522,1.522,0,0,1,.353-.043A1.464,1.464,0,0,0,63.266,42.254Zm.36-.044h-.007l.042,0C63.649,42.213,63.638,42.21,63.626,42.21Zm.035,0a1.532,1.532,0,0,1,.235.021A1.416,1.416,0,0,0,63.661,42.213Z" fill="#fff"/>
    <path d="M149.666,122.11l-18.18-38.85a2.132,2.132,0,0,1,.04-1.86l17.98-34.52a4.507,4.507,0,0,0-1.76-6.03L78.046.61a4.529,4.529,0,0,0-4.54,0L4.306,40.55a4.56,4.56,0,0,0-2.27,3.93v79.89a4.569,4.569,0,0,0,2.28,3.95l69.19,39.95a4.64,4.64,0,0,0,2.27.6,4.7,4.7,0,0,0,2.27-.6l69.77-40.28A4.6,4.6,0,0,0,149.666,122.11ZM75.776,13.87l53.21,30.73-53.9,30.75L50.336,61.14l20.82-11.98a1.826,1.826,0,0,0,.91-1.6,1.8,1.8,0,0,0-.91-1.59l-6.62-3.91a1.684,1.684,0,0,0-.91-.25,1.933,1.933,0,0,0-.94.24L40.066,55.08,23.1,44.75ZM15.466,54.89l47.02,27.7L14.7,110.58Zm3.98,67.57,21.36-12.6,18.18,35.44Zm58.69,31.16-26.45-50.23,22.36-13.44.22-.1,55.07-30.96L117.376,81.4a1.845,1.845,0,0,0-.03,1.65l17.59,37.77Z" fill="#fff"/>
  </g>
</svg>
