<svg xmlns="http://www.w3.org/2000/svg" data-name="Ahrefs logo" viewBox="0 0 518 126"><path d="M462 112h28V98h-14V84h-14V70h-14V42h14V28h42v14h-28v14h14v14h14v14h14v28h-14v14h-42Zm-14-14h14v14h-14Zm56-56h14v14h-14Zm-112 0h-14V28h14V14h14V0h42v14h-28v14h14v14h-14v84h-28Zm-28 42V42h-14V28h-56v14h-14v70h14v14h56v-14h-42V84Zm-56-42h28v28h-28Zm56 70h-14V98h14ZM196 28h28v14h14V28h28v28h-42v70h-28ZM98 0h28v28h42v14h14v84h-28V42h-28v84H98Z" style="fill:#005a9e"/><path d="M14 70h42V42H14V28h56v14h14v84H14v-14H0V84h14Zm14 14v28h28V84ZM0 42h14v14H0Z" style="fill:#f80"/></svg>