<svg xmlns="http://www.w3.org/2000/svg" width="2482" height="428" fill="none"><path fill="url(#a)" d="M113.457 186.256c15.342-55.532 72.73-88.074 128.28-72.734 55.541 15.34 88.087 72.719 72.745 128.256-22.247 80.514-80.263 146.249-157.358 178.559 93.752 25.893 196.318-15.038 244.816-104.113 56.51-103.788 18.049-233.646-85.75-290.147a211.29 211.29 0 0 0-45.222-18.343c-77.523 31.568-135.812 97.701-157.511 178.522Z"/><path fill="url(#b)" d="M111.743 401.963c14.704 8.016 29.797 14.079 45.23 18.343l.144.039c77.097-32.311 135.113-98.046 157.358-178.56-15.342 55.537-72.734 88.079-128.275 72.739-55.55-15.345-88.096-72.725-72.749-128.261 21.694-80.82 79.989-146.954 157.511-178.521C177.243-18.3 74.533 22.592 25.997 111.817c-56.366 103.826-18.058 233.645 85.746 290.146Z"/><path fill="#979AAD" d="M755.586 249.408c0-124.052-52.891-128.86-85.588-128.86-28.369 0-46.64 17.79-46.64 17.79V34H532v351h102.417c53.853 0 121.169-4.808 121.169-135.592Zm-91.358 0c0 68.758-11.059 73.085-25.484 73.085-7.693 0-15.386-1.442-15.386-1.442V194.114s10.578-6.732 21.637-6.732c12.502 0 19.233 6.732 19.233 62.026ZM994.209 283.066v-30.292c0-101.934-42.794-132.226-101.936-132.226-57.7 0-112.514 25.483-112.514 133.188 0 122.128 69.72 131.264 126.939 131.264 37.985 0 74.529-12.982 74.529-12.982v-66.354s-47.122 10.098-74.529 10.098c-22.599 0-36.062-5.289-36.062-32.696h123.573Zm-85.107-49.525h-38.466c.961-30.292-1.443-58.66 21.637-58.66 18.272 0 16.829 28.849 16.829 58.66ZM1174.68 376.826v-64.911s-25.97 3.847-32.7 3.847c-10.1 0-15.39-3.366-15.39-20.676v-111.55h48.09v-58.18h-48.09V48.425l-91.35 19.233v243.776c0 70.681 48.56 73.566 74.53 73.566 27.88 0 64.91-8.174 64.91-8.174ZM1335.74 376.826v-64.911s-25.97 3.847-32.7 3.847c-10.1 0-15.39-3.366-15.39-20.676v-111.55h48.09v-58.18h-48.09V48.425l-91.35 19.233v243.776c0 70.681 48.56 73.566 74.52 73.566 27.89 0 64.92-8.174 64.92-8.174ZM1555.33 283.066v-30.292c0-101.934-42.79-132.226-101.93-132.226-57.7 0-112.52 25.483-112.52 133.188 0 122.128 69.72 131.264 126.94 131.264 37.99 0 74.53-12.982 74.53-12.982v-66.354s-47.12 10.098-74.53 10.098c-22.6 0-36.06-5.289-36.06-32.696h123.57Zm-85.1-49.525h-38.47c.96-30.292-1.44-58.66 21.64-58.66 18.27 0 16.83 28.849 16.83 58.66ZM1739.59 201.807v-75.97s-7.21-5.289-28.37-5.289c-21.15 0-23.64-2.663-41.07 14.541l-13.26-9.733h-72.61v254.836h91.36V205.653s12.98-8.654 30.29-8.654c16.35 0 33.66 4.808 33.66 4.808ZM1908.19 376.345v-69.719s-23.56 7.693-44.24 7.693c-18.27 0-27.89-14.424-27.89-60.103 0-54.813 15.39-64.43 31.74-64.43 16.35 0 40.39 7.213 40.39 7.213v-67.796s-23.08-8.655-46.64-8.655c-29.81 0-116.84 3.847-116.84 133.668 0 128.38 73.56 130.784 111.55 130.784 26.44 0 51.93-8.655 51.93-8.655ZM2129.43 380.192V198.441c0-62.988-37.03-77.893-88.96-77.893-50.49 0-93.76 14.905-93.76 14.905v65.392s44.24-12.501 69.72-12.501c16.83 0 21.64 4.327 21.64 15.867v10.097h-17.31c-35.1 0-100.5 6.732-100.5 88.471 0 75.489 44.72 82.221 71.17 82.221 33.17 0 48.08-22.599 48.08-22.599l14.43 17.791h75.49Zm-91.36-54.333s-6.25 2.885-12.02 2.885c-12.5 0-17.79-8.655-17.79-31.254 0-30.291 4.8-38.465 22.11-39.427l7.7-.481v68.277ZM2323.26 201.807v-75.97s-7.7-5.289-28.37-5.289c-21.16 0-30.18 0-40.57 16.105l-13.77-11.297h-72.6v254.836h91.36V205.653s12.98-8.654 30.29-8.654c16.35 0 33.66 4.808 33.66 4.808ZM2482 376.826v-64.911s-25.96 3.847-32.7 3.847c-10.09 0-15.38-3.366-15.38-20.676v-111.55H2482v-58.18h-48.08V48.425l-91.36 19.233v243.776c0 70.681 48.56 73.566 74.53 73.566 27.89 0 64.91-8.174 64.91-8.174Z"/><defs><linearGradient id="a" x1="113.457" x2="462.183" y1="75.228" y2="388.798" gradientUnits="userSpaceOnUse"><stop stop-color="#979AAD" stop-opacity=".2"/><stop offset="1" stop-color="#979AAD"/></linearGradient><linearGradient id="b" x1="30.72" x2="265.728" y1="101.121" y2="344.737" gradientUnits="userSpaceOnUse"><stop stop-color="#979AAD"/><stop offset="1" stop-color="#979AAD" stop-opacity=".2"/></linearGradient></defs></svg>