<svg xmlns="http://www.w3.org/2000/svg" width="821" height="191" fill="none"><g fill="#979AAD" clip-path="url(#a)"><path d="M69.871 79.603c13.76 0 25.792 7.577 32.464 18.835l27.608-16.411C117.762 60.952 95.425 46.81 69.871 46.81 31.272 46.811 0 79.021 0 118.745c0 39.725 31.272 71.965 69.871 71.965 25.554 0 47.891-14.141 60.072-35.215l-27.608-16.412c-6.672 11.289-18.704 18.835-32.464 18.835-20.997 0-38.033-17.546-38.033-39.173 0-21.626 17.036-39.172 38.033-39.172v.03ZM760.934 157.918c-20.998 0-38.033-17.546-38.033-39.172 0-21.627 17.035-39.173 38.033-39.173 13.759 0 25.792 7.577 32.463 18.835l27.609-16.412c-12.181-21.074-34.519-35.215-60.072-35.215-38.57 0-69.872 32.21-69.872 71.965s31.273 71.965 69.872 71.965c25.553 0 47.891-14.142 60.072-35.216l-27.609-16.411c-6.671 11.288-18.704 18.834-32.463 18.834ZM331.692 50.461h-29.664V187.06h29.664v-68.744c0-39.664 40.207-38.713 40.207-38.713V46.811c-16.529 0-30.11 6.074-40.207 16.166V50.462ZM604.923 46.811c-38.569 0-69.871 32.21-69.871 71.965 0 39.756 31.272 71.965 69.871 71.965s69.871-32.209 69.871-71.965c0-39.755-31.272-71.965-69.871-71.965Zm36.782 88.99c0 2.945-1.519 5.675-3.991 7.147l-28.77 17.117a7.816 7.816 0 0 1-8.012 0l-28.771-17.117c-2.472-1.472-3.991-4.202-3.991-7.147v-34.234c0-2.945 1.519-5.675 3.991-7.147l28.771-17.117a7.818 7.818 0 0 1 8.012 0l28.77 17.117c2.472 1.472 3.991 4.202 3.991 7.147v34.234ZM245.949 50.462v11.411c-9.918-8.957-22.784-14.479-38.033-15.062-38.569-1.472-69.871 32.21-69.871 71.965 0 39.756 31.302 73.438 69.871 71.966 15.249-.583 28.086-6.105 38.033-15.062v11.411h31.124V50.461h-31.124Zm-38.033 107.457c-20.997 0-38.033-17.547-38.033-39.173s17.036-39.173 38.033-39.173 38.033 17.547 38.033 39.173-17.036 39.173-38.033 39.173ZM485.314 0v61.873c-9.918-8.957-22.784-14.479-38.033-15.062-38.569-1.472-69.871 32.21-69.871 71.965 0 39.756 31.302 73.438 69.871 71.965 15.249-.582 28.085-6.104 38.033-15.061v11.411h31.123V.001h-31.123Zm-38.033 157.857c-20.997 0-38.033-17.546-38.033-39.173 0-21.626 17.036-39.172 38.033-39.172s38.033 17.546 38.033 39.172c0 21.627-17.036 39.173-38.033 39.173Z"/></g><defs><clipPath id="a"><path fill="#fff" d="M0 0h821v190.772H0z"/></clipPath></defs></svg>