<svg xmlns="http://www.w3.org/2000/svg" id="Layer_1" viewBox="0 0 537.72 215.9"><defs><linearGradient id="linear-gradient" x1="-51.36" x2="158.52" y1="5682.49" y2="5592.85" gradientTransform="matrix(1 0 0 -1 0 5783.92)" gradientUnits="userSpaceOnUse"><stop offset="0" stop-color="#979AAD"/><stop offset="1" stop-color="#979AAD"/></linearGradient><linearGradient id="linear-gradient-2" x1="188.95" x2="98.15" y1="42.15" y2="199.42" gradientUnits="userSpaceOnUse"><stop offset="0" stop-color="#979AAD"/><stop offset="1" stop-color="#979AAD" stop-opacity=".55"/></linearGradient><linearGradient id="linear-gradient-3" x1="182.07" x2="90.2" y1="5657.79" y2="5756.36" gradientTransform="matrix(1 .00244 .00244 -1 -8.72 5762.7)" gradientUnits="userSpaceOnUse"><stop offset="0" stop-color="#979AAD"/><stop offset="1" stop-color="#979AAD"/></linearGradient><style>path{fill:#979aad}</style></defs><path d="M228.71 72.48c0-11.07 7.87-22.25 22.93-22.25 3.5 0 7.01.74 10.27 2.4l4.06-2.4c1.84 3.26 2.71 6.02 2.71 8.24 0 3.32-2.03 4.92-4.79 4.36l-1.11-4.49c-3.07-3.5-7.38-4.73-11.19-4.73-10.33 0-15.8 9.28-15.8 18.44s5.29 17.89 16.41 17.89c5.23 0 10.33-2.46 14.26-6.95 1.23.18 1.78.86 1.78 1.78 0 3.07-6.82 9.1-16.66 9.1-15.43 0-22.87-10.64-22.87-21.39Zm47.65 6.27c0-9.65 8.24-15.12 15.92-15.12s15.86 5.47 15.86 15.12-8.05 15.31-15.86 15.31-15.92-5.47-15.92-15.31Zm25.51.06c0-6.52-3.32-11.87-9.59-11.87s-9.65 5.35-9.65 11.87 3.63 11.87 9.65 11.87 9.59-5.23 9.59-11.87Zm14.33 12.05 3.75-1.11c-.43-2.27-.49-4.73-.49-6.27V55.26c0-3.07-1.11-4-4.24-4.12 0-.43.12-1.6.43-2.4l8.85-.98c.61 1.78.86 3.87.86 5.9v32.65c0 3.26 1.23 4.06 4.67 4.12.37 2.27-1.72 2.83-3.93 2.83h-10.39c0-.43.18-1.6.49-2.4Zm20.84 0 3.75-1.11c-.43-2.27-.49-4.73-.49-6.27V55.26c0-3.07-1.11-4-4.24-4.12 0-.43.12-1.6.43-2.4l8.85-.98c.61 1.78.86 3.87.86 5.9v32.65c0 3.26 1.23 4.06 4.67 4.12.37 2.27-1.72 2.83-3.93 2.83h-10.39c0-.43.18-1.6.49-2.4Zm27.05-12.36v.68c0 6.95 4.06 11.44 10.45 11.44 2.83 0 5.84-1.17 8.67-3.87.86.31 1.29.86 1.29 1.72 0 2.27-4.43 5.72-11.25 5.72-10.51 0-15.43-7.44-15.43-15.43s5.1-15.12 14.39-15.12c6.58 0 12.85 4.49 12.85 12.97 0 .61-.06 1.29-.12 1.91H364.1Zm.25-3.01h14.63c.55-5.53-2.83-8.48-6.64-8.48-4.92 0-7.25 3.69-7.99 8.48Zm55.64 12.29c0 3.01-5.9 6.39-11.25 6.39-9.1 0-15.68-6.46-15.68-15.37s6.46-15.19 14.63-15.19c2.34 0 4.37.43 6.33 1.29l2.89-1.29c1.35 2.21 2.27 4.92 2.27 6.58 0 2.21-1.6 3.44-4.06 3.01l-1.23-4.92c-1.23-.92-2.95-1.35-5.04-1.35-5.53 0-9.59 4.98-9.59 11.8s4.18 11.87 10.27 11.87c3.26 0 6.52-1.6 9.1-4.49.86.25 1.35.8 1.35 1.66Zm27.17 2.77c0 1.91-3.38 3.63-6.95 3.63-3.93 0-7.81-2.09-7.81-8.79V68.3h-4.43c0-.43.18-2.03.49-2.83l4.37-.92.61-5.29c.25-2.03 1.6-3.14 3.69-3.14.37 0 .8.06 1.17.12v8.3h8.24c0 2.21-.98 3.14-3.5 3.32l-4.73.31v16.54c0 4.55 1.29 5.78 3.63 5.78 1.66 0 2.83-.61 4.36-1.54.55.37.86.92.86 1.6Zm8.86.31 3.75-1.11c-.43-2.27-.49-4.73-.49-6.27V71.12c0-3.07-.98-4-4.12-4.12 0-.43.12-1.6.43-2.4l8.73-.98c.62 1.78.86 3.87.86 5.9V86.3c0 3.26 1.23 4.06 4.67 4.12.37 2.27-1.72 2.83-3.93 2.83h-10.39c0-.43.18-1.6.49-2.4Zm2.46-36.7c0-2.27 1.78-3.32 3.93-3.32 1.91 0 2.89 1.23 2.89 3.07 0 2.34-1.78 3.38-3.93 3.38-1.84 0-2.89-1.23-2.89-3.14Zm19.24 13.58-2.77-.92c0-.31.25-1.78.55-2.27h12.11c0 .31-.25 1.78-.55 2.27l-3.01.92 7.62 18.01h.12l7.68-18.01-3.07-.92c0-.31.25-1.78.55-2.27h8.91c0 .31-.25 1.78-.55 2.27l-2.4.92-11.37 25.51-2.27.61-11.56-26.13Zm39.04 10.76v.68c0 6.95 4.06 11.44 10.45 11.44 2.83 0 5.84-1.17 8.67-3.87.86.31 1.29.86 1.29 1.72 0 2.27-4.43 5.72-11.25 5.72-10.51 0-15.43-7.44-15.43-15.43s5.1-15.12 14.39-15.12c6.58 0 12.85 4.49 12.85 12.97 0 .61-.06 1.29-.12 1.91h-20.84Zm.25-3.01h14.63c.55-5.53-2.83-8.48-6.64-8.48-4.92 0-7.25 3.69-7.99 8.48Zm-248.27 74.12c0 .74-.31 2.03-.55 2.58h-12.85c0-.37.25-1.78.55-2.58l3.13-.98-4.06-10.51h-15.62l-4 10.51 3.14.98c0 .74-.31 2.03-.55 2.58h-10.45c0-.37.25-1.78.55-2.58l3.13-.98 15-38.85 3.93-.61 15.31 39.47 3.32.98Zm-27.97-15.18h12.85l-6.33-17.46h-.12l-6.39 17.46Zm36.83 7.62v-11.99c0-3.07-.98-4-4.12-4.12 0-.43.12-1.6.43-2.4l8.73-.98c.68 1.72.86 3.81.86 5.53v13.34c0 5.78 3.2 7.81 6.64 7.81 3.2 0 6.7-1.91 8.85-5.96v-13.22c0-3.07-.98-4-4.12-4.12 0-.43.12-1.6.43-2.4l8.73-.98c.68 1.72.86 3.81.86 5.53v15.86c0 4.49.31 5.41 4.79 5.72.25 2.21-.74 2.64-2.95 2.89l-5.66.55c-.8-1.17-1.35-2.52-1.84-5.1h-.31c-2.77 3.63-5.96 5.1-10.27 5.1-5.47 0-11.07-3.57-11.07-11.07Zm39.53-4.3c0-8.73 5.96-15.19 14.02-15.19 3.93 0 7.07 1.41 9.96 4.49h.31l-.31-4.73v-8.12c0-3.07-.92-4-4.12-4.12 0-.55.25-1.78.43-2.4l8.73-.98c.55 1.66.86 3.75.86 5.9v31.11c0 4.73.55 5.35 4.8 5.66.25 1.97-.43 2.58-2.95 2.89l-5.66.55c-.74-.98-1.41-2.83-1.72-4.49h-.31c-3.01 3.38-5.96 4.8-10.02 4.8-8.05 0-14.02-6.58-14.02-15.37Zm23.98 5.96v-12.05c-1.6-3.2-4.98-5.41-8.36-5.41-5.53 0-9.34 4.67-9.34 11.5s3.81 11.68 9.34 11.68c3.38 0 6.76-2.34 8.36-5.72Zm18.2 6.09 3.75-1.11c-.43-2.27-.49-4.73-.49-6.27v-12.36c0-3.07-.98-4-4.12-4.12 0-.43.12-1.6.43-2.4l8.73-.98c.62 1.78.86 3.87.86 5.9v16.78c0 3.26 1.23 4.06 4.67 4.12.37 2.27-1.72 2.83-3.93 2.83h-10.39c0-.43.18-1.6.49-2.4Zm2.46-36.71c0-2.27 1.78-3.32 3.93-3.32 1.91 0 2.89 1.23 2.89 3.07 0 2.34-1.78 3.38-3.93 3.38-1.84 0-2.89-1.23-2.89-3.14Zm24.59 24.35v.68c0 6.95 4.06 11.44 10.45 11.44 2.83 0 5.84-1.17 8.67-3.87.86.31 1.29.86 1.29 1.72 0 2.27-4.43 5.72-11.25 5.72-10.51 0-15.43-7.44-15.43-15.43s5.1-15.12 14.39-15.12c6.58 0 12.85 4.49 12.85 12.97 0 .61-.06 1.29-.12 1.91h-20.84Zm.25-3.01h14.63c.55-5.53-2.83-8.48-6.64-8.48-4.92 0-7.25 3.69-7.99 8.48Zm28.95 15.37 3.75-1.11c-.43-2.27-.49-4.73-.49-6.27v-12.23c0-3.07-.98-4-4.12-4.12 0-.43.12-1.6.43-2.4l8.12-.98c.68 1.72 1.11 4 1.17 5.84h.25c2.34-3.93 6.64-5.96 10.76-5.96 5.47 0 10.7 3.57 10.7 11.07v11.62c0 3.26 1.23 4.06 4.67 4.12.37 2.27-1.72 2.83-3.93 2.83h-10.14c0-.43.12-1.6.43-2.4l3.57-1.11c-.43-2.27-.49-4.73-.49-6.27v-8.3c0-5.78-2.95-7.56-6.46-7.56-3.14 0-7.13 2.15-9.04 6.58v12.11c0 3.26 1.23 4.06 4.67 4.12.37 2.27-1.72 2.83-3.93 2.83h-10.39c0-.43.18-1.6.49-2.4Zm69.11-3.08c0 3.01-5.9 6.39-11.25 6.39-9.1 0-15.68-6.46-15.68-15.37s6.46-15.19 14.63-15.19c2.34 0 4.37.43 6.33 1.29l2.89-1.29c1.35 2.21 2.27 4.92 2.27 6.58 0 2.21-1.6 3.44-4.06 3.01l-1.23-4.92c-1.23-.92-2.95-1.35-5.04-1.35-5.53 0-9.59 4.98-9.59 11.8s4.18 11.87 10.27 11.87c3.26 0 6.52-1.6 9.1-4.49.86.25 1.35.8 1.35 1.66Zm14.57-9.28v.68c0 6.95 4.06 11.44 10.45 11.44 2.83 0 5.84-1.17 8.67-3.87.86.31 1.29.86 1.29 1.72 0 2.27-4.43 5.72-11.25 5.72-10.51 0-15.43-7.44-15.43-15.43s5.1-15.12 14.39-15.12c6.58 0 12.85 4.49 12.85 12.97 0 .61-.06 1.29-.12 1.91h-20.84Zm.25-3.01h14.63c.55-5.53-2.83-8.48-6.64-8.48-4.92 0-7.25 3.69-7.99 8.48Z"/><path d="m10.42 145.42 43.81-23.84a7.1 7.1 0 0 0 3.81-6.29l.08-31.54c0-2.54 1.37-4.89 3.57-6.16L88.88 60.2a7.124 7.124 0 0 0 3.57-6.43l.2-46.91C92.46 1.5 86.64-1.73 81.99.94L3.8 43.97a7.095 7.095 0 0 0-3.57 6.16L0 139.1c-.01 5.36 5.68 8.81 10.43 6.32Z" style="fill:#979aad"/><path d="M105.63 146.03a13.788 13.788 0 0 1-13.78 0L67.08 131.4c-4.1-2.37-9.13-2.46-13.32-.25l-31.55 17.26c-9.59 5.06-9.85 18.7-.46 24.12l73.53 42.45a6.92 6.92 0 0 0 6.93 0l80.36-46.29c4.57-2.64 4.57-9.23 0-11.87l-44.37-25.35a6.843 6.843 0 0 0-6.85 0l-25.71 14.56Z" style="fill:url(#linear-gradient)"/><path d="m117.04 206.42 44.5-25.71a7.19 7.19 0 0 0 3.83-6.35l-2.79-45.84a7.19 7.19 0 0 1 3.59-6.22l27.56-15.91a7.15 7.15 0 0 0 3.58-6.49V50.03c-.68-3.36-6.08-8.65-10.76-5.95l-78.88 47.44a7.177 7.177 0 0 0-3.59 6.22l2.79 102.6c0 5.41 5.38 8.6 10.17 6.08Z" style="fill:url(#linear-gradient-2);isolation:isolate;opacity:.4"/><path d="M192.97 46.18a5.01 5.01 0 0 1 2.49 4.33l-.23 93.48c0 1.78-.93 3.37-2.48 4.26-1.55.89-3.39.88-4.93-.01l-44.2-25.25a4.92 4.92 0 0 1-2.45-4.27l.07-30.91a15.723 15.723 0 0 0-7.83-13.63l-25.35-15.46c-3.54-2.06-5.75-5.73-5.89-9.83l-.03-34.67c-.16-4.38 2-8.34 5.75-10.59s8.26-2.28 12.05-.08l73.03 42.63m.97-1.67L120.91 1.89c-9.38-5.45-21.08 1.57-20.7 12.41l.03 34.67c.17 4.74 2.76 9.05 6.86 11.43l25.35 15.46c1.85 1.08 3.39 2.54 4.54 4.26 1.49 2.24 2.33 4.91 2.32 7.69l-.07 30.91c0 2.45 1.3 4.72 3.41 5.95l44.2 25.24c4.57 2.65 10.29-.63 10.3-5.91l.24-93.48c0-2.47-1.31-4.77-3.45-6.01Z" style="fill:url(#linear-gradient-3)"/></svg>