<svg xmlns="http://www.w3.org/2000/svg" width="157" height="48" fill="none"><path fill="#979AAD" d="m31.115 9.553 9.69 5.438a4.273 4.273 0 0 1 2.189 3.725v10.716a4.273 4.273 0 0 1-2.189 3.724l-9.69 5.438a4.333 4.333 0 0 1-4.236 0l-9.69-5.438A4.273 4.273 0 0 1 15 29.432V18.716c0-1.543.836-2.966 2.188-3.725l9.69-5.438a4.332 4.332 0 0 1 4.237 0Zm-14.5 9.206v10.673c0 .957.52 1.843 1.364 2.316l9.552 5.36a1.076 1.076 0 0 0 1.466-1.004v-8.626a3.769 3.769 0 0 0-2.03-3.343l-.711-.37a6.999 6.999 0 0 1-.496-.235l-9.145-4.771Zm10.018 3.817c1.717.895 3.016.895 4.732 0l9.277-5.209a2.672 2.672 0 0 0-1.143-1.26l-9.174-5.145a2.716 2.716 0 0 0-2.656 0l-9.157 5.145c-.508.285-.91.727-1.143 1.26l9.264 5.209Zm2.364-9.808c2.019 0 3.667.993 3.764 2.24l.004 2.134c0 1.301-1.687 2.356-3.768 2.356-2.081 0-3.768-1.055-3.768-2.356v-2.135c.101-1.246 1.75-2.239 3.768-2.239Zm0 3.769c1.749 0 3.166-.709 3.166-1.583s-1.417-1.583-3.166-1.583c-1.748 0-3.165.709-3.165 1.583s1.417 1.583 3.165 1.583Z"/><path fill="#979AAD" fill-rule="evenodd" d="M57.839 24.883c0 1.207.31 2.178.931 2.91.621.734 1.44 1.1 2.458 1.1.984 0 1.786-.37 2.407-1.112.62-.742.931-1.716.931-2.924 0-1.19-.302-2.139-.905-2.846-.604-.708-1.406-1.061-2.407-1.061-1 0-1.82.358-2.458 1.074-.638.716-.957 1.669-.957 2.859Zm9.625-12.394v18.733H65.77a1.194 1.194 0 0 1-1.065-.652 1.374 1.374 0 0 1-.164-.626c-.348.399-.625.733-1.28 1.095-.656.362-1.523.494-2.368.494-1.794 0-3.252-.63-4.373-1.89-1.121-1.258-1.682-2.845-1.682-4.76 0-1.846.565-3.407 1.695-4.683 1.13-1.277 2.566-1.915 4.308-1.915 1 0 1.807.181 2.42.543.612.363 1.039.785 1.28 1.268v-7.607h2.924Zm10.71 5.977v3.053h-.385c-2.26 0-3.39 1.234-3.39 3.7v6.003h-3.002v-12.6h1.947a.796.796 0 0 1 .758.55l.297.92c.143-.298.541-.961 1.238-1.294.697-.332 1.505-.332 2.333-.332h.204Zm1.682 9.34c0-1.069.35-1.927 1.048-2.574.699-.647 1.618-1.056 2.756-1.229l3.234-.492c.621-.086.932-.388.932-.905 0-.57-.198-1.03-.595-1.384-.397-.354-.992-.53-1.786-.53-.759 0-1.362.21-1.81.633-.45.423-.708.97-.777 1.643l-2.705-.026c.12-1.138.626-2.704 1.592-3.506.966-.802 2.191-1.203 3.674-1.203 1.83 0 3.179.44 4.05 1.32.871.88 1.307 2.01 1.307 3.39v6.261c0 .828.051 1.5.155 2.018h-1.614c-.17 0-.34-.031-.5-.092-.534-.206-.802-.54-.802-1.002-.597.995-2.13 1.482-3.89 1.482-1.276 0-2.306-.375-3.091-1.125-.785-.75-1.178-1.643-1.178-2.678Zm4.84 1.45c.93 0 1.685-.255 2.263-.764.578-.508.867-1.34.867-2.497v-.569l-3.286.492c-1.122.19-1.682.759-1.682 1.708 0 .448.164.832.492 1.151.327.32.776.479 1.345.479Zm15.291-13.808c-.5 0-.936.143-1.306.428-.371.284-.557.78-.557 1.487v1.258h2.924v2.614h-2.924v9.987h-3.027v-9.987h-2.2V18.62h.864a1.336 1.336 0 0 0 1.336-1.335c0-1.398.405-2.502 1.216-3.312.81-.811 1.871-1.217 3.183-1.217h1.552v2.691h-1.061Zm8.123-.63v3.855h2.613v2.665h-2.613v5.848c0 .552.129.953.388 1.203.259.25.664.375 1.216.375h.412v2.665h-1.214c-1.173 0-2.096-.332-2.769-.996-.672-.664-1.009-1.583-1.009-2.756v-6.339h-2.329v-2.665h.647c.639 0 1.122-.181 1.449-.543.328-.363.492-.837.492-1.424v-1.889h2.717Zm5.045-2.389h2.924v7.71c.242-.482.743-.879 1.356-1.241.612-.363 1.587-.597 2.587-.597 1.743 0 3.135.562 4.265 1.839 1.13 1.276 1.507 2.883 1.507 4.729 0 1.915-.373 3.456-1.494 4.715-1.122 1.26-2.683 1.953-4.477 1.953-.845 0-1.608-.195-2.264-.558-.655-.362-1.131-.696-1.48-1.094 0 .202-.054.41-.164.625a1.192 1.192 0 0 1-1.064.652h-1.696V12.43Zm8.688 15.378c.639-.725.958-1.7.958-2.924 0-1.225-.311-2.186-.932-2.885-.621-.699-1.44-1.048-2.458-1.048-.983 0-1.794.35-2.432 1.048-.638.699-.957 1.66-.957 2.885 0 1.207.319 2.173.957 2.898.638.725 1.449 1.087 2.432 1.087 1.001 0 1.811-.354 2.432-1.061Zm6.883-6.222h-1.24v-2.986h2.986v.022h1.23v12.601h-2.976v-9.637Zm.104-6.017c-.38-.38-.57-.837-.57-1.371 0-.535.19-.997.57-1.385a1.846 1.846 0 0 1 1.371-.582c.552 0 1.018.19 1.397.57.38.379.57.844.57 1.397 0 .534-.19.991-.57 1.37-.379.38-.845.57-1.397.57-.535 0-.992-.19-1.371-.57Zm10.557-.802v3.855H142v2.665h-2.613v5.848c0 .552.129.953.388 1.203.259.25.664.375 1.216.375h.412v2.665h-1.214c-1.173 0-2.096-.331-2.769-.996-.673-.664-1.009-1.582-1.009-2.755v-6.34h-2.329v-2.665h.647c.638 0 1.122-.181 1.449-.543.328-.362.492-.837.492-1.423v-1.89h2.717Z" clip-rule="evenodd"/></svg>