<svg xmlns="http://www.w3.org/2000/svg" width="591" height="185" fill="none"><path fill="#979AAD" d="M.155 3.5h105.75v38h-59.25V72h55.5v36.5h-55.5V144h61.5v38h-108V3.5Zm125 0h52l30 110h.5V3.5h43.5V182h-51l-31-110.25h-.5V182h-43.5V3.5Zm134.199 0h48.75l18.75 134.5h.5l18.75-134.5h49.501L357.104 182h-60L259.354 3.5Zm141.883 0h46.5V182h-46.5V3.5Zm109.442 89.25c0 12 .166 22 .5 30 .333 7.833 1 14.083 2 18.75 1.166 4.667 2.75 7.917 4.75 9.75 2.166 1.833 5 2.75 8.5 2.75s6.25-.917 8.25-2.75c2.166-1.833 3.75-5.083 4.75-9.75 1.166-4.667 1.916-10.917 2.25-18.75.333-8 .5-18 .5-30s-.167-21.917-.5-29.75c-.334-8-1.084-14.333-2.25-19-1-4.667-2.584-7.917-4.75-9.75-2-1.833-4.75-2.75-8.25-2.75s-6.334.917-8.5 2.75c-2 1.833-3.584 5.083-4.75 9.75-1 4.667-1.667 11-2 19-.334 7.833-.5 17.75-.5 29.75Zm-48 0c0-16.667 1.083-30.833 3.25-42.5 2.166-11.833 5.75-21.417 10.75-28.75 5-7.5 11.583-12.917 19.75-16.25 8.166-3.5 18.166-5.25 30-5.25 11.833 0 21.833 1.75 30 5.25 8.166 3.333 14.75 8.75 19.75 16.25 5 7.333 8.583 16.917 10.75 28.75 2.166 11.667 3.25 25.833 3.25 42.5s-1.084 30.917-3.25 42.75c-2.167 11.667-5.75 21.25-10.75 28.75-5 7.333-11.584 12.583-19.75 15.75-8.167 3.167-18.167 4.75-30 4.75-11.834 0-21.834-1.583-30-4.75-8.167-3.167-14.75-8.417-19.75-15.75-5-7.5-8.584-17.083-10.75-28.75-2.167-11.833-3.25-26.083-3.25-42.75Z"/></svg>