<svg xmlns="http://www.w3.org/2000/svg" xml:space="preserve" id="Lag_1" x="0" y="0" style="enable-background:new 0 0 2019 799.8" version="1.1" viewBox="0 0 2019 799.8"><style>.st0{fill:#9899ad}.st1{fill:#989aad}</style><path d="M731.7 82.1 506.8 82 255.1 333.6l112.5 112.5zM96 492.8v225l159.1-159.1-112.5-112.6zM255.1 558.7l157.8 158.8h225L367.6 446.1z" class="st0"/><path d="M255.1 333.6 96 174.5v225l46.6 46.6z" class="st0"/><path d="M664.7 532.1V349h41.8v183.1h-41.8zm92.6-91.5 64.9 91.5h-52.4l-61.4-91 59.2-92.1h49.7l-60 91.6zM836.4 440c0-28.1 8.1-50.7 24.3-68 16.2-17.3 37.8-25.9 64.8-25.9 27.2 0 48.8 8.6 64.9 25.8 16.1 17.2 24.2 39.9 24.2 68.2 0 28.1-8.1 50.7-24.3 68-16.3 17.2-37.9 25.9-64.8 25.9-27.2 0-48.8-8.6-64.9-25.8-16.2-17.2-24.2-39.9-24.2-68.2zm56.7-40.9c-8 10-12 23.7-12 40.9s4 30.8 12 40.9c8 10.1 18.7 15.1 32.3 15.1s24.3-5 32.3-15.1c8-10 12-23.7 12-40.9s-4-30.8-12-40.9c-8-10.1-18.7-15.1-32.3-15.1s-24.3 5.1-32.3 15.1zM1056.6 532.1l15.8-183.1h45.9l25.5 66.3c4.3 11.1 8.1 21.2 11.1 30.4 3.1 9.2 5.1 15.8 6 19.6l1.4 5.4c2.9-11.9 9.2-30.4 19-55.4l25.8-66.3h45.9l19 183.1h-41.8l-6.8-70.9-3.5-53.5c-4.7 13.6-11.2 31.4-19.6 53.5l-25.8 69h-24.7l-25.5-69c-4.2-11.2-7.7-21.3-10.6-30.1-2.9-8.9-4.8-15-5.7-18.5l-1.4-4.9c0 12.9-.8 30.7-2.4 53.5l-5.7 70.9h-41.9zM1320.9 349h63c20.3 0 36.7 5.7 49.3 17.1 12.6 11.4 18.9 25.9 18.9 43.5 0 20.1-6.6 35.7-19.7 46.7-13.1 11.1-29.3 16.6-48.5 16.6h-21.2v59.2h-41.8V349zm41.8 90.7h13.9c22.1 0 33.1-10 33.1-30.1 0-18.1-10.2-27.2-30.7-27.2h-16.3v57.3zM1540.1 495.4h67.6v36.7h-109.5V349h41.8v146.4zM1653.9 532.1V349h41.8v183.1h-41.8zM1744.6 440c0-28.1 8.1-50.7 24.3-68 16.2-17.3 37.8-25.9 64.8-25.9 27.2 0 48.8 8.6 64.9 25.8 16.1 17.2 24.2 39.9 24.2 68.2 0 28.1-8.1 50.7-24.3 68-16.2 17.3-37.8 25.9-64.8 25.9-27.2 0-48.8-8.6-64.9-25.8-16.1-17.2-24.2-39.9-24.2-68.2zm56.8-40.9c-8 10-11.9 23.7-11.9 40.9s4 30.8 11.9 40.9c8 10.1 18.7 15.1 32.3 15.1 13.6 0 24.3-5 32.3-15.1 8-10 11.9-23.7 11.9-40.9s-4-30.8-11.9-40.9c-8-10.1-18.7-15.1-32.3-15.1-13.6.1-24.3 5.1-32.3 15.1z" class="st1"/></svg>