<svg xmlns="http://www.w3.org/2000/svg" width="326" height="65" fill="none"><path fill="#979AAD" d="M68.65.34A22.86 22.86 0 0 0 50 10C46.4 3.92 40.14.34 32.43.34a23.11 23.11 0 0 0-18 8.85l-3-7.51H0v60.53h16.32V29.48c0-9.42 4.37-14.8 11.74-14.8 5.82 0 9 4.26 9 12.33v35.2h15.83V29.48c0-9.42 4.36-14.8 11.63-14.8 5.92 0 9 4.26 9 12.33v35.2H89.9V24.32C89.9 10.09 81.18.34 68.65.34ZM146.85 1.68l-1.6 5.72a27.71 27.71 0 0 0-19-7.4C109 0 96.06 13.67 96.06 31.94 96.06 50.21 109 64 126.26 64a26.831 26.831 0 0 0 18.67-7.29l1.39 5.5h13.16V1.68h-12.63Zm-19.31 46.85c-9.07 0-15.69-7.17-15.69-16.59s6.62-16.58 15.69-16.58 15.68 7.06 15.68 16.58-6.61 16.59-15.68 16.59ZM224.39 62.21l-22.7-31.61 20.46-28.92h-18.78l-18.12 26.9V1.75h-16.32v60.46h16.32V33.29l19.35 28.92h19.79Z"/><path fill="#979AAD" d="M282.76 31.83C282.76 14.35 270 0 251.46 0c-17.89 0-31.31 13.79-31.31 31.94 0 18.15 13.53 32.06 31.31 32.06a30.812 30.812 0 0 0 30-21.63h-17.1c-2.46 4.37-7.16 7.06-12.86 7.06-7.94 0-13.31-4.6-14.76-12.89h45.73c.206-1.561.303-3.135.29-4.71ZM251.46 14c7.38 0 12.63 4 15 11.43h-29.31c1.9-7.16 7.04-11.43 14.31-11.43ZM320.32 1.34c-7.83 0-13.19 2.47-17.55 7.85l-2.91-7.51h-10.4v60.53h16.33V30.82c0-9.86 3.57-14 12.74-14h7.16V1.34h-5.37Z"/></svg>