<svg xmlns="http://www.w3.org/2000/svg" width="330" height="48" fill="none"><g clip-path="url(#a)"><path fill="#979AAD" d="M69.26 31.254c0-1.319-.501-2.338-1.504-3.06-.984-.738-2.716-1.371-5.195-1.898-2.462-.528-4.422-1.16-5.882-1.9-1.442-.738-2.514-1.617-3.218-2.637-.685-1.02-1.028-2.233-1.028-3.64 0-2.338.984-4.316 2.954-5.934 1.987-1.617 4.519-2.426 7.596-2.426 3.235 0 5.855.835 7.86 2.505 2.021 1.67 3.033 3.807 3.033 6.41H68.97c0-1.337-.572-2.489-1.715-3.456-1.125-.967-2.55-1.45-4.272-1.45-1.776 0-3.165.386-4.167 1.16-1.003.774-1.504 1.785-1.504 3.033 0 1.178.466 2.066 1.398 2.664.932.598 2.611 1.17 5.038 1.714 2.444.545 4.422 1.196 5.934 1.952 1.512.756 2.629 1.67 3.35 2.743.738 1.055 1.107 2.347 1.107 3.877 0 2.55-1.02 4.598-3.059 6.145-2.04 1.53-4.686 2.295-7.94 2.295-2.285 0-4.307-.404-6.065-1.213-1.759-.809-3.139-1.934-4.141-3.376-.985-1.46-1.477-3.033-1.477-4.721h4.88c.087 1.635.738 2.936 1.951 3.903 1.23.95 2.849 1.424 4.853 1.424 1.846 0 3.323-.369 4.43-1.107 1.126-.756 1.689-1.759 1.689-3.007Zm21.457 8.097c-3.868 0-7.016-1.266-9.442-3.798-2.427-2.55-3.64-5.952-3.64-10.207v-.897c0-2.83.537-5.354 1.61-7.57 1.09-2.232 2.602-3.973 4.536-5.221 1.952-1.266 4.062-1.9 6.33-1.9 3.71 0 6.593 1.223 8.65 3.667 2.057 2.444 3.086 5.943 3.086 10.497v2.03H82.515c.07 2.814.888 5.091 2.453 6.832 1.582 1.723 3.587 2.584 6.013 2.584 1.723 0 3.183-.351 4.378-1.055 1.196-.703 2.242-1.635 3.139-2.795l2.98 2.32c-2.391 3.676-5.978 5.513-10.76 5.513Zm-.607-25.583c-1.969 0-3.622.72-4.959 2.162-1.335 1.425-2.161 3.43-2.478 6.014h14.294v-.37c-.14-2.479-.808-4.395-2.004-5.75-1.195-1.37-2.813-2.056-4.853-2.056Zm20.403-3.482.158 3.587c2.18-2.743 5.029-4.114 8.546-4.114 6.031 0 9.073 3.402 9.125 10.207v18.858h-4.879V19.939c-.018-2.057-.492-3.578-1.425-4.563-.914-.984-2.347-1.476-4.298-1.476-1.583 0-2.972.421-4.167 1.265-1.196.845-2.129 1.952-2.796 3.324v20.335h-4.88V10.286h4.616Zm40.183 20.968c0-1.319-.5-2.338-1.503-3.06-.984-.738-2.717-1.371-5.196-1.898-2.462-.528-4.422-1.16-5.881-1.9-1.442-.738-2.515-1.617-3.218-2.637-.686-1.02-1.028-2.233-1.028-3.64 0-2.338.984-4.316 2.953-5.934 1.987-1.617 4.519-2.426 7.597-2.426 3.234 0 5.854.835 7.858 2.505 2.023 1.67 3.034 3.807 3.034 6.41h-4.905c0-1.337-.572-2.489-1.716-3.456-1.124-.967-2.548-1.45-4.271-1.45-1.776 0-3.166.386-4.169 1.16-1.001.774-1.503 1.785-1.503 3.033 0 1.178.466 2.066 1.398 2.664.933.598 2.611 1.17 5.038 1.714 2.444.545 4.423 1.196 5.934 1.952 1.512.756 2.629 1.67 3.35 2.743.738 1.055 1.108 2.347 1.108 3.877 0 2.55-1.02 4.598-3.059 6.145-2.04 1.53-4.686 2.295-7.94 2.295-2.286 0-4.307-.404-6.066-1.213-1.758-.809-3.138-1.934-4.14-3.376-.985-1.46-1.477-3.033-1.477-4.721h4.879c.088 1.635.738 2.936 1.951 3.903 1.232.95 2.849 1.424 4.853 1.424 1.847 0 3.324-.369 4.431-1.107 1.126-.756 1.688-1.759 1.688-3.007Zm43.417-20.968.157 3.587c2.181-2.743 5.03-4.114 8.546-4.114 6.031 0 9.072 3.402 9.126 10.207v18.858h-4.88V19.939c-.017-2.057-.492-3.578-1.424-4.563-.914-.984-2.347-1.476-4.299-1.476-1.582 0-2.972.421-4.167 1.265-1.196.845-2.128 1.952-2.796 3.324v20.335h-4.879V10.286h4.616Zm57.341 0 .132 3.165c2.092-2.462 4.914-3.692 8.466-3.692 3.992 0 6.708 1.53 8.151 4.589.948-1.372 2.18-2.48 3.691-3.323 1.53-.844 3.333-1.266 5.407-1.266 6.26 0 9.442 3.314 9.547 9.943v19.122h-4.878V19.992c0-2.04-.466-3.56-1.399-4.563-.931-1.02-2.496-1.53-4.694-1.53-1.811 0-3.314.546-4.51 1.636-1.196 1.072-1.89 2.523-2.084 4.352v18.937h-4.906v-18.7c0-4.15-2.03-6.224-6.092-6.224-3.2 0-5.389 1.362-6.568 4.088v20.836h-4.879V10.286h4.616Zm46.461 28.538h-4.879V10.286h4.879v28.538ZM292.64 2.717c0-.792.237-1.46.713-2.005.491-.545 1.212-.817 2.161-.817.95 0 1.671.272 2.164.817.492.545.738 1.213.738 2.005 0 .79-.246 1.45-.738 1.978-.493.527-1.214.791-2.164.791-.949 0-1.67-.264-2.161-.791-.476-.528-.713-1.187-.713-1.978Zm22.934 32.651c1.741 0 3.262-.527 4.563-1.582 1.301-1.055 2.023-2.374 2.163-3.956h4.615c-.088 1.635-.651 3.191-1.688 4.668-1.037 1.477-2.426 2.655-4.167 3.534a11.906 11.906 0 0 1-5.486 1.319c-3.886 0-6.98-1.292-9.283-3.877-2.287-2.602-3.43-6.154-3.43-10.655V24c0-2.778.51-5.248 1.53-7.411 1.02-2.163 2.479-3.842 4.379-5.038 1.916-1.195 4.176-1.793 6.777-1.793 3.201 0 5.856.958 7.966 2.874 2.128 1.917 3.261 4.405 3.402 7.465H322.3c-.14-1.847-.844-3.359-2.11-4.537-1.249-1.196-2.796-1.793-4.643-1.793-2.478 0-4.403.896-5.775 2.69-1.355 1.776-2.031 4.352-2.031 7.728v.923c0 3.288.676 5.82 2.031 7.596 1.354 1.776 3.288 2.663 5.802 2.663Z"/><path fill="#A9ACBC" d="M159.02 24.291c0-2.796.545-5.31 1.634-7.543 1.109-2.233 2.638-3.956 4.59-5.17 1.969-1.213 4.211-1.82 6.725-1.82 3.887 0 7.025 1.346 9.417 4.036 2.408 2.69 3.613 6.268 3.613 10.735v.342c0 2.779-.536 5.275-1.609 7.49-1.055 2.199-2.576 3.913-4.564 5.144-1.969 1.23-4.236 1.846-6.804 1.846-3.868 0-7.006-1.345-9.415-4.035-2.392-2.69-3.587-6.251-3.587-10.682v-.343Zm4.905.58c0 3.165.73 5.706 2.189 7.623 1.477 1.916 3.446 2.874 5.908 2.874 2.479 0 4.449-.967 5.908-2.9 1.46-1.953 2.19-4.678 2.19-8.177 0-3.13-.749-5.662-2.243-7.596-1.477-1.952-3.446-2.927-5.908-2.927-2.409 0-4.352.958-5.829 2.874-1.477 1.917-2.215 4.66-2.215 8.23Zm52.462-.58c0-2.796.546-5.31 1.636-7.543 1.107-2.233 2.637-3.956 4.588-5.17 1.97-1.213 4.212-1.82 6.726-1.82 3.886 0 7.025 1.346 9.416 4.036 2.408 2.69 3.613 6.268 3.613 10.735v.342c0 2.779-.536 5.275-1.609 7.49-1.054 2.199-2.576 3.913-4.562 5.144-1.969 1.23-4.238 1.846-6.805 1.846-3.869 0-7.007-1.345-9.416-4.035-2.391-2.69-3.587-6.251-3.587-10.682v-.343Zm4.906.58c0 3.165.73 5.706 2.189 7.623 1.477 1.916 3.447 2.874 5.908 2.874 2.48 0 4.448-.967 5.908-2.9 1.46-1.953 2.189-4.678 2.189-8.177 0-3.13-.747-5.662-2.241-7.596-1.477-1.952-3.446-2.927-5.909-2.927-2.408 0-4.351.958-5.828 2.874-1.477 1.917-2.216 4.66-2.216 8.23Z"/><path fill="#979AAD" d="M44.541 3.321 26.164 21.944 7.786 3.32h36.755Z"/><path fill="#A9ACBC" d="m4.41 5.01 18.378 18.622L4.41 42.254V5.01Z"/><path fill="#979AAD" d="M7.786 43.942 26.164 25.32 44.54 43.942H7.786Z"/></g><defs><clipPath id="a"><path fill="#fff" d="M0 0h330v47.263H0z"/></clipPath></defs></svg>