<svg xmlns="http://www.w3.org/2000/svg" viewBox="0 0 110.04 46.63"><rect width="110.04" height="46.63" rx="23.31" ry="23.31" style="fill:#979aad"/><path d="m48.44 9.35 5.1.86-.04.06c-.87.76-6.99 9.82-9.24 13.26-1.94 2.97-5.19 6.18-13.5 8.62-3.37.99-12.61 2.56-14.85 2.93-.05 0-.1 0-.15-.02a.38.38 0 0 1-.13-.09.37.37 0 0 1-.07-.14.379.379 0 0 1 0-.15c.09-.4.24-.79.43-1.15.15-.22.33-.41.55-.55 0 0 24.89-15.31 33.76-20.79L21.74 25.92l.4-1.16s24.49-16.24 26.3-15.4Zm-9.72 16.46c2.52-1.73 3.57-3.86 4.21-5.22.03-.07.06-.15.09-.22L24.77 30.68c3.74-.74 11.28-3.05 13.94-4.88ZM72.6 15.12l4.61-1.41V31.8H72.6V15.11Zm-6.57 4.04h4.64V31.8h-4.64V19.16ZM55.94 31.59c.95.2 1.92.31 2.9.32 1.8 0 3.17-.34 4.11-1.02.45-.31.82-.73 1.06-1.21.25-.48.37-1.02.36-1.56.02-.64-.11-1.27-.37-1.85-.26-.54-.69-.99-1.22-1.28-.76-.44-1.59-.77-2.44-.99l-.5-.13c-.69-.17-1.37-.38-2.02-.65a.865.865 0 0 1-.38-.3.806.806 0 0 1-.14-.46c0-.17.04-.34.14-.48.1-.14.24-.25.41-.3.52-.16 1.06-.23 1.6-.21.76 0 1.52.11 2.25.31.67.16 1.32.43 1.89.81v-3.01c-.64-.35-1.34-.59-2.07-.71-.84-.19-1.7-.28-2.57-.29-1.72.02-3.07.35-4.04.99-.98.64-1.46 1.62-1.46 2.92-.03.65.12 1.3.42 1.88.32.51.77.93 1.3 1.22.77.39 1.57.7 2.4.94.86.26 1.48.46 1.84.6.31.08.6.23.85.44.09.08.16.17.21.28.05.11.07.23.06.34a.676.676 0 0 1-.48.68c-.49.14-.99.21-1.5.18-.88-.01-1.75-.14-2.59-.39-.84-.22-1.65-.57-2.4-1.02v3.07c.74.42 1.55.71 2.4.83ZM66.7 14.47c.41-.4.96-.62 1.54-.62h.23c.29-.01.58.04.85.14s.52.26.73.46c.21.2.38.44.49.7.11.26.17.55.17.83 0 .29-.06.57-.18.83s-.28.5-.49.7c-.21.2-.46.35-.73.45-.27.1-.56.15-.86.14h-.23c-.58 0-1.13-.23-1.53-.63a2.098 2.098 0 0 1 .01-3.01Zm18.12 17.45c1.1.01 2.19-.3 3.1-.91l.03 5.36h4.39V19h-4.02l-.08.89a5.632 5.632 0 0 0-3.45-1.12c-3.1 0-6.01 2.28-6.01 6.48 0 4.58 2.88 6.66 6.04 6.66Zm3.12-9.24c-.58-.5-1.34-.76-2.11-.71-1.6 0-2.71 1.48-2.71 3.37s1.09 3.39 2.71 3.39c1.04 0 1.66-.3 2.08-.68l.02-5.36Z" style="fill:#fff;fill-rule:evenodd"/></svg>