<svg xmlns="http://www.w3.org/2000/svg" width="126" height="48" fill="none"><g clip-path="url(#a)"><path fill="#979AAD" fill-rule="evenodd" d="m101.501 14.656 3.444 9.698.82 2.958.983-2.958 3.444-9.698h5.411l-9.035 25.246-5.837 1.15 2.41-6.837-7.05-19.559h5.41ZM32.335 6.783c5.574.033 11.082 4.666 11.082 11.418 0 0 .036 1.804.039 3.951v.416c0 .464-.003.94-.007 1.414l-.003.284c-.021 1.793-.078 3.507-.21 4.368-.77 5.159-4.622 8.724-9.934 9.627-4.787.937-7.623 1.48-8.541 1.66-.232.048-.928.148-1.616.221l-.137.015c-.434.044-.851.076-1.133.076-5.836 0-11.13-4.37-11.213-11.418v-.588c.001-.851.004-2.508.012-4.198l.002-.39.001-.26c.01-1.684.025-3.302.05-4.077.197-5.142 3.755-9.299 10.526-10.63l.01-.001c.317-.062 8.275-1.61 8.613-1.674a13.684 13.684 0 0 1 2.459-.214Zm27.19 2.614v5.26h4.92v4.766h-4.92v8.218c0 1.61 1.214 2.301 1.968 2.301a6.66 6.66 0 0 0 2.02-.294l.111-.035 1.148 3.78c-.492.33-1.968 1.151-4.755 1.151-2.788 0-5.673-2.137-5.739-5.753a202.34 202.34 0 0 1-.037-3.909v-.493c.002-1.429.013-3.002.034-4.72l.003-.246h-3.443v-4.767h3.443v-4.24l5.247-1.02ZM36.237 12.78 23.12 15.326v5.126l-5.246 1.019v12.782l13.116-2.547V26.58l5.245-1.018V12.78ZM87.4 14.163c4.61-.032 8.095 3.64 8.196 8.243l.002.14v11.67h-5.247V23.366c-.016-2.465-1.803-4.454-4.263-4.437-2.435.016-4.564 1.933-4.59 4.364v10.921H76.25V14.656h4.755l.18 2.285a8.523 8.523 0 0 1 6.215-2.778Zm-14.43.493v19.56h-5.246v-19.56h5.247Zm-41.98 4.268v7.656l-7.869 1.528v-7.656l7.87-1.528Zm41.98-12.14v5.11l-5.246 1.02V7.802l5.247-1.019Z" clip-rule="evenodd"/></g><defs><clipPath id="a"><path fill="#fff" d="M10.666 7.111h104.613V40.89H10.666z"/></clipPath></defs></svg>