<svg xmlns="http://www.w3.org/2000/svg" width="192" height="48" fill="none"><path fill="#979AAD" d="M34.82 35.197a1.386 1.386 0 0 1-1.06-2.276l4.907-5.852a5.474 5.474 0 0 0-.306-7.476 5.587 5.587 0 0 0-3.963-1.64 5.587 5.587 0 0 0-3.964 1.636 5.473 5.473 0 0 0-1.644 3.671 5.474 5.474 0 0 0 1.293 3.8l2.735 3.086a1.387 1.387 0 1 1-2.069 1.846l-2.776-3.113a8.262 8.262 0 0 1-1.97-5.745 8.24 8.24 0 0 1 2.474-5.515 8.338 8.338 0 0 1 5.908-2.437 8.344 8.344 0 0 1 5.92 2.442 8.237 8.237 0 0 1 2.454 5.517 8.239 8.239 0 0 1-1.96 5.712l-4.908 5.851a1.386 1.386 0 0 1-1.063.495"/><path fill="#979AAD" d="M31.444 38.996a1.388 1.388 0 0 1-1.023-.449l-6.266-6.836a13.157 13.157 0 0 1-3.14-9.159 13.139 13.139 0 0 1 3.934-8.793 13.309 13.309 0 0 1 9.438-3.896 13.315 13.315 0 0 1 9.456 3.907 13.131 13.131 0 0 1 3.903 8.792c.15 3.323-.968 6.58-3.127 9.11l-5.459 6.546a1.385 1.385 0 0 1-2.446-.762 1.384 1.384 0 0 1 .315-1.014l5.474-6.555a10.381 10.381 0 0 0 2.474-7.204 10.381 10.381 0 0 0-3.085-6.95 10.57 10.57 0 0 0-7.505-3.095 10.558 10.558 0 0 0-7.497 3.093 10.381 10.381 0 0 0-3.109 6.952 10.368 10.368 0 0 0 2.454 7.199l5.183 5.653 3.631-4.166a1.387 1.387 0 0 1 2.359 1.352c-.058.173-.15.332-.27.47l-4.65 5.333A1.388 1.388 0 0 1 31.46 39l-.015-.004Z"/><path fill="#979AAD" d="M36.946 23.683a2.546 2.546 0 1 1-5.092-.004 2.546 2.546 0 0 1 5.092.004ZM61.241 30.556c-.443.114-.9.169-1.357.162a1.837 1.837 0 0 1-1.576-.627 3.587 3.587 0 0 1-.464-2.085v-4.923c0-.003.002-.007.005-.01a.015.015 0 0 1 .01-.003h4.285a.015.015 0 0 0 .015-.015v-2.312a.015.015 0 0 0-.015-.015h-4.285a.015.015 0 0 1-.01-.005.015.015 0 0 1-.005-.01v-2.524a1.451 1.451 0 0 0-1.278-1.468 1.402 1.402 0 0 0-1.529 1.396v9.911c-.008.72.062 1.438.208 2.143.118.58.364 1.127.719 1.6.36.455.837.804 1.38 1.008a5.86 5.86 0 0 0 2.167.347c.625.01 1.25-.064 1.855-.22.43-.115.852-.257 1.265-.425a.013.013 0 0 0 .003-.009.013.013 0 0 0-.003-.008l-.457-2.197c0-.002 0-.004-.002-.006a.012.012 0 0 0-.005-.005.013.013 0 0 0-.006-.002c-.002 0-.004 0-.006.002-.3.115-.604.215-.914.3ZM70.33 20.6a14.773 14.773 0 0 0-.742-.093 6.27 6.27 0 0 0-.65-.034c-.907-.008-1.812.08-2.7.266-.686.143-1.36.332-2.02.566a.015.015 0 0 0 0 .013v11.514c0 .004.001.008.004.01a.015.015 0 0 0 .011.005h2.776a.015.015 0 0 0 .011-.004.015.015 0 0 0 .005-.01v-9.691a.013.013 0 0 1-.002-.007c0-.002 0-.005.002-.007.236-.067.477-.12.72-.158.326-.06.655-.09.986-.092.479-.006.957.037 1.427.128a9.201 9.201 0 0 1 .95.24.012.012 0 0 0 .005-.002.014.014 0 0 0 .004-.004.014.014 0 0 0 .001-.006l.48-2.336a.013.013 0 0 0 0-.017 8.415 8.415 0 0 0-1.268-.281ZM80.777 21.745a3.738 3.738 0 0 0-1.51-.974 6.864 6.864 0 0 0-2.343-.348c-.73-.002-1.46.061-2.18.19-.522.085-1.038.208-1.544.367a.013.013 0 0 0 0 .015l.344 2.244c0 .003 0 .005.002.007a.012.012 0 0 0 .004.004.013.013 0 0 0 .007.002l.006-.001c.425-.144.862-.25 1.306-.32.59-.096 1.187-.142 1.785-.137a3.31 3.31 0 0 1 1.195.189 1.85 1.85 0 0 1 1.17 1.298c.079.303.117.614.116.927v.464a9.07 9.07 0 0 0-1.09-.188 9.096 9.096 0 0 0-2.886.13 4.764 4.764 0 0 0-1.611.65 3.315 3.315 0 0 0-1.1 1.17 3.535 3.535 0 0 0-.406 1.762c-.02.63.103 1.257.36 1.833.226.48.569.894.997 1.206.463.326.987.555 1.542.672a8.847 8.847 0 0 0 1.993.21c.988.01 1.976-.053 2.956-.19a28.351 28.351 0 0 0 1.947-.333.013.013 0 0 0 .012-.014v-7.338a7.438 7.438 0 0 0-.244-1.96 3.645 3.645 0 0 0-.828-1.537Zm-1.66 8.984a.015.015 0 0 1-.01.015c-.648.106-1.304.152-1.96.136a3.233 3.233 0 0 1-1.699-.378 1.485 1.485 0 0 1-.624-1.38c-.012-.298.07-.594.232-.845a1.55 1.55 0 0 1 .613-.523c.272-.128.561-.214.859-.255.312-.046.628-.07.944-.07a6.275 6.275 0 0 1 1.643.211.013.013 0 0 1 .003.009v3.08ZM100.548 20.424a5.603 5.603 0 0 0-2.086.405c-.68.271-1.296.682-1.808 1.206a5.872 5.872 0 0 0-1.264 2.007 7.614 7.614 0 0 0-.476 2.805c-.007.853.12 1.702.377 2.516.23.738.617 1.417 1.133 1.993a5.167 5.167 0 0 0 1.948 1.321 7.449 7.449 0 0 0 2.782.476c.41 0 .821-.023 1.229-.07.401-.047.778-.105 1.132-.174.313-.06.622-.138.927-.232.215-.063.425-.143.628-.238.002-.002.002-.005.002-.007 0-.003 0-.006-.002-.008l-.366-2.265a.013.013 0 0 0-.002-.006.01.01 0 0 0-.004-.005.014.014 0 0 0-.006-.001h-.007c-.428.169-.87.298-1.321.388a8.725 8.725 0 0 1-1.867.189 3.92 3.92 0 0 1-2.655-.8 3.19 3.19 0 0 1-1.03-2.251l.003-.006a.015.015 0 0 1 .005-.004.015.015 0 0 1 .006 0h7.971a.015.015 0 0 0 .01-.005.013.013 0 0 0 .005-.01 12.405 12.405 0 0 0 .045-1.03 6.716 6.716 0 0 0-1.402-4.637 4.996 4.996 0 0 0-3.907-1.557Zm-2.695 5.171a.015.015 0 0 1-.012-.005.015.015 0 0 1-.003-.005v-.007c.047-.35.131-.694.253-1.026a2.92 2.92 0 0 1 .522-.905c.229-.265.509-.483.823-.638a2.51 2.51 0 0 1 1.133-.243 2.45 2.45 0 0 1 1.079.22c.296.144.557.35.765.603.215.268.376.575.475.904.108.352.163.719.163 1.087a.015.015 0 0 1-.005.01.014.014 0 0 1-.01.005h-5.183ZM142.973 22.164a5.198 5.198 0 0 0-1.844-1.288 6.028 6.028 0 0 0-2.354-.453 5.938 5.938 0 0 0-2.342.453 5.326 5.326 0 0 0-1.843 1.288 5.848 5.848 0 0 0-1.206 2.004 7.544 7.544 0 0 0-.428 2.609 7.657 7.657 0 0 0 .428 2.62c.26.744.667 1.43 1.195 2.015.511.558 1.135 1 1.831 1.299a5.87 5.87 0 0 0 2.365.464 5.953 5.953 0 0 0 2.376-.464 5.303 5.303 0 0 0 1.844-1.299c.527-.585.93-1.27 1.184-2.016a7.83 7.83 0 0 0 .417-2.62 7.521 7.521 0 0 0-.429-2.608 5.966 5.966 0 0 0-1.194-2.004Zm-2.029 7.512a2.745 2.745 0 0 1-2.171 1.07 2.735 2.735 0 0 1-2.171-1.07 4.829 4.829 0 0 1-.775-2.897 4.73 4.73 0 0 1 .775-2.864 2.761 2.761 0 0 1 3.378-.78c.376.184.706.45.964.78.558.847.83 1.85.775 2.864a4.829 4.829 0 0 1-.775 2.897ZM152.901 20.6a14.813 14.813 0 0 0-.742-.093 6.267 6.267 0 0 0-.649-.034c-.908-.008-1.813.08-2.701.266a15.61 15.61 0 0 0-2.02.566l-.001.007.001.006v11.52a.053.053 0 0 0 .003.005.01.01 0 0 0 .005.003.01.01 0 0 0 .005.001h2.777c.004 0 .008-.002.01-.004a.015.015 0 0 0 .005-.01v-9.691a.015.015 0 0 1-.002-.007l.002-.007a6.16 6.16 0 0 1 .721-.158c.325-.06.655-.09.985-.092.479-.006.957.037 1.427.128a9.148 9.148 0 0 1 .95.24l.005-.002a.01.01 0 0 0 .004-.004.011.011 0 0 0 .002-.006l.481-2.336a.013.013 0 0 0 .003-.009.013.013 0 0 0-.003-.008 8.488 8.488 0 0 0-1.268-.281ZM109.27 16.722a1.448 1.448 0 0 0-1.276 1.469v14.643a.02.02 0 0 0 .004.01.016.016 0 0 0 .011.005h2.777a.015.015 0 0 0 .009-.005.018.018 0 0 0 .004-.01V18.11a1.404 1.404 0 0 0-1.529-1.389ZM157.121 16.722a1.4 1.4 0 0 0-1.534 1.36v14.752c0 .003.001.007.004.01a.016.016 0 0 0 .011.005h2.774a.016.016 0 0 0 .011-.005.014.014 0 0 0 .004-.01V18.189a1.451 1.451 0 0 0-1.27-1.467ZM169.193 18.127v3.005a.01.01 0 0 1 0 .007c-.002.003-.003.005-.006.006a.011.011 0 0 1-.007.002 5.505 5.505 0 0 0-4.989-.212 4.691 4.691 0 0 0-1.698 1.286 5.666 5.666 0 0 0-1.055 2.004 8.877 8.877 0 0 0-.361 2.607 7.579 7.579 0 0 0 .431 2.63 5.522 5.522 0 0 0 1.228 1.994 5.348 5.348 0 0 0 1.937 1.263 7.082 7.082 0 0 0 2.574.441c.89.003 1.778-.067 2.656-.21a16.745 16.745 0 0 0 2.088-.46.02.02 0 0 0 .007-.005.022.022 0 0 0 .002-.008V18.01a1.407 1.407 0 0 0-2.805.117h-.002Zm.002 12.402a.017.017 0 0 1-.003.01.016.016 0 0 1-.008.005c-.2.046-.455.087-.766.125a9.743 9.743 0 0 1-1.148.058 2.995 2.995 0 0 1-2.435-1.055 4.399 4.399 0 0 1-.881-2.908 4.959 4.959 0 0 1 .706-2.831 2.506 2.506 0 0 1 2.236-1.044c.446-.003.89.072 1.31.22.345.116.674.274.98.47a.022.022 0 0 1 0 .012l.009 6.938ZM90.931 22.922a84.84 84.84 0 0 1-1.513 4.608 61.062 61.062 0 0 1-.738 1.957.013.013 0 0 1-.007.003l-.008-.002a64.222 64.222 0 0 1-1.541-4.223c-.251-.78-.492-1.561-.72-2.343l-.361-1.29a1.212 1.212 0 0 0-1.172-.9h-.43a1.218 1.218 0 0 0-1.163 1.57 66.337 66.337 0 0 0 1.762 5.073 78.486 78.486 0 0 0 2.382 5.474.014.014 0 0 0 .007.002l.007-.002h2.38a.015.015 0 0 0 .013 0 77.823 77.823 0 0 0 2.382-5.474c.63-1.6 1.217-3.291 1.763-5.072a1.218 1.218 0 0 0-1.165-1.57h-.337a1.212 1.212 0 0 0-1.17.895c-.114.41-.237.841-.37 1.294ZM122.981 18.593a1.446 1.446 0 0 1 1.385 1.028c.157.524.32 1.06.489 1.606.28.913.573 1.826.877 2.74a224.237 224.237 0 0 0 1.792 5.187c.234-.844.46-1.76.679-2.751.219-.99.438-2.02.657-3.09a236.257 236.257 0 0 0 1.031-5.358 1.44 1.44 0 0 1 1.421-1.186h.073a1.45 1.45 0 0 1 1.42 1.731c-.458 2.317-.956 4.56-1.493 6.73a100.727 100.727 0 0 1-2.246 7.762h-2.831c-1.21-3.152-2.381-6.593-3.513-10.324a149.188 149.188 0 0 1-1.759 5.384 241.78 241.78 0 0 1-1.782 4.94h-2.816a90.643 90.643 0 0 1-2.256-7.761 150.161 150.161 0 0 1-1.479-6.735 1.438 1.438 0 0 1 .301-1.197 1.451 1.451 0 0 1 1.116-.53h.206a1.442 1.442 0 0 1 1.421 1.184c.126.68.252 1.373.378 2.076a150.439 150.439 0 0 0 1.345 6.366c.234 1 .469 1.92.703 2.764.297-.797.597-1.636.902-2.516.304-.881.605-1.779.902-2.694a134.359 134.359 0 0 0 1.319-4.303 1.445 1.445 0 0 1 1.389-1.046l.369-.008Z"/></svg>