<svg xmlns="http://www.w3.org/2000/svg" width="120" height="40" fill="none" viewBox="0 0 180 40"><g fill="#979aad" clip-path="url(#a)"><path d="M17.773 38.997 1.146 3.273h6.307l10.32 22.691L28.55 2.46l10.722 23.505L49.65 3.274h6.306L39.273 38.996 28.55 15.492 17.773 38.996Zm47.271-.815c-3.67 0-6.689-1.125-9.058-3.374-2.332-2.289-3.498-5.043-3.498-8.262 0-3.22 1.166-5.954 3.498-8.204 2.37-2.288 5.389-3.432 9.058-3.432 2.484 0 4.797.6 6.937 1.803V14.91h5.734v23.272H71.98V36.38c-2.14 1.202-4.453 1.803-6.937 1.803Zm-4.93-15.767c-1.262 1.125-1.892 2.502-1.892 4.13 0 1.63.63 3.007 1.892 4.132 1.376 1.125 3.019 1.687 4.93 1.687 1.911 0 3.535-.562 4.873-1.687 1.376-1.164 2.064-2.54 2.064-4.131 0-1.59-.688-2.948-2.064-4.073-1.338-1.163-2.962-1.745-4.873-1.745s-3.554.562-4.93 1.687Zm27.92 15.767h-5.733V.946h5.733v37.236Zm10.302 0h-5.733V14.91h5.733v1.803c2.102-1.202 4.396-1.803 6.88-1.803 3.708 0 6.727 1.144 9.059 3.432 2.369 2.25 3.554 4.985 3.554 8.204v11.636h-5.733V26.72c0-1.667-.669-3.083-2.007-4.247-1.337-1.163-2.962-1.745-4.873-1.745s-3.535.581-4.873 1.745c-1.338 1.164-2.007 2.58-2.007 4.248v11.461Zm24.053-11.636V14.91h5.733V26.37c0 1.668.669 3.084 2.007 4.248 1.338 1.163 2.962 1.745 4.874 1.745 1.91 0 3.535-.582 4.873-1.745 1.337-1.164 2.006-2.58 2.006-4.248V14.91h5.734v23.272h-5.734V36.38c-2.102 1.202-4.395 1.803-6.879 1.803-3.708 0-6.747-1.125-9.117-3.374-2.331-2.289-3.497-5.043-3.497-8.262Zm33.226-5.818h-4.587V14.91h4.587V6.764h5.733v8.146h6.88v5.818h-6.88v5.818c0 1.59.611 2.967 1.834 4.13 1.224 1.126 2.715 1.688 4.473 1.688h.573v5.818h-.573c-3.326 0-6.173-1.105-8.543-3.316-2.331-2.25-3.497-4.965-3.497-8.145v-5.993ZM172.663 38.299c-.65-.66-.975-1.474-.975-2.444s.325-1.784.975-2.444c.688-.698 1.51-1.047 2.465-1.047.955 0 1.758.35 2.409 1.047.687.66 1.031 1.474 1.031 2.444s-.344 1.784-1.031 2.444a3.163 3.163 0 0 1-2.409 1.047c-.955 0-1.777-.35-2.465-1.047Z"/></g><defs><clipPath id="a"><path fill="#fff" d="M0 0h180v40H0z"/></clipPath></defs></svg>