<svg xmlns="http://www.w3.org/2000/svg" viewBox="0 0 1697 291"><path fill="#979AAD" fill-rule="evenodd" d="M251.696 145.285c24.724 42.74 38.874 92.362 38.874 145.288-52.925 0-102.546-14.15-145.285-38.875 44.112-25.518 80.893-62.3 106.411-106.413ZM145.285 38.874C188.024 14.15 237.643 0 290.568 0c0 52.925-14.15 102.545-38.872 145.285-25.518-44.112-62.299-80.894-106.411-106.411ZM38.875 145.285c25.517 44.113 62.298 80.895 106.41 106.413C102.546 276.423 52.925 290.573 0 290.573c0-52.926 14.15-102.548 38.875-145.288Zm0 0C14.152 102.545.002 52.925.002 0c52.925 0 102.545 14.15 145.283 38.873-44.111 25.518-80.892 62.3-106.41 106.412Z" clip-rule="evenodd"/><path fill="#979AAD" stroke="#979AAD" stroke-width="1.11" d="M1596.02 232.376v.004c10.43 6.221 22.52 9.323 36.27 9.323 13.91 0 26.08-3.102 36.51-9.323v-.004c10.42-6.381 17.67-14.461 21.72-24.247l.2-.483-.48-.229-24.73-11.993-.48-.23-.25.464c-2.95 5.411-7.13 9.84-12.55 13.29l-.01.004c-5.22 3.425-11.77 5.156-19.68 5.156-10.21 0-18.82-3.122-25.87-9.353-6.75-6.105-10.67-14.344-11.75-24.767h99.01l.11-.421c.51-2.028.84-4.219 1.01-6.571.34-2.352.5-4.703.5-7.056 0-11.917-2.85-22.839-8.56-32.754-5.55-10.077-13.27-18.141-23.18-24.186-9.76-6.057-21.02-9.077-33.77-9.077-12.76 0-24.27 3.105-34.52 9.324-10.08 6.049-18.06 14.451-23.94 25.193-5.88 10.586-8.81 22.674-8.81 36.248 0 13.244 2.93 25.247 8.81 35.996 5.88 10.745 14.03 19.312 24.44 25.692Zm56.13-97.759v.005c6.08 5.436 9.42 12.43 10.03 21.019h-66.45c1.87-9.408 5.85-16.645 11.93-21.758 6.22-5.24 13.67-7.865 22.38-7.865 8.52 0 15.88 2.864 22.11 8.599ZM1521.7 192.91V131h31.99V102.906h-31.99V61.179h-31.09v22.043c0 6.39-1.8 11.225-5.32 14.59l-.01.01c-3.37 3.364-8.21 5.084-14.6 5.084H1466.12V131h24.49v61.91c0 14.928 4.11 26.58 12.41 34.873 8.29 8.296 20.11 12.406 35.37 12.406 2.34 0 4.94-.084 7.78-.251 2.85-.168 5.46-.504 7.83-1.011l.44-.094V213.749l-.65.101c-3.14.496-6.11.743-8.9.743-6.28 0-11.08-.992-14.46-2.918-3.23-2.107-5.48-4.765-6.77-7.973a30.213 30.213 0 0 1-1.96-10.792ZM1427.36 224.642v14.062H1456.71v-90.503c0-9.426-2.36-17.778-7.09-25.039-4.72-7.253-11.3-12.897-19.71-16.935-8.25-4.21-17.92-6.304-28.98-6.304-13.42 0-25.43 3.272-36.02 9.827v.002c-10.42 6.553-17.59 14.972-21.47 25.26l-.17.468.45.224 25.98 12.993.54.271.23-.564c2.45-6.228 6.38-11.133 11.78-14.733l.01-.007c5.4-3.762 11.61-5.647 18.67-5.647 7.4 0 13.35 1.889 17.89 5.621 4.53 3.723 6.79 8.561 6.79 14.563V152l-43.78 9.4-.01.001c-13.71 3.011-24.39 7.872-31.98 14.617-7.61 6.602-11.43 15-11.43 25.153 0 7.764 2.03 14.702 6.09 20.796 4.06 6.09 9.81 10.899 17.21 14.435 7.42 3.541 16.17 5.301 26.23 5.301 16.12 0 29.28-5.687 39.42-17.061Zm-39.3-40.421 37.55-8.59v8.299c0 6.237-1.47 11.886-4.42 16.959-2.94 4.908-7.03 8.837-12.28 11.79-5.07 2.78-10.89 4.178-17.47 4.178-6.42 0-11.45-1.398-15.16-4.135-3.68-2.885-5.53-6.799-5.53-11.801 0-4.004 1.52-7.442 4.58-10.341v-.006l.01-.005c3.07-3.072 7.3-5.196 12.71-6.346l.01-.002ZM1252.51 238.141v.555h31.09v-76.762c0-10.395 2.81-18.314 8.34-23.844 5.71-5.714 13.06-8.583 22.09-8.583H1330.83V101.413h-13.05c-8.4 0-15.81 1.596-22.23 4.804-5.69 2.77-10.26 7.342-13.69 13.677v-16.982H1252.51v135.229ZM1109.35 102.905h-.56V187.163c0 10.407 2.18 19.743 6.56 27.994 4.38 8.247 10.44 14.735 18.19 19.453 7.76 4.723 16.69 7.077 26.78 7.077 8.4 0 15.89-1.596 22.48-4.803v-.003c6.15-3.075 11.05-7.278 14.69-12.608v14.416h29.59V102.905h-31.09v80.51c0 9.047-2.63 16.228-7.84 21.601-5.04 5.207-11.72 7.827-20.09 7.827-8.53 0-15.38-2.62-20.59-7.827-5.04-5.372-7.59-12.552-7.59-21.601v-80.51h-30.53ZM975.525 234.655l.01.003c11.399 4.694 23.798 7.038 37.185 7.038 13.06 0 24.88-2.26 35.45-6.791 10.72-4.522 19.7-10.473 26.91-17.86 7.38-7.379 12.68-15.44 15.87-24.186l.17-.472-.45-.218-27.98-13.492-.54-.261-.22.559c-3.79 9.726-9.97 17.72-18.55 23.988-8.55 6.086-18.76 9.14-30.66 9.14-12.07 0-22.622-2.81-31.685-8.413-9.07-5.607-16.165-13.44-21.285-23.516-5.118-10.07-7.686-21.807-7.686-35.228 0-13.253 2.568-24.908 7.686-34.979 5.12-10.076 12.215-17.91 21.285-23.516 9.063-5.602 19.615-8.412 31.685-8.412 11.89 0 22.1 3.135 30.66 9.388l.01.004c8.57 6.1 14.75 14.009 18.54 23.735l.22.559.54-.26 27.98-13.493.45-.218-.17-.472c-3.19-8.745-8.49-16.807-15.87-24.186-7.22-7.387-16.19-13.339-26.91-17.86-10.57-4.531-22.39-6.79-35.45-6.79-13.554 0-26.038 2.427-37.44 7.289-11.229 4.693-21.036 11.399-29.417 20.115s-14.915 18.938-19.605 30.661l-.002.007c-4.525 11.73-6.783 24.541-6.783 38.428 0 14.052 2.258 26.947 6.783 38.678l.002.006c4.69 11.723 11.224 21.946 19.605 30.661l.003.004c8.546 8.713 18.433 15.5 29.659 20.36ZM811.018 236.911l.006.003.007.003c7.9 3.194 16.467 4.788 25.693 4.788 12.92 0 24.596-3.106 35.015-9.324 10.412-6.213 18.642-14.696 24.686-25.44 6.046-10.75 9.066-22.754 9.066-36.001 0-13.414-3.103-25.504-9.318-36.255-6.043-10.742-14.272-19.224-24.682-25.437-10.253-6.218-21.763-9.323-34.517-9.323-9.226 0-17.629 1.593-25.201 4.791l-.004.001c-6.9 2.98-12.642 7.06-17.216 12.246V51.452h-31.092V238.706h29.343v-14.799c4.896 5.521 10.97 9.855 18.214 13.004Zm42.907-29.466c-5.901 3.607-12.629 5.416-20.199 5.416-7.74 0-14.551-1.728-20.451-5.167-5.74-3.61-10.336-8.532-13.789-14.778-3.284-6.406-4.933-13.727-4.933-21.976 0-8.253 1.65-15.49 4.933-21.727 3.455-6.416 8.053-11.422 13.794-15.031 5.899-3.604 12.709-5.413 20.446-5.413 7.57 0 14.298 1.808 20.199 5.415 5.909 3.611 10.589 8.617 14.043 15.031 3.45 6.407 5.181 13.644 5.181 21.725 0 8.078-1.73 15.315-5.179 21.721-3.453 6.247-8.133 11.172-14.045 14.784ZM648.482 232.376l.006.004c10.425 6.221 22.519 9.323 36.264 9.323 13.91 0 26.088-3.102 36.514-9.323l.005-.004c10.411-6.381 17.662-14.461 21.711-24.247l.2-.483-.471-.229-24.736-11.993-.475-.23-.254.464c-2.951 5.411-7.132 9.84-12.553 13.29l-.007.004c-5.219 3.425-11.769 5.156-19.684 5.156-10.203 0-18.813-3.122-25.865-9.353-6.746-6.105-10.672-14.344-11.752-24.767H746.401l.105-.421c.507-2.028.844-4.219 1.013-6.571.335-2.352.502-4.703.502-7.056 0-11.917-2.854-22.839-8.566-32.754-5.544-10.077-13.273-18.141-23.18-24.186-9.758-6.057-21.022-9.077-33.772-9.077-12.753 0-24.264 3.105-34.517 9.324-10.081 6.049-18.061 14.451-23.936 25.193-5.881 10.586-8.814 22.674-8.814 36.248 0 13.244 2.935 25.247 8.813 35.996 5.877 10.745 14.023 19.312 24.433 25.692Zm56.133-97.759.006.005c6.075 5.436 9.418 12.43 10.023 21.019h-66.449c1.871-9.408 5.857-16.645 11.929-21.758 6.222-5.24 13.672-7.865 22.379-7.865 8.524 0 15.885 2.864 22.112 8.599ZM413.656 238.292l.109.414H454.105l.104-.421 35.19-141.496 34.943 141.496.104.421H564.786l.109-.413 48.972-186.145.183-.696h-33.633l-.106.42-35.932 142.497-34.701-142.493-.103-.424h-39.101l-.102.425-34.452 142.73-35.93-142.736-.106-.419h-35.132l.182.695 48.722 186.145Z"/></svg>