<svg xmlns="http://www.w3.org/2000/svg" width="107" height="24" fill="none"><path fill="#979AAD" d="M28.447 0 17.083 16.079v7.783h-5.718V16.08L0 0h6.941l7.265 10.963L21.471 0h6.976ZM51.14 11.88a6.91 6.91 0 0 1 1.906 4.783 6.77 6.77 0 0 1-.593 2.816c-.777 1.738-2.236 3.12-4.068 3.855a7.806 7.806 0 0 1-2.963.56H31.935V.07h13.487a8.039 8.039 0 0 1 3.02.563c.927.37 1.76.923 2.446 1.62a7.221 7.221 0 0 1 1.456 2.287 7.35 7.35 0 0 1 .523 2.766c0 1.753-.576 3.278-1.727 4.575ZM37.655 8.944c0 .206.12.308.359.308h7.194c.25-.001.498-.052.727-.149.229-.097.434-.238.602-.415.186-.176.332-.386.43-.616.099-.231.147-.478.144-.727a1.574 1.574 0 0 0-.114-.715 1.646 1.646 0 0 0-.426-.6 1.908 1.908 0 0 0-.626-.395 1.987 1.987 0 0 0-.74-.133h-7.193c-.24 0-.36.102-.36.306l.003 3.136Zm0 9.217c0 .206.12.307.359.307h7.373c.254.003.505-.042.74-.133a1.91 1.91 0 0 0 .627-.395c.187-.17.335-.373.434-.6.099-.226.147-.47.14-.715a1.986 1.986 0 0 0-.595-1.348 1.74 1.74 0 0 0-.592-.416 1.822 1.822 0 0 0-.72-.147h-7.41c-.239 0-.358.102-.358.306l.002 3.141Z"/><path fill="url(#a)" d="M57.001 10.783v13.182h5.755v-2.8c0-.204.095-.307.287-.307h4.69c-.841-5.654-4.926-9.4-10.732-10.075Z"/><path fill="url(#b)" d="M81.165 9.559a9.623 9.623 0 0 0-.825-3.175 10.362 10.362 0 0 0-2.373-3.33A11.395 11.395 0 0 0 74.459.82 11.105 11.105 0 0 0 70.201 0h-.976c.975 5.692 5.616 9.055 11.94 9.559Z"/><path fill="#979AAD" d="M67.722 0h-10.72v9.535C62.781 8.954 66.856 5.6 67.721 0ZM69.04 22.61l.37 1.355h6.19l-1.516-3.792a10.633 10.633 0 0 0 4.603-3.133c.807-.92 1.44-1.965 1.87-3.09a9.74 9.74 0 0 0 .635-3.203c-6.99.613-11.931 5.13-12.152 11.863ZM106.667.034v11.948c0 1.436-.06 2.824-.18 4.165a8.744 8.744 0 0 1-1.223 3.754c-.84 1.412-2.087 2.46-3.74 3.14-.824.336-1.688.576-2.572.718-1.062.168-2.137.249-3.214.24a19.569 19.569 0 0 1-3.198-.24c-.89-.139-1.76-.38-2.59-.716a7.724 7.724 0 0 1-3.74-3.14 8.142 8.142 0 0 1-.79-1.81 11.841 11.841 0 0 1-.413-1.945 18.577 18.577 0 0 1-.145-2.031c-.012-.695-.018-1.406-.017-2.134V.034H90.6v11.948c0 1.091.024 2.103.072 3.035.048.933.224 1.662.527 2.188.084.113.174.221.27.325.194.19.426.34.683.444.427.178.873.31 1.331.392.563.113 1.312.17 2.248.17.76.014 1.52-.043 2.27-.17.464-.08.916-.212 1.348-.392.324-.148.546-.296.665-.444.12-.148.207-.256.252-.325.312-.522.497-1.256.557-2.201.06-.946.09-1.953.09-3.021V.034h5.754Z"/><defs><linearGradient id="a" x1="57.311" x2="63.366" y1="24.134" y2="13.085" gradientUnits="userSpaceOnUse"><stop stop-color="#979AAD"/><stop offset=".92" stop-color="#979AAD" stop-opacity=".41"/></linearGradient><linearGradient id="b" x1="77.489" x2="73.355" y1="2.601" y2="6.956" gradientUnits="userSpaceOnUse"><stop stop-color="#979AAD"/><stop offset=".26" stop-color="#979AAD" stop-opacity=".75"/><stop offset=".62" stop-color="#979AAD" stop-opacity=".58"/><stop offset=".79" stop-color="#979AAD" stop-opacity=".5"/></linearGradient></defs></svg>