<svg xmlns="http://www.w3.org/2000/svg" width="13.516" height="13.518"><defs><style>.a{fill:#bcbec9}</style></defs><path d="M8.247 5.269a3.067 3.067 0 0 0-.529-.426 3.154 3.154 0 0 0-3.931.426L.921 8.132a3.154 3.154 0 0 0 4.458 4.462l2.365-2.362a.225.225 0 0 0-.16-.385h-.09a3.791 3.791 0 0 1-1.442-.279.225.225 0 0 0-.246.05l-1.7 1.7a1.352 1.352 0 0 1-1.912-1.912l2.877-2.874a1.352 1.352 0 0 1 1.91 0 .924.924 0 0 0 1.266 0 .892.892 0 0 0 0-1.266Z" class="a"/><path d="M12.591.924a3.154 3.154 0 0 0-4.46 0L5.768 3.285a.226.226 0 0 0 .164.385h.083a3.784 3.784 0 0 1 1.439.282.225.225 0 0 0 .246-.05l1.7-1.694a1.352 1.352 0 0 1 1.912 1.912L9.199 6.231l-.018.02-.739.734a1.352 1.352 0 0 1-1.91 0 .924.924 0 0 0-1.266 0 .9.9 0 0 0 0 1.27 3.127 3.127 0 0 0 .9.631c.047.023.095.041.142.061s.1.036.144.054.1.034.144.047l.133.036c.09.023.18.041.273.056a3.135 3.135 0 0 0 .336.032h.171l.135-.016c.05 0 .1-.014.16-.014h.077l.155-.023.072-.014.131-.027h.025a3.153 3.153 0 0 0 1.462-.829l2.867-2.867a3.154 3.154 0 0 0-.002-4.458Z" class="a"/></svg>