<svg xmlns="http://www.w3.org/2000/svg" width="140" height="35" fill="none"><path fill="#979AAD" d="M15.534 27.29v-3.591h4.07c.692 0 1.206-.177 1.543-.53.337-.355.506-.869.506-1.543 0-.674-.169-1.18-.506-1.517-.337-.354-.851-.531-1.542-.531h-4.07v-2.781h3.918c1.298 0 2.46.16 3.489.48 1.028.304 1.837.81 2.427 1.517.59.708.885 1.652.885 2.832v.354c0 1.112-.261 2.064-.784 2.857-.522.792-1.29 1.399-2.3 1.82-1.012.421-2.25.632-3.717.632h-3.919Zm-4.045 0V8.53h4.55v18.76h-4.55Zm4.045-8.42v-2.781h3.388c.691 0 1.188-.169 1.492-.506.32-.354.48-.842.48-1.466 0-.64-.16-1.13-.48-1.466-.304-.354-.8-.531-1.492-.531h-3.388V8.53h3.186c2.157 0 3.826.455 5.006 1.365 1.18.893 1.77 2.174 1.77 3.843v.379c0 1.163-.304 2.098-.91 2.806-.59.691-1.4 1.189-2.428 1.492-1.011.303-2.157.455-3.438.455h-3.186Zm19.15 8.773c-1.18 0-2.225-.202-3.136-.607a6.738 6.738 0 0 1-2.3-1.643 7.572 7.572 0 0 1-1.442-2.326 7.546 7.546 0 0 1-.48-2.655v-.505c0-.944.16-1.846.48-2.706a7.428 7.428 0 0 1 1.416-2.326 6.677 6.677 0 0 1 2.276-1.592c.893-.405 1.904-.607 3.034-.607 1.5 0 2.772.337 3.817 1.011a6.7 6.7 0 0 1 2.402 2.68c.556 1.096.834 2.292.834 3.59v1.467H29.248v-2.478h9.683l-1.593 1.112c0-.792-.11-1.458-.329-1.997-.202-.556-.514-.978-.935-1.264-.405-.287-.919-.43-1.542-.43-.607 0-1.138.143-1.593.43-.438.27-.776.69-1.012 1.264-.235.556-.353 1.264-.353 2.124 0 .775.11 1.45.328 2.022.22.556.556.986 1.012 1.29.455.303 1.045.455 1.77.455.64 0 1.162-.11 1.567-.329.421-.219.716-.514.885-.885h4.197a5.882 5.882 0 0 1-1.214 2.529c-.59.741-1.348 1.323-2.275 1.744-.91.421-1.964.632-3.16.632Zm15.344-.303c-1.517 0-2.73-.186-3.64-.556-.894-.371-1.543-.987-1.947-1.846-.405-.86-.607-2.023-.607-3.49l.025-11.907h4.247l-.025 12.034c0 .624.16 1.104.48 1.441.338.32.818.48 1.442.48h1.921v3.844h-1.896Zm-8.217-10.821v-3.337h10.113v3.337H41.811Zm18.597 10.82c-1.517 0-2.73-.185-3.641-.555-.893-.371-1.542-.987-1.947-1.846-.404-.86-.607-2.023-.607-3.49l.026-11.907h4.247l-.025 12.034c0 .624.16 1.104.48 1.441.337.32.818.48 1.441.48h1.922v3.844h-1.896ZM52.19 16.52v-3.337h10.113v3.337H52.19Zm18.446 11.124c-1.18 0-2.225-.202-3.135-.607a6.74 6.74 0 0 1-2.301-1.643 7.572 7.572 0 0 1-1.441-2.326 7.546 7.546 0 0 1-.48-2.655v-.505c0-.944.16-1.846.48-2.706a7.43 7.43 0 0 1 1.416-2.326 6.676 6.676 0 0 1 2.275-1.592c.894-.405 1.905-.607 3.034-.607 1.5 0 2.773.337 3.818 1.011a6.7 6.7 0 0 1 2.401 2.68c.557 1.096.835 2.292.835 3.59v1.467H65.2v-2.478h9.683l-1.593 1.112c0-.792-.11-1.458-.328-1.997-.203-.556-.514-.978-.936-1.264-.404-.287-.918-.43-1.542-.43-.607 0-1.138.143-1.593.43-.438.27-.775.69-1.011 1.264-.236.556-.354 1.264-.354 2.124 0 .775.11 1.45.329 2.022.219.556.556.986 1.011 1.29.455.303 1.045.455 1.77.455.64 0 1.163-.11 1.567-.329.422-.219.717-.514.885-.885h4.197a5.881 5.881 0 0 1-1.213 2.529c-.59.741-1.349 1.323-2.276 1.744-.91.421-1.964.632-3.16.632Zm8.695-.506V13.181h3.64v6.068h-.05c0-1.955.405-3.489 1.214-4.601.826-1.112 2.005-1.669 3.54-1.669h.555v3.944H87.17c-1.029 0-1.83.278-2.402.835-.556.556-.835 1.356-.835 2.402v6.977h-4.6Zm14.28 0-5.36-18.456h4.855l4.02 15.144-.885-.43h2.427l-.91.43L101.5 8.681h4.703l-5.006 18.456h-7.585Zm14.346 0V13.181h4.602v13.956h-4.602Zm-1.77-10.618v-3.337h6.372v3.337h-6.372Zm3.666-4.45c-.842 0-1.466-.21-1.871-.632-.387-.438-.581-.994-.581-1.669 0-.674.194-1.222.581-1.643.405-.438 1.02-.657 1.846-.657.843 0 1.458.219 1.846.657.387.421.581.97.581 1.643 0 .675-.194 1.23-.581 1.669-.388.421-.995.632-1.821.632Zm5.456 15.068V13.181h3.641V19.2h-.202c0-1.45.177-2.647.531-3.59.37-.961.91-1.678 1.618-2.15.708-.488 1.576-.733 2.604-.733h.202c1.045 0 1.913.245 2.604.734.708.471 1.239 1.188 1.593 2.149.371.943.556 2.14.556 3.59h-1.062c0-1.45.177-2.647.531-3.59.371-.961.91-1.678 1.618-2.15.708-.488 1.576-.733 2.604-.733h.203c1.045 0 1.921.245 2.629.734.725.471 1.273 1.188 1.643 2.149.388.943.582 2.14.582 3.59v7.938h-4.602v-8.065c0-.64-.177-1.171-.531-1.592-.337-.439-.825-.658-1.466-.658-.64 0-1.146.22-1.517.658-.354.42-.531.969-.531 1.643v8.014h-4.601v-8.065c0-.64-.177-1.171-.531-1.592-.337-.439-.826-.658-1.466-.658-.641 0-1.147.22-1.517.658-.354.42-.531.969-.531 1.643v8.014h-4.602ZM1.214 25v-4.526h4.45V25h-4.45Zm0-8.42v-4.525h4.45v4.526h-4.45Z"/></svg>