<svg xmlns="http://www.w3.org/2000/svg" width="938" height="222" fill="none"><path fill="#979AAD" d="M320.084 167.13c-14.484 0-26.696-4.828-36.636-14.484-9.94-9.656-14.91-22.294-14.91-37.914 0-15.525 5.017-28.163 15.052-37.914 10.129-9.75 22.199-14.626 36.21-14.626 12.875 0 23.193 3.266 30.956 9.798 7.857 6.532 12.922 14.39 15.194 23.572l-18.46 5.822c-1.42-5.68-4.402-10.46-8.946-14.342-4.544-3.976-10.792-5.964-18.744-5.964-8.236 0-15.478 2.935-21.726 8.804-6.153 5.87-9.23 14.153-9.23 24.85 0 10.224 3.029 18.318 9.088 24.282 6.153 5.964 13.537 8.946 22.152 8.946 7.857 0 14.105-2.035 18.744-6.106 4.733-4.071 7.905-8.899 9.514-14.484l18.318 5.538c-1.041 4.071-2.745 8.047-5.112 11.928-2.272 3.881-5.254 7.526-8.946 10.934-3.692 3.408-8.378 6.153-14.058 8.236-5.585 2.083-11.739 3.124-18.46 3.124ZM447.085 165l-8.378-23.004h-40.896L389.433 165h-20.732l38.624-100.678h22.72L468.385 165h-21.3Zm-28.826-78.952-13.916 38.056h27.832l-13.916-38.056ZM593.584 165h-19.312V94.426L545.304 165h-16.33l-28.968-70.006V165h-18.744V64.322h25.844l30.246 72.704 29.536-72.704h26.696V165Zm86.07 0h-63.048V64.322h63.048v18.46h-43.452v23.004h39.334v17.466h-39.334v23.288h43.452V165Zm84.068 0h-64.468V64.322h19.596v81.934h44.872V165Zm35.377-75.118c-6.248 5.775-9.372 14.011-9.372 24.708s3.124 18.981 9.372 24.85c6.248 5.775 13.584 8.662 22.01 8.662 8.52 0 15.904-2.887 22.152-8.662 6.248-5.869 9.372-14.153 9.372-24.85 0-10.697-3.124-18.933-9.372-24.708-6.248-5.87-13.632-8.804-22.152-8.804-8.426 0-15.762 2.935-22.01 8.804Zm-29.678 24.85c0-15.715 5.064-28.4 15.194-38.056 10.129-9.656 22.294-14.484 36.494-14.484 14.294 0 26.506 4.828 36.636 14.484 10.129 9.656 15.194 22.341 15.194 38.056 0 15.62-5.065 28.258-15.194 37.914-10.13 9.656-22.342 14.484-36.636 14.484-14.2 0-26.365-4.828-36.494-14.484-10.13-9.656-15.194-22.294-15.194-37.914Z"/><rect width="156" height="156" x="77" y="33" fill="#979AAD" rx="16"/><g fill="#fff" clip-path="url(#a)"><path d="m170.216 105.558-29.676 29.676 24.366 24.365c1.959 1.96 5.31.572 5.31-2.199v-51.842ZM172.511 75.943l26.771 26.771a3.11 3.11 0 0 1 0 4.399l-27.949 27.949v-58.63a.69.69 0 0 1 1.178-.489ZM109.335 105.552l29.68 29.681-24.371 24.371c-1.959 1.959-5.309.571-5.309-2.2v-51.852ZM109.611 104.35 137.56 76.4a3.11 3.11 0 0 1 4.399 0l27.949 27.95-30.148 30.149-30.149-30.149Z"/><circle cx="182.978" cy="68.725" r="11.725"/></g><defs><clipPath id="a"><path fill="#fff" d="M109 57h92v108.43h-92z"/></clipPath></defs></svg>