<svg xmlns="http://www.w3.org/2000/svg" xml:space="preserve" id="Layer_1" x="0" y="0" version="1.1" viewBox="0 0 39.3 35.4"><style>.st1{fill:#f7941d}</style><path fill="#2495c6" d="M36.7 11.5C35 9.8 32.9 9 30.5 9c-2.4 0-4.5.9-6.2 2.6-1.7 1.7-2.6 3.8-2.6 6.2 0 2.4.9 4.5 2.6 6.2 1.7 1.7 3.8 2.5 6.2 2.5h8.8v-8.7c0-2.5-.9-4.6-2.6-6.3zm-10.9 6.2c0-1.3.4-2.4 1.4-3.4.9-.9 2-1.4 3.3-1.4 1.3 0 2.4.5 3.3 1.4.9.9 1.4 2 1.4 3.4v4.7h-4.7c-1.3 0-2.4-.5-3.3-1.4-.9-.9-1.4-2-1.4-3.3z"/><path d="M11 35.4c-.9 0-1.9-.4-2.8-1C3 30.5 0 24.4 0 17.7 0 11 3 4.9 8.3 1c.9-.6 1.8-1 2.8-1 .9 0 1.5.3 1.8.9.5 1.2-.5 2.8-1.8 3.7C7 7.7 4.6 12.4 4.6 17.7c0 5.2 2.4 10 6.5 13.1 1.2.9 2.3 2.5 1.8 3.7-.3.6-1 .9-1.9.9z" class="st1"/><path d="M19.1 30.5c-.8 0-1.7-.3-2.4-.8-3.8-2.8-6-7.2-6-12.1 0-4.8 2.2-9.2 6-12.1.7-.5 1.6-.8 2.4-.8.9 0 1.7.4 2 1.1.5 1.3-.4 2.7-1.5 3.6-2.6 1.9-4.1 4.9-4.1 8.2 0 3.3 1.5 6.3 4.1 8.2 1.1.9 2 2.3 1.5 3.6-.3.7-1.1 1.1-2 1.1z" class="st1"/></svg>