<svg width="120" height="48" viewBox="0 0 700 700" fill="none" xmlns="http://www.w3.org/2000/svg">
<g clip-path="url(#clip0_fm)">
<g clip-path="url(#clip1_fm)">
<path d="M81.4815 191.262L327.698 49.1088C369.626 24.9021 403.615 44.5257 403.615 92.9393L403.615 377.246C403.615 425.66 369.626 484.531 327.698 508.738L81.4815 650.891C39.554 675.098 5.56489 655.474 5.56476 607.06L5.56476 322.754C5.56482 274.34 39.554 215.469 81.4815 191.262Z" fill="#979AAD"/>
<rect width="73.4458" height="49.7536" rx="24.8768" transform="matrix(0.866025 -0.5 2.20305e-08 1 133.98 277.044)" fill="#979AAD" fill-opacity="0.3"/>
<rect width="103.061" height="49.7536" rx="24.8768" transform="matrix(0.866025 -0.5 2.20305e-08 1 133.803 277.146)" fill="white"/>
<rect width="66.3381" height="49.7536" rx="24.8768" transform="matrix(0.866025 -0.5 2.20305e-08 1 133.803 445.361)" fill="white"/>
<rect width="158.738" height="49.7536" rx="24.8768" transform="matrix(0.866025 -0.5 2.20305e-08 1 133.803 361.254)" fill="white"/>
<rect width="52.1228" height="49.7536" rx="24.8768" transform="matrix(0.866025 -0.5 2.20305e-08 1 235.367 218.508)" fill="white"/>
</g>
<g clip-path="url(#clip2_fm)">
<rect x="6.15541" y="3.55383" width="459.628" height="459.628" rx="87.6611" transform="matrix(0.866025 -0.5 2.20305e-08 1 290.463 234.617)" fill="white" stroke="#979AAD" stroke-width="14.2153"/>
<path d="M439.343 521.203C429.341 526.978 422.228 529.416 418.005 528.518C413.781 527.363 411.225 524.347 410.336 519.47C409.447 514.337 409.002 508.947 409.002 503.3L409.002 304.256C409.002 290.91 411.225 280.515 415.671 273.071C420.339 265.243 428.563 257.928 440.344 251.127L562.375 180.672C567.487 177.72 572.266 175.474 576.712 173.935C581.38 172.266 585.158 173.036 588.048 176.244C590.938 179.453 592.382 186.96 592.382 198.767C592.382 210.317 590.826 219.428 587.714 226.102C584.825 232.647 581.046 237.78 576.378 241.502C571.71 245.223 566.82 248.56 561.708 251.512L470.018 304.449L470.018 338.714L531.367 303.294C536.479 300.342 541.036 298.225 545.037 296.941C549.26 295.273 552.483 295.979 554.706 299.059C557.151 301.754 558.374 308.235 558.374 318.501C558.374 328.255 557.151 335.89 554.706 341.409C552.261 346.927 548.927 351.29 544.704 354.499C540.703 357.579 536.146 360.594 531.033 363.546L470.018 398.773L470.018 468.458C470.018 474.105 469.573 479.88 468.684 485.783C467.795 491.686 465.239 497.654 461.016 503.685C456.792 509.46 449.568 515.299 439.343 521.203Z" fill="#979AAD"/>
</g>
</g>
<defs>
<clipPath id="clip0_fm">
<rect width="700" height="700" fill="white"/>
</clipPath>
<clipPath id="clip1_fm">
<rect width="473.844" height="473.844" fill="white" transform="matrix(0.866025 -0.5 2.20305e-08 1 -0.590454 231.539)"/>
</clipPath>
<clipPath id="clip2_fm">
<rect width="473.844" height="473.844" fill="white" transform="matrix(0.866025 -0.5 2.20305e-08 1 289.639 231.539)"/>
</clipPath>
</defs>
</svg>
