<?xml version="1.0" encoding="UTF-8" standalone="no"?>
<svg
   width="312.8"
   height="76.001"
   viewBox="0 0 312.8 76.001"
   version="1.1"
   id="svg1"
   sodipodi:docname="miriad-logo-dark.svg"
   inkscape:version="1.3.2 (091e20e, 2023-11-25)"
   xmlns:inkscape="http://www.inkscape.org/namespaces/inkscape"
   xmlns:sodipodi="http://sodipodi.sourceforge.net/DTD/sodipodi-0.dtd"
   xmlns="http://www.w3.org/2000/svg"
   xmlns:svg="http://www.w3.org/2000/svg">
  <defs
     id="defs1" />
  <sodipodi:namedview
     id="namedview1"
     pagecolor="#ffffff"
     bordercolor="#000000"
     borderopacity="0.25"
     inkscape:showpageshadow="2"
     inkscape:pageopacity="0.0"
     inkscape:pagecheckerboard="0"
     inkscape:deskcolor="#d1d1d1"
     inkscape:zoom="3.0690538"
     inkscape:cx="156.39999"
     inkscape:cy="38.122499"
     inkscape:window-width="2560"
     inkscape:window-height="1387"
     inkscape:window-x="0"
     inkscape:window-y="25"
     inkscape:window-maximized="1"
     inkscape:current-layer="svg1" />
  <g
     id="svgGroup"
     stroke-linecap="round"
     fill-rule="evenodd"
     font-size="9pt"
     stroke="#00000000"
     stroke-width="0.25mm"
     fill="#979AAD"
     style="stroke:#00000000;stroke-width:0.25mm;fill:#979AAD;fill-opacity:1">
    <path
       d="M 0 29.2 L 0 27.4 L 24.1 27.4 L 24.1 36.6 Q 27.4 26.4 38.65 26.4 A 17.418 17.418 0 0 1 43.998 27.161 Q 50.537 29.266 52.3 37.2 Q 55.8 26.4 67 26.4 A 18.492 18.492 0 0 1 73.083 27.317 Q 81.345 30.191 81.685 42.064 A 36.189 36.189 0 0 1 81.7 43.1 L 81.7 73.2 L 87.3 73.2 L 87.3 75 L 59.6 75 L 59.6 73.2 L 63.1 73.2 L 63.1 40.7 Q 63.1 33.1 61.8 31.8 A 2.008 2.008 0 0 0 60.703 31.242 A 2.864 2.864 0 0 0 60.2 31.2 A 4.428 4.428 0 0 0 57.415 32.221 Q 56.174 33.196 55.1 35.1 A 15.836 15.836 0 0 0 53.521 39.218 Q 52.9 41.813 52.9 45 L 52.9 73.2 L 56.5 73.2 L 56.5 75 L 30.8 75 L 30.8 73.2 L 34.3 73.2 L 34.3 40.7 Q 34.3 33.1 33 31.8 A 2.008 2.008 0 0 0 31.903 31.242 A 2.864 2.864 0 0 0 31.4 31.2 A 3.957 3.957 0 0 0 28.995 32.058 Q 27.589 33.109 26.35 35.45 A 18.745 18.745 0 0 0 24.531 40.753 A 25.944 25.944 0 0 0 24.1 45.6 L 24.1 73.2 L 27.7 73.2 L 27.7 75 L 0 75 L 0 73.2 L 5.5 73.2 L 5.5 29.2 L 0 29.2 Z M 225.7 51.5 L 228.6 51.5 L 228.6 43.8 A 137.237 137.237 0 0 0 228.55 39.943 Q 228.388 34.226 227.708 31.597 A 9.643 9.643 0 0 0 227.55 31.05 A 6.172 6.172 0 0 0 226.855 29.554 Q 225.776 27.91 223.772 27.807 A 5.299 5.299 0 0 0 223.5 27.8 Q 221.7 27.8 220.25 28.75 A 3.444 3.444 0 0 0 219.37 29.556 Q 218.81 30.302 218.8 31.314 A 3.731 3.731 0 0 0 218.8 31.35 A 9.762 9.762 0 0 0 219.196 34.064 A 11.403 11.403 0 0 0 219.4 34.7 L 221.9 34.7 A 11.433 11.433 0 0 1 222.474 36.856 Q 222.7 38.183 222.7 39.75 A 6.314 6.314 0 0 1 220.858 44.225 A 8.924 8.924 0 0 1 220.2 44.85 Q 217.7 47 213.9 47 A 12.875 12.875 0 0 1 210.549 46.603 Q 206.18 45.422 205.448 40.732 A 13.184 13.184 0 0 1 205.3 38.7 A 10.175 10.175 0 0 1 211.462 28.969 Q 216.036 26.703 224.008 26.436 A 65.456 65.456 0 0 1 226.2 26.4 Q 238.1 26.4 242.65 30.45 A 11.161 11.161 0 0 1 245.423 34.437 Q 247.2 38.55 247.2 45.3 L 247.2 65.6 A 13.929 13.929 0 0 0 247.302 67.367 Q 247.541 69.223 248.339 70.075 A 2.302 2.302 0 0 0 250.1 70.8 A 2.382 2.382 0 0 0 252.064 69.644 Q 253.438 67.719 253.94 62.584 A 53.363 53.363 0 0 0 254.1 60.5 L 255.6 60.6 A 44.586 44.586 0 0 1 255.244 64.656 Q 254.696 68.626 253.433 71.024 A 8.588 8.588 0 0 1 252.3 72.7 A 8.694 8.694 0 0 1 248.768 75.069 Q 246.306 76 242.8 76 A 29.34 29.34 0 0 1 238.076 75.652 Q 235.71 75.264 233.94 74.444 A 8.405 8.405 0 0 1 229 68.6 A 14.085 14.085 0 0 1 227.842 71.169 Q 226.934 72.718 225.692 73.751 A 8.449 8.449 0 0 1 225.1 74.2 A 8.699 8.699 0 0 1 222.73 75.323 Q 220.566 76 217.5 76 Q 204.231 76 202.858 66.274 A 16.994 16.994 0 0 1 202.7 63.9 A 13.741 13.741 0 0 1 203.185 60.122 A 9.127 9.127 0 0 1 208.35 54.15 A 21.731 21.731 0 0 1 212.443 52.76 Q 216.696 51.728 222.879 51.541 A 93.659 93.659 0 0 1 225.7 51.5 Z M 312.8 75 L 290.6 75 L 289.5 68 Q 286.1 76 275.7 76 A 19.043 19.043 0 0 1 269.798 75.13 A 15.077 15.077 0 0 1 262.35 69.8 A 19.924 19.924 0 0 1 259.319 63.891 Q 258.406 61.133 257.978 57.752 A 51.5 51.5 0 0 1 257.6 51.3 Q 257.6 28.556 274.12 26.587 A 27.721 27.721 0 0 1 277.4 26.4 A 24.402 24.402 0 0 1 281.425 26.706 Q 286.9 27.625 289 31.3 L 289 1.8 L 282.9 1.8 L 282.9 0 L 307.9 0 L 307.9 73.2 L 312.8 73.2 L 312.8 75 Z M 144.6 46.4 L 144.6 73.2 L 151.7 73.2 L 151.7 75 L 120.5 75 L 120.5 73.2 L 126 73.2 L 126 29.2 L 120.5 29.2 L 120.5 27.4 L 144.6 27.4 L 144.6 37 A 15.784 15.784 0 0 1 146.197 32.987 A 12.523 12.523 0 0 1 149.6 29.15 Q 153.3 26.4 158 26.4 A 13.615 13.615 0 0 1 161.405 26.804 A 9.971 9.971 0 0 1 165.65 29.05 A 8.62 8.62 0 0 1 168.312 33.734 A 13.017 13.017 0 0 1 168.6 36.55 Q 168.6 39.837 167.589 42.091 A 8.008 8.008 0 0 1 166.4 44 Q 164.432 46.326 160.584 46.571 A 14.681 14.681 0 0 1 159.65 46.6 A 10.889 10.889 0 0 1 157.041 46.307 A 6.877 6.877 0 0 1 152.95 43.6 Q 150.8 40.6 152.4 35.3 L 156 35.3 A 12.849 12.849 0 0 0 156.406 34.391 Q 157.924 30.566 154.584 30.232 A 6.888 6.888 0 0 0 153.9 30.2 A 5.806 5.806 0 0 0 150.248 31.535 Q 148.723 32.731 147.4 35 A 20.236 20.236 0 0 0 144.962 41.889 A 27.053 27.053 0 0 0 144.6 46.4 Z M 88.4 29.2 L 88.4 27.4 L 112.9 27.4 L 112.9 73.2 L 118.5 73.2 L 118.5 75 L 88.8 75 L 88.8 73.2 L 94.3 73.2 L 94.3 29.2 L 88.4 29.2 Z M 169.6 29.2 L 169.6 27.4 L 194.1 27.4 L 194.1 73.2 L 199.7 73.2 L 199.7 75 L 170 75 L 170 73.2 L 175.5 73.2 L 175.5 29.2 L 169.6 29.2 Z M 289.3 61.4 L 289.3 39.6 A 18.206 18.206 0 0 0 289.019 36.321 Q 288.609 34.081 287.6 32.3 A 6.481 6.481 0 0 0 286.225 30.577 Q 284.753 29.3 282.6 29.3 Q 279.641 29.3 278.37 32.839 A 11.52 11.52 0 0 0 278.1 33.7 Q 276.9 38.1 276.9 49.1 L 276.9 54.3 A 159.25 159.25 0 0 0 276.953 58.556 Q 277.116 64.621 277.783 67.455 A 10.714 10.714 0 0 0 278 68.25 Q 279.1 71.7 282.05 71.7 A 6.129 6.129 0 0 0 286.316 69.984 A 8.882 8.882 0 0 0 287.15 69.1 A 8.273 8.273 0 0 0 288.581 66.461 Q 288.986 65.273 289.162 63.82 A 20.064 20.064 0 0 0 289.3 61.4 Z M 100.795 20.292 A 16.358 16.358 0 0 0 103.5 20.5 Q 106.316 20.5 108.341 19.766 A 7.636 7.636 0 0 0 111.3 17.9 A 8.628 8.628 0 0 0 113.452 13.952 A 12.255 12.255 0 0 0 113.8 10.95 A 11.694 11.694 0 0 0 113.513 8.282 A 7.627 7.627 0 0 0 111.2 4.25 A 7.842 7.842 0 0 0 109.275 2.979 Q 106.989 1.9 103.6 1.9 A 17.084 17.084 0 0 0 102.11 1.963 Q 98.22 2.303 96.15 4.5 A 8.665 8.665 0 0 0 94.152 7.921 A 10.697 10.697 0 0 0 93.7 11.1 A 12.847 12.847 0 0 0 93.808 12.788 A 9.629 9.629 0 0 0 95.95 17.8 A 6.528 6.528 0 0 0 98.283 19.549 Q 99.387 20.056 100.795 20.292 Z M 181.995 20.292 A 16.358 16.358 0 0 0 184.7 20.5 Q 187.516 20.5 189.541 19.766 A 7.636 7.636 0 0 0 192.5 17.9 A 8.628 8.628 0 0 0 194.652 13.952 A 12.255 12.255 0 0 0 195 10.95 A 11.694 11.694 0 0 0 194.713 8.282 A 7.627 7.627 0 0 0 192.4 4.25 A 7.842 7.842 0 0 0 190.475 2.979 Q 188.189 1.9 184.8 1.9 A 17.084 17.084 0 0 0 183.31 1.963 Q 179.42 2.303 177.35 4.5 A 8.665 8.665 0 0 0 175.352 7.921 A 10.697 10.697 0 0 0 174.9 11.1 A 12.847 12.847 0 0 0 175.008 12.788 A 9.629 9.629 0 0 0 177.15 17.8 A 6.528 6.528 0 0 0 179.483 19.549 Q 180.587 20.056 181.995 20.292 Z M 228.6 62.4 L 228.6 53.1 L 227.9 53.1 A 5.827 5.827 0 0 0 224.748 53.913 Q 221.7 55.819 221.7 62.2 L 221.7 63.8 Q 221.7 69 222.25 70.5 A 2.667 2.667 0 0 0 222.665 71.258 Q 223.26 72 224.35 72 Q 225.9 72 227.25 69.45 Q 228.6 66.9 228.6 62.4 Z"
       vector-effect="non-scaling-stroke"
       id="path1"
       style="fill:#979AAD;fill-opacity:1" />
  </g>
</svg>
