<svg xmlns="http://www.w3.org/2000/svg" width="188" height="48" fill="none"><path fill="#979AAD" d="M48.54 33.467h-3.71V20.789c2.842-.479 5.683-.834 8.568-.546.241.01.479.066.699.166.949.517 1.89.313 2.876.107 1.895-.398 3.82-.583 5.74-.182 2.281.477 3.577 1.943 3.638 4.27.075 2.889.028 5.781.03 8.672a.859.859 0 0 1-.05.187h-3.724v-.6c0-2.17.008-4.337-.008-6.505 0-.425-.057-.848-.169-1.258-.226-.804-.799-1.27-1.612-1.434-1.15-.23-2.278-.024-3.4.15v9.633H53.69v-7.166c-.002-1.826-.87-2.71-2.689-2.712-.647 0-1.295.081-1.943.083-.417.002-.527.164-.525.566.015 2.854.008 5.708.008 8.562v.685ZM94.216 14.357v5.955c-1.374-.055-2.67-.2-3.958-.136-2.968.149-4.99 1.655-5.712 4.122a9.277 9.277 0 0 0-.04 5.153c.713 2.584 2.92 4.359 5.596 4.329 2.609-.03 5.216-.212 7.87-.329V14.357h-3.756Zm.013 15.986a1.1 1.1 0 0 1-.08.24c-1.06.055-2.15.199-3.23.148-1.636-.08-2.637-.996-2.935-2.61a6.928 6.928 0 0 1-.077-2.04c.196-1.66 1.164-2.632 2.837-2.746 1.043-.07 2.102.09 3.15.181.124.01.328.246.33.378.018 2.15.01 4.3.004 6.449ZM73.493 20.247c-1.914.232-3.406 1.223-4.322 2.956-.852 1.612-1.033 3.343-.796 5.133.72 5.441 6.13 6.776 9.55 4.59.13-.083.269-.151.436-.244l.07.789h3.722V20.738c-2.9-.258-5.759-.843-8.66-.491Zm4.89 8.985a.537.537 0 0 1-.174.375c-1.028.8-2.174 1.283-3.5 1.116-1.243-.155-2.058-.896-2.46-2.053a5.23 5.23 0 0 1 .043-3.54c.35-.991 1.089-1.658 2.11-1.748 1.298-.115 2.613-.028 3.989-.028 0 2.068.003 3.972-.008 5.878ZM40.871 22.124c-2.366-2.651-6.947-2.547-9.349-1.29-3.806 1.993-4.146 6.533-2.81 9.31 1.352 2.813 3.807 3.836 6.796 3.856.347-.027.7-.039 1.049-.084 2.664-.337 4.678-1.649 5.597-4.201.975-2.712.732-5.334-1.283-7.59Zm-5.476 8.49c-2.118.015-3.602-1.495-3.605-3.669-.004-2.136 1.468-3.611 3.595-3.605 2.117.007 3.528 1.445 3.527 3.594 0 2.188-1.41 3.665-3.517 3.68ZM26.097 33.465h-3.752v-.598c0-2.17.003-4.338-.002-6.507-.004-1.858-.967-2.82-2.827-2.788-.905.016-1.809.1-2.772.158v9.732H13V20.743c1.09-.13 2.17-.316 3.257-.373 1.83-.096 3.673-.253 5.492-.123 2.538.18 4.304 2.096 4.377 4.637.08 2.778.018 5.56.016 8.34a1.448 1.448 0 0 1-.045.24ZM162.118 24.375c-.55-1.645-1.619-2.842-3.267-3.397a8.74 8.74 0 0 0-2.657-.478c-1.395-.012-2.793.161-4.255.262v-6.416h-2.402a.955.955 0 0 0-.041.175l-.014 18.4c-.001.314.125.418.421.437 2.272.148 4.543.403 6.817.433 2.639.035 4.772-1.686 5.489-4.219a8.67 8.67 0 0 0-.091-5.197Zm-2.349 4.747c-.562 1.62-1.742 2.549-3.441 2.609-1.435.05-2.877-.103-4.381-.17v-1.608c0-2.148-.007-4.295.013-6.443.002-.18.162-.483.301-.519 1.37-.347 2.769-.56 4.179-.37 2.179.29 3.242 1.397 3.586 3.597a5.958 5.958 0 0 1-.257 2.904ZM145.558 21.053c-2.286-.196-4.57-.521-6.858-.549-3.005-.036-5.066 1.708-5.778 4.63-.399 1.637-.349 3.277.237 4.867.636 1.725 1.793 2.97 3.565 3.563 1.809.606 3.579.421 5.295-.375.411-.19.808-.412 1.245-.636l.052.911h2.42V21.13a.695.695 0 0 0-.178-.076Zm-2.281 9.006a.566.566 0 0 1-.219.4c-1.248.868-2.611 1.407-4.16 1.305-1.704-.112-3.041-1.21-3.515-2.856a6.196 6.196 0 0 1 .018-3.563c.431-1.428 1.376-2.363 2.858-2.654 1.665-.327 3.316.003 5.028.166 0 2.461.004 4.831-.01 7.202ZM118.198 30.119l.477 2.973c-2.164.711-4.344 1.079-6.607.621-1.439-.29-2.707-.926-3.68-2.035-1.883-2.145-2.133-4.661-1.293-7.248.836-2.577 2.859-3.885 5.461-4.3 2.066-.328 4.093-.05 6.12.605l-.508 2.952c-.795-.14-1.534-.29-2.279-.4-.995-.146-1.997-.215-2.973.114-1.821.613-2.75 2.244-2.452 4.27.255 1.725 1.736 3.024 3.612 2.976 1.249-.031 2.493-.293 3.74-.454.106-.014.211-.04.382-.074ZM175.034 21.394l-.586 1.887c-1.098-.23-2.136-.533-3.194-.645a11.057 11.057 0 0 0-2.755.075c-.801.119-1.22.717-1.252 1.428-.03.637.331 1.162 1.126 1.406 1.008.309 2.046.514 3.066.787.625.167 1.249.35 1.857.57 2.119.764 2.374 2.453 1.963 4.076-.335 1.323-1.283 2.088-2.527 2.515-1.776.608-3.586.516-5.382.138-1.005-.212-1.984-.549-3.013-.84l.555-2.108c.798.254 1.537.575 2.31.715 1.123.204 2.268.29 3.407.397.279.006.556-.03.824-.107.994-.218 1.639-.824 1.668-1.547.027-.648-.545-1.25-1.551-1.519-1.163-.31-2.345-.547-3.512-.84a8.49 8.49 0 0 1-1.259-.436c-1.12-.478-1.867-1.273-1.974-2.533-.115-1.344.279-2.499 1.404-3.318.915-.666 1.971-.908 3.086-.968 1.953-.12 3.909.176 5.739.867ZM104.73 33.469h-3.705V20.585h3.705V33.47ZM129.779 33.469h-2.415v-19.11h2.415v19.11ZM102.863 18.781c-1.382.005-2.422-1.006-2.422-2.356 0-1.368 1.016-2.407 2.371-2.424a2.397 2.397 0 0 1 2.46 2.402c.015 1.329-1.043 2.373-2.409 2.378Z"/></svg>