<svg xmlns="http://www.w3.org/2000/svg" width="80" height="20" fill="none" viewBox="0 0 118 20"><g fill="#979AAD" fill-rule="evenodd" clip-path="url(#a)" clip-rule="evenodd"><path d="M49.778 9.855a7.59 7.59 0 0 0 2.099-.276 5.235 5.235 0 0 0 1.661-.787 3.69 3.69 0 0 0 1.093-1.242c.262-.487.394-1.044.394-1.67v-.055c0-1.196-.457-2.13-1.37-2.802-.914-.671-2.196-1.007-3.848-1.007h-6.295v7.839h6.266ZM41.207 0h8.757c1.261 0 2.381.17 3.361.51.98.342 1.789.815 2.43 1.423.503.479.891 1.04 1.163 1.684.271.644.407 1.352.407 2.126v.055c0 .81-.136 1.532-.407 2.167a4.933 4.933 0 0 1-1.15 1.656 6.23 6.23 0 0 1-1.76 1.16 8.85 8.85 0 0 1-2.21.649l6.266 7.896h-2.827l-5.911-7.51H43.51v7.51h-2.303V0ZM68.133 2.015h-6.948V0h16.232v2.015H70.47v17.31h-2.336V2.016ZM81.79 0h14.838v1.988H84.107v6.598h11.201v1.988H84.107v6.764h12.667v1.988H81.79V0ZM109.716 9.855c.757 0 1.457-.092 2.098-.276a5.235 5.235 0 0 0 1.662-.787c.466-.34.83-.754 1.093-1.242.262-.487.393-1.044.393-1.67v-.055c0-1.196-.457-2.13-1.37-2.802-.914-.671-2.196-1.007-3.847-1.007h-6.296v7.839h6.267ZM101.145 0h8.757c1.26 0 2.381.17 3.361.51.979.342 1.789.815 2.429 1.423.504.479.892 1.04 1.163 1.684.272.644.408 1.352.408 2.126v.055c0 .81-.136 1.532-.408 2.167a4.93 4.93 0 0 1-1.148 1.656 6.23 6.23 0 0 1-1.761 1.16 8.85 8.85 0 0 1-2.211.649l6.267 7.896h-2.827l-5.912-7.51h-5.816v7.51h-2.302V0ZM7.52 10.52c.855 0 1.636-.102 2.343-.304.706-.203 1.313-.493 1.82-.87a3.926 3.926 0 0 0 1.164-1.34 3.708 3.708 0 0 0 .403-1.739v-.055c0-1.38-.513-2.425-1.537-3.133C10.688 2.37 9.33 2.016 7.64 2.016H2.357v8.503H7.52ZM0 0h7.804c1.172 0 2.24.143 3.203.428.963.285 1.787.69 2.472 1.215a5.33 5.33 0 0 1 1.578 1.918c.368.755.551 1.611.551 2.568v.055c0 1.05-.218 1.965-.655 2.747a6.013 6.013 0 0 1-1.771 1.974c-.745.534-1.614.935-2.606 1.201-.993.267-2.044.4-3.156.4H2.358v6.82H0V0ZM32.833 12.75c-2.605 2.464-6.846 2.464-9.488 0-2.604-2.463-2.604-6.474 0-8.973 2.605-2.498 6.846-2.463 9.488 0 2.642 2.463 2.642 6.475 0 8.973ZM21.917 2.42c-3.417 3.229-3.417 8.448 0 11.653l6.178 5.838 6.179-5.838c3.416-3.227 3.416-8.447 0-11.652-3.417-3.228-8.941-3.228-12.357 0Z"/><path d="M31.33 6.441h-1.95v4.099h.86c.022-.463.448-.832.97-.832.52 0 .947.37.97.832h.909V8.627c-.115-.341-1.032-.751-1.032-.751L31.33 6.44Zm-.265.376h-.994v.92h1.452l-.459-.92ZM29.342 5.27h-5.62v5.855h.667a.957.957 0 0 1 .95-.92c.511 0 .928.408.95.92h3.053V5.27Zm-.75 3.74h-4.12v.113h4.12V9.01Zm0-2.267h-4.12v.113h4.12v-.113Zm0 1.172h-4.12v.113h4.12v-.113Z"/><path d="M33.406 10.226c0 .18-.068.315-.159.315-.09 0-.16-.135-.16-.315v-.54c0-.18.07-.315.16-.315.091 0 .16.135.16.315v.54ZM23.418 10.812c0 .18-.068.315-.16.315-.09 0-.158-.135-.158-.315v-.54c0-.18.068-.315.159-.315.09 0 .159.135.159.315v.54ZM31.838 10.542c0 .323-.28.585-.624.585-.345 0-.624-.262-.624-.585 0-.323.28-.585.624-.585.345 0 .625.262.625.585ZM25.95 11.085c0 .323-.279.585-.624.585-.344 0-.624-.262-.624-.585 0-.323.28-.585.624-.585.345 0 .625.262.625.585Z"/></g><defs><clipPath id="a"><path fill="#fff" d="M0 0h118v20H0z"/></clipPath></defs></svg>