<svg xmlns="http://www.w3.org/2000/svg" width="176" height="48" fill="none"><path fill="#979AAD" d="M50.246 17.414h2.219v1.248a5.349 5.349 0 0 1 1.828-1.159 5.441 5.441 0 0 1 2.148-.347c3.868 0 5.99 3.04 5.99 6.473 0 3.474-2.108 6.472-6.045 6.472a5.201 5.201 0 0 1-2.127-.331 5.11 5.11 0 0 1-1.796-1.161V35h-3.518V18.69a1.25 1.25 0 0 1 .381-.9 1.304 1.304 0 0 1 .92-.374v-.002Zm8.762 6.215c0-2.062-1.053-3.68-3.398-3.68-2.357 0-3.438 1.574-3.438 3.68s1.095 3.718 3.438 3.718 3.398-1.655 3.398-3.718Zm5.38 1.248V18.69c0-.338.136-.662.38-.9.245-.24.576-.374.92-.374h2.066v7.081c0 1.628.93 2.796 2.676 2.796 1.913 0 3.147-.92 3.147-3.081v-5.52c0-.338.137-.662.381-.9.244-.24.575-.374.92-.374h2.08v12.426h-3.38v-1.452a5.536 5.536 0 0 1-1.881 1.283 5.637 5.637 0 0 1-2.25.426c-3.66 0-5.061-2.618-5.061-5.221l.001-.003Zm16.647-7.463h2.219v1.248a5.35 5.35 0 0 1 1.828-1.159 5.442 5.442 0 0 1 2.148-.347c3.868 0 5.99 3.04 5.99 6.473 0 3.474-2.108 6.472-6.045 6.472a5.201 5.201 0 0 1-2.126-.331 5.11 5.11 0 0 1-1.797-1.161V35H79.73V18.69c0-.338.137-.662.38-.9.245-.24.576-.374.92-.374l.004-.002Zm8.76 6.215c0-2.062-1.053-3.68-3.398-3.68-2.344 0-3.438 1.574-3.438 3.68s1.096 3.718 3.438 3.718c2.343 0 3.383-1.655 3.399-3.718Zm7.159-11.358h.97c.345 0 .676.134.92.373s.381.563.381.9v.245c0 .338-.137.662-.381.9a1.316 1.316 0 0 1-.92.374h-.97c-.346 0-.677-.134-.92-.373a1.26 1.26 0 0 1-.382-.901v-.244c0-.338.137-.662.381-.9.244-.24.575-.374.92-.374Zm.083 5.143h2.106v12.43h-3.426V18.69a1.28 1.28 0 0 1 .392-.902c.246-.238.578-.373.925-.374h.003Zm5.184 9.96v-13.84c0-.338.137-.662.382-.901.244-.24.575-.373.92-.373h2.107v14.272c0 .584.429.828 1.123.828.31-.002.621-.026.929-.07v2.547c-.842.15-1.696.231-2.551.244-1.609.02-2.926-.522-2.913-2.707h.003Zm8.582-7.422h-2.57V18.69c.001-.335.137-.657.378-.895s.568-.374.911-.379h1.275v-1.67c0-2.416 2.107-3.746 4.464-3.746a6.775 6.775 0 0 1 2.537.516l-1.106 2.497a2.375 2.375 0 0 0-1.096-.312 1.242 1.242 0 0 0-.965.383 1.177 1.177 0 0 0-.31.973v1.357h3.258v2.538h-3.258v9.892H110.8v-9.892h.003Zm10.516-7.694h.97c.346 0 .677.134.921.373s.381.563.381.9v.245a1.258 1.258 0 0 1-.381.9 1.307 1.307 0 0 1-.921.373h-.984a1.33 1.33 0 0 1-.92-.373 1.263 1.263 0 0 1-.381-.9v-.245a1.255 1.255 0 0 1 .386-.905 1.323 1.323 0 0 1 .929-.368Zm.083 5.156h2.107v12.43h-3.41V18.69c0-.338.137-.662.381-.9.244-.24.575-.374.92-.374l.002-.002Zm6.599 0h2.025V19.5a3.914 3.914 0 0 1 1.505-1.733 4.04 4.04 0 0 1 2.238-.614 3.857 3.857 0 0 1 2.564.895l-1.552 2.484a2.991 2.991 0 0 0-1.525-.42c-1.594 0-3.258 1.316-3.258 4.477v5.25h-3.313V18.69a1.257 1.257 0 0 1 .386-.907 1.308 1.308 0 0 1 .931-.367l-.001-.002Zm8.762 8.901 1.94-.76c.202.611.603 1.14 1.141 1.508a3.055 3.055 0 0 0 1.84.527c1.58 0 2.259-.828 2.259-1.479 0-2.09-7.013-.678-7.013-5.075 0-2.632 2.495-3.867 5.185-3.867a6.198 6.198 0 0 1 2.564.45c.811.33 1.539.829 2.135 1.46a.76.76 0 0 1-.055 1.086 1.986 1.986 0 0 1-.181.123l-1.802.882a3 3 0 0 0-1.157-1.175 3.089 3.089 0 0 0-1.616-.4c-1.123 0-1.802.489-1.802 1.073 0 1.872 7.111.76 7.111 5.319 0 2.877-2.814 4.138-5.462 4.138a6.38 6.38 0 0 1-3.089-.648 6.228 6.228 0 0 1-2.373-2.04.76.76 0 0 1-.097-.581.781.781 0 0 1 .346-.481.611.611 0 0 1 .129-.06h-.003Zm14.321.095v-6.445h-2.246v-1.262c0-.338.137-.662.381-.9.244-.24.575-.374.92-.374h1.013v-2.416c-.001-.212.051-.421.153-.608.101-.187.249-.347.429-.464l2.772-1.792v5.266H158v2.537h-3.494v5.93c0 1.194.651 1.547 1.553 1.547a5.321 5.321 0 0 0 1.94-.448v2.754a8.925 8.925 0 0 1-2.551.38c-2.726-.014-4.361-1.438-4.361-3.704l-.003-.001ZM30.546 20.644c.675 0 1.335.196 1.896.563.56.367.998.89 1.256 1.5s.324 1.283.192 1.93a3.317 3.317 0 0 1-.937 1.71 3.434 3.434 0 0 1-1.75.91 3.478 3.478 0 0 1-1.97-.194 3.396 3.396 0 0 1-1.529-1.235 3.288 3.288 0 0 1 .434-4.212 3.445 3.445 0 0 1 2.408-.972Zm11.589.624c-2.386-2.958-6.682-7.246-11.59-7.246-4.906 0-9.22 4.288-11.589 7.232A4.322 4.322 0 0 0 18 23.962c0 .982.337 1.935.956 2.707a26.403 26.403 0 0 0 4.772 4.671v-7.385a6.587 6.587 0 0 1 1.402-4.07 6.832 6.832 0 0 1 3.644-2.395 6.962 6.962 0 0 1 4.38.274 6.78 6.78 0 0 1 3.304 2.829 6.56 6.56 0 0 1 .86 4.212 6.626 6.626 0 0 1-1.938 3.855 6.88 6.88 0 0 1-3.936 1.9 6.947 6.947 0 0 1-4.305-.838v3.515a9.703 9.703 0 0 0 3.41.665c4.908 0 9.206-4.288 11.59-7.233.62-.77.956-1.72.956-2.7 0-.98-.337-1.93-.956-2.7h-.004Z"/></svg>