<svg xmlns="http://www.w3.org/2000/svg" width="5891" height="1055" fill="none"><path fill="#979AAD" d="M1225.77 845.812c-31.25 0-59.51-5.078-84.77-15.234-25-10.417-46.35-24.87-64.06-43.359-17.45-18.49-30.86-40.235-40.24-65.235-9.37-25-14.06-51.953-14.06-80.859V625.5c0-33.073 4.82-63.021 14.45-89.844 9.64-26.823 23.05-49.739 40.24-68.75 17.19-19.271 37.5-33.984 60.94-44.14 23.43-10.157 48.82-15.235 76.17-15.235 30.21 0 56.64 5.078 79.29 15.235 22.66 10.156 41.41 24.479 56.25 42.968 15.11 18.23 26.31 39.974 33.6 65.235 7.55 25.26 11.33 53.125 11.33 83.593v40.235h-326.57v-67.578h233.6v-7.422c-.52-16.927-3.91-32.813-10.16-47.656-5.99-14.844-15.23-26.823-27.73-35.938-12.5-9.114-29.17-13.672-50-13.672-15.63 0-29.56 3.386-41.8 10.157-11.98 6.51-22.01 16.015-30.08 28.515-8.07 12.5-14.32 27.604-18.75 45.313-4.16 17.448-6.25 37.109-6.25 58.984v15.625c0 18.49 2.48 35.677 7.42 51.563 5.21 15.624 12.76 29.296 22.66 41.015 9.9 11.719 21.87 20.964 35.94 27.735 14.06 6.51 30.08 9.765 48.04 9.765 22.66 0 42.84-4.557 60.55-13.672 17.71-9.114 33.07-22.005 46.1-38.672l49.6 48.047c-9.11 13.282-20.96 26.042-35.54 38.282-14.59 11.979-32.42 21.744-53.52 29.296-20.83 7.552-45.05 11.328-72.65 11.328Zm479.68-122.265c0-9.375-2.34-17.839-7.03-25.391-4.69-7.812-13.67-14.844-26.95-21.094-13.02-6.25-32.29-11.979-57.81-17.187-22.4-4.948-42.97-10.807-61.72-17.578-18.49-7.031-34.38-15.495-47.66-25.391-13.28-9.896-23.57-21.614-30.86-35.156-7.29-13.542-10.94-29.167-10.94-46.875 0-17.187 3.78-33.464 11.33-48.828 7.55-15.365 18.36-28.906 32.42-40.625 14.07-11.719 31.12-20.964 51.18-27.734 20.31-6.771 42.97-10.157 67.97-10.157 35.41 0 65.75 5.99 91.01 17.969 25.52 11.719 45.05 27.734 58.59 48.047 13.55 20.052 20.32 42.708 20.32 67.969h-94.14c0-11.198-2.87-21.615-8.6-31.25-5.47-9.896-13.8-17.839-25-23.828-11.2-6.25-25.26-9.376-42.18-9.376-16.15 0-29.56 2.605-40.24 7.813-10.42 4.948-18.23 11.458-23.44 19.531-4.94 8.073-7.42 16.927-7.42 26.563 0 7.031 1.3 13.411 3.91 19.14 2.86 5.469 7.55 10.547 14.06 15.235 6.51 4.427 15.36 8.594 26.56 12.5 11.46 3.906 25.78 7.682 42.97 11.328 32.29 6.771 60.03 15.495 83.2 26.172 23.44 10.416 41.41 23.958 53.91 40.625 12.5 16.406 18.75 37.239 18.75 62.5 0 18.75-4.04 35.937-12.11 51.562-7.81 15.365-19.27 28.776-34.37 40.235-15.11 11.198-33.21 19.922-54.3 26.172-20.83 6.25-44.27 9.374-70.31 9.374-38.28 0-70.71-6.77-97.27-20.312-26.56-13.802-46.74-31.38-60.55-52.734-13.54-21.615-20.31-44.011-20.31-67.188h91.02c1.04 17.448 5.86 31.38 14.45 41.797 8.85 10.156 19.79 17.578 32.81 22.266 13.28 4.427 26.96 6.64 41.02 6.64 16.93 0 31.12-2.213 42.58-6.64 11.46-4.688 20.18-10.938 26.17-18.75 5.99-8.073 8.98-17.188 8.98-27.344Zm268.75-222.266V838h-94.14V415.344h88.67l5.47 85.937Zm-15.23 109.766-32.03-.391c0-29.166 3.64-56.12 10.94-80.859 7.29-24.74 17.96-46.224 32.03-64.453 14.06-18.49 31.51-32.683 52.34-42.578 21.09-10.157 45.44-15.235 73.05-15.235 19.27 0 36.85 2.865 52.73 8.594 16.15 5.469 30.08 14.193 41.8 26.172 11.98 11.979 21.09 27.344 27.34 46.094 6.51 18.75 9.77 41.406 9.77 67.968V838h-94.14V564.562c0-20.572-3.13-36.718-9.38-48.437-5.99-11.719-14.71-20.052-26.17-25-11.2-5.208-24.61-7.813-40.23-7.813-17.71 0-32.82 3.386-45.32 10.157-12.24 6.771-22.26 16.015-30.08 27.734-7.81 11.719-13.54 25.261-17.18 40.625-3.65 15.365-5.47 31.771-5.47 49.219Zm262.11-25-44.14 9.765c0-25.52 3.51-49.609 10.54-72.265 7.3-22.917 17.84-42.969 31.64-60.156 14.07-17.448 31.39-31.12 51.96-41.016 20.57-9.896 44.14-14.844 70.7-14.844 21.62 0 40.89 2.995 57.81 8.985 17.19 5.729 31.77 14.843 43.75 27.343s21.1 28.776 27.35 48.829c6.25 19.791 9.37 43.75 9.37 71.874V838h-94.53V564.172c0-21.354-3.12-37.891-9.37-49.61-5.99-11.718-14.59-19.791-25.78-24.218-11.2-4.688-24.61-7.032-40.24-7.032-14.58 0-27.47 2.735-38.67 8.204-10.94 5.208-20.18 12.63-27.74 22.265-7.55 9.375-13.28 20.183-17.18 32.422-3.65 12.24-5.47 25.521-5.47 39.844Zm610.15 152.344V415.344h94.54V838h-89.07l-5.47-99.609Zm13.29-87.891 31.64-.781c0 28.385-3.13 54.557-9.38 78.515-6.25 23.698-15.88 44.401-28.9 62.11-13.03 17.448-29.69 31.12-50 41.015-20.32 9.636-44.67 14.453-73.05 14.453-20.57 0-39.45-2.994-56.64-8.984-17.19-5.989-32.03-15.234-44.53-27.734-12.24-12.5-21.75-28.776-28.52-48.828-6.77-20.052-10.16-44.011-10.16-71.875V415.344h94.14v273.828c0 15.364 1.83 28.255 5.47 38.672 3.65 10.156 8.6 18.359 14.85 24.609s13.54 10.677 21.87 13.281c8.34 2.605 17.19 3.907 26.57 3.907 26.82 0 47.91-5.209 63.28-15.625 15.62-10.677 26.69-25 33.2-42.969 6.77-17.969 10.16-38.151 10.16-60.547Zm271.87-149.219V838h-94.14V415.344h88.67l5.47 85.937Zm-15.23 109.766-32.04-.391c0-29.166 3.65-56.12 10.94-80.859 7.29-24.74 17.97-46.224 32.03-64.453 14.07-18.49 31.51-32.683 52.35-42.578 21.09-10.157 45.44-15.235 73.04-15.235 19.28 0 36.85 2.865 52.74 8.594 16.14 5.469 30.08 14.193 41.8 26.172 11.97 11.979 21.09 27.344 27.34 46.094 6.51 18.75 9.76 41.406 9.76 67.968V838h-94.14V564.562c0-20.572-3.12-36.718-9.37-48.437-5.99-11.719-14.71-20.052-26.17-25-11.2-5.208-24.61-7.813-40.24-7.813-17.71 0-32.81 3.386-45.31 10.157-12.24 6.771-22.27 16.015-30.08 27.734-7.81 11.719-13.54 25.261-17.19 40.625-3.64 15.365-5.46 31.771-5.46 49.219Zm262.11-25-44.15 9.765c0-25.52 3.52-49.609 10.55-72.265 7.29-22.917 17.84-42.969 31.64-60.156 14.07-17.448 31.38-31.12 51.96-41.016 20.57-9.896 44.14-14.844 70.7-14.844 21.61 0 40.88 2.995 57.81 8.985 17.19 5.729 31.77 14.843 43.75 27.343s21.09 28.776 27.35 48.829c6.24 19.791 9.37 43.75 9.37 71.874V838h-94.53V564.172c0-21.354-3.13-37.891-9.38-49.61-5.99-11.718-14.58-19.791-25.78-24.218-11.2-4.688-24.61-7.032-40.23-7.032-14.59 0-27.48 2.735-38.67 8.204-10.94 5.208-20.19 12.63-27.74 22.265-7.55 9.375-13.28 20.183-17.19 32.422-3.64 12.24-5.46 25.521-5.46 39.844Zm542.18 259.765c-31.25 0-59.5-5.078-84.76-15.234-25-10.417-46.36-24.87-64.07-43.359-17.44-18.49-30.85-40.235-40.23-65.235-9.37-25-14.06-51.953-14.06-80.859V625.5c0-33.073 4.82-63.021 14.45-89.844 9.64-26.823 23.05-49.739 40.24-68.75 17.18-19.271 37.5-33.984 60.93-44.14 23.44-10.157 48.83-15.235 76.17-15.235 30.21 0 56.65 5.078 79.3 15.235 22.66 10.156 41.41 24.479 56.25 42.968 15.11 18.23 26.3 39.974 33.6 65.235 7.55 25.26 11.32 53.125 11.32 83.593v40.235h-326.56v-67.578h233.59v-7.422c-.52-16.927-3.9-32.813-10.15-47.656-5.99-14.844-15.24-26.823-27.74-35.938-12.5-9.114-29.16-13.672-50-13.672-15.62 0-29.55 3.386-41.79 10.157-11.98 6.51-22.01 16.015-30.08 28.515-8.07 12.5-14.32 27.604-18.75 45.313-4.17 17.448-6.25 37.109-6.25 58.984v15.625c0 18.49 2.47 35.677 7.42 51.563 5.21 15.624 12.76 29.296 22.66 41.015 9.89 11.719 21.87 20.964 35.94 27.735 14.06 6.51 30.07 9.765 48.04 9.765 22.66 0 42.84-4.557 60.55-13.672 17.71-9.114 33.07-22.005 46.09-38.672l49.61 48.047c-9.11 13.282-20.96 26.042-35.55 38.282-14.58 11.979-32.42 21.744-53.51 29.296-20.83 7.552-45.05 11.328-72.66 11.328Zm246.49-54.687c0-14.583 4.95-26.823 14.84-36.719 9.9-10.156 23.31-15.234 40.24-15.234 17.18 0 30.59 5.078 40.23 15.234 9.9 9.896 14.84 22.136 14.84 36.719 0 14.583-4.94 26.823-14.84 36.719-9.64 9.896-23.05 14.844-40.23 14.844-16.93 0-30.34-4.948-40.24-14.844-9.89-9.896-14.84-22.136-14.84-36.719Zm391.4-20.313c15.37 0 29.17-2.994 41.41-8.984 12.5-6.25 22.53-14.844 30.08-25.781 7.81-10.938 12.11-23.568 12.89-37.891h88.67c-.52 27.344-8.59 52.214-24.22 74.61-15.62 22.395-36.33 40.234-62.11 53.515-25.78 13.021-54.29 19.531-85.54 19.531-32.3 0-60.42-5.468-84.38-16.406-23.96-11.198-43.88-26.562-59.76-46.094-15.89-19.531-27.87-42.057-35.94-67.578-7.82-25.52-11.72-52.864-11.72-82.031v-13.672c0-29.166 3.9-56.51 11.72-82.031 8.07-25.781 20.05-48.438 35.94-67.969 15.88-19.531 35.8-34.765 59.76-45.703 23.96-11.198 51.95-16.797 83.98-16.797 33.86 0 63.55 6.771 89.07 20.313 25.52 13.281 45.57 31.901 60.15 55.859 14.85 23.698 22.53 51.302 23.05 82.813h-88.67c-.78-15.625-4.69-29.688-11.72-42.188-6.77-12.76-16.41-22.917-28.91-30.469-12.24-7.552-26.95-11.328-44.14-11.328-19.01 0-34.76 3.907-47.26 11.719-12.5 7.552-22.27 17.969-29.3 31.25-7.03 13.021-12.11 27.734-15.23 44.141-2.87 16.145-4.3 32.942-4.3 50.39v13.672c0 17.448 1.43 34.375 4.3 50.781 2.86 16.407 7.81 31.12 14.84 44.141 7.29 12.76 17.19 23.047 29.69 30.859 12.5 7.552 28.38 11.328 47.65 11.328Zm227.35-139.453v-8.984c0-30.469 4.42-58.724 13.28-84.766 8.85-26.302 21.61-49.088 38.28-68.359 16.93-19.531 37.5-34.635 61.72-45.312 24.48-10.938 52.08-16.407 82.81-16.407 30.99 0 58.6 5.469 82.81 16.407 24.48 10.677 45.19 25.781 62.11 45.312 16.93 19.271 29.82 42.057 38.68 68.359 8.85 26.042 13.28 54.297 13.28 84.766v8.984c0 30.469-4.43 58.724-13.28 84.766-8.86 26.042-21.75 48.828-38.68 68.359-16.92 19.271-37.5 34.375-61.72 45.313-24.21 10.677-51.69 16.015-82.42 16.015-30.99 0-58.72-5.338-83.2-16.015-24.22-10.938-44.79-26.042-61.72-45.313-16.93-19.531-29.82-42.317-38.67-68.359-8.86-26.042-13.28-54.297-13.28-84.766Zm94.14-8.984v8.984c0 19.011 1.95 36.98 5.86 53.907 3.9 16.927 10.02 31.77 18.36 44.531 8.33 12.76 19.01 22.786 32.03 30.078 13.02 7.292 28.51 10.937 46.48 10.937 17.45 0 32.55-3.645 45.32-10.937 13.02-7.292 23.69-17.318 32.03-30.078 8.33-12.761 14.45-27.604 18.36-44.531 4.16-16.927 6.25-34.896 6.25-53.907v-8.984c0-18.75-2.09-36.458-6.25-53.125-3.91-16.927-10.16-31.901-18.75-44.922-8.34-13.021-19.01-23.177-32.04-30.469-12.76-7.552-27.99-11.328-45.7-11.328-17.71 0-33.07 3.776-46.09 11.328-12.76 7.292-23.31 17.448-31.64 30.469-8.34 13.021-14.46 27.995-18.36 44.922-3.91 16.667-5.86 34.375-5.86 53.125Zm471.87-121.094V838h-94.14V415.344h88.67l5.47 85.937Zm-15.23 109.766-32.03-.391c0-29.166 3.64-56.12 10.94-80.859 7.29-24.74 17.96-46.224 32.03-64.453 14.06-18.49 31.51-32.683 52.34-42.578 21.09-10.157 45.44-15.235 73.05-15.235 19.27 0 36.85 2.865 52.73 8.594 16.15 5.469 30.08 14.193 41.8 26.172 11.98 11.979 21.09 27.344 27.34 46.094 6.51 18.75 9.77 41.406 9.77 67.968V838h-94.14V564.562c0-20.572-3.13-36.718-9.38-48.437-5.99-11.719-14.71-20.052-26.17-25-11.2-5.208-24.61-7.813-40.23-7.813-17.71 0-32.82 3.386-45.32 10.157-12.24 6.771-22.26 16.015-30.08 27.734-7.81 11.719-13.54 25.261-17.18 40.625-3.65 15.365-5.47 31.771-5.47 49.219Zm262.11-25-44.14 9.765c0-25.52 3.51-49.609 10.54-72.265 7.3-22.917 17.84-42.969 31.64-60.156 14.07-17.448 31.39-31.12 51.96-41.016 20.57-9.896 44.14-14.844 70.7-14.844 21.62 0 40.89 2.995 57.81 8.985 17.19 5.729 31.77 14.843 43.75 27.343s21.1 28.776 27.35 48.829c6.25 19.791 9.37 43.75 9.37 71.874V838h-94.53V564.172c0-21.354-3.12-37.891-9.37-49.61-5.99-11.718-14.59-19.791-25.78-24.218-11.2-4.688-24.61-7.032-40.24-7.032-14.58 0-27.47 2.735-38.67 8.204-10.94 5.208-20.18 12.63-27.74 22.265-7.55 9.375-13.28 20.183-17.18 32.422-3.65 12.24-5.47 25.521-5.47 39.844Z"/><rect width="892" height="892" y="82" fill="#979AAD" rx="50"/><path fill="#fff" d="M206.641 838v-49.219l63.671-10.937V329.797l-63.671-10.938v-49.218h253.515c41.406 0 76.302 6.25 104.688 18.75 28.646 12.239 50.39 30.078 65.234 53.515 14.844 23.438 22.266 52.084 22.266 85.938 0 33.333-7.292 61.328-21.875 83.984-14.323 22.656-34.766 39.844-61.328 51.563-26.563 11.458-58.073 17.578-94.532 18.359l-127.343 2.344v193.75l63.672 10.937V838H206.641Zm375.39 0L455.469 554.016l76.953-.782L637.5 780.578l39.453 7.031V838h-94.922ZM347.266 523.547h105.078c42.968 0 74.218-8.203 93.75-24.609 19.531-16.407 29.297-40.365 29.297-71.876 0-29.947-9.375-53.645-28.125-71.093s-47.787-26.172-87.11-26.172h-112.89v193.75Z"/></svg>