<svg xmlns="http://www.w3.org/2000/svg" width="155" height="48" fill="none"><path fill="#979AAD" d="m25.314 25.762 5.753 7.867H27.63l-5.305-7.57h-.523v7.57H19V15.15h3.288c2.465 0 4.221.445 5.305 1.373 1.195 1.04 1.793 2.375 1.793 4.045 0 1.298-.374 2.449-1.12 3.376-.748.965-1.72 1.559-2.952 1.819Zm-3.512-2.114h.897c2.652 0 3.997-1.002 3.997-3.043 0-1.893-1.308-2.82-3.885-2.82H21.8v5.863Zm18.343.667c0-2.597.972-4.823 2.877-6.679 1.905-1.855 4.221-2.783 6.874-2.783 2.652 0 4.931.928 6.8 2.82 1.905 1.893 2.839 4.156 2.839 6.79 0 2.672-.972 4.899-2.877 6.754C54.753 33.072 52.436 34 49.709 34c-2.39 0-4.558-.816-6.463-2.486-2.055-1.855-3.1-4.23-3.1-7.199Zm2.84.037c0 2.041.672 3.711 2.054 5.047 1.383 1.299 2.952 1.966 4.745 1.966 1.943 0 3.586-.667 4.931-2.003 1.345-1.373 2.018-3.006 2.018-4.935 0-1.967-.673-3.637-1.98-4.935-1.308-1.336-2.952-2.004-4.894-2.004-1.943 0-3.587.668-4.894 2.004-1.345 1.261-1.98 2.894-1.98 4.86Zm30.56-1.966h8.031V15.15h2.802V33.63h-2.802V25.02h-8.032v8.609h-2.802V15.15h2.802v7.236Zm33.66-4.601H99.77v4.453h7.248v2.634H99.77v6.16h7.435v2.634H96.931V15.15h10.274v2.635Zm21.631 8.757-6.8 2.634-2.054 4.49h-3.026L126.109 14 135 33.629h-3.063l-3.101-7.087Zm0 0-2.765-6.271-2.876 6.27h5.641Z"/></svg>