<svg xmlns="http://www.w3.org/2000/svg" width="5454.667" height="1553.333" version="1.0" viewBox="0 0 4091 1165"><g fill="#979AAD"><path d="M540.5 1C461.6 6.7 389 26.5 319.9 61.1 154.4 143.9 38 301.4 8.1 483c-18 109-6.3 219.8 33.7 319 71.1 176.6 225.8 308 410.9 348.9 94.5 20.9 194.4 18 286.3-8.4 57.4-16.5 112.2-41.8 161.3-74.6 133.4-89.1 223.8-228.5 250.1-385.5 6.2-36.8 7-48.1 7.1-98.9 0-50.3-.7-60.8-6-95-12.8-81.9-43.8-161.1-90.3-231C1002.9 169.8 917.9 97 822.5 53.1 762.9 25.7 702.2 9.3 635 2.5 616.9.6 558.6-.3 540.5 1zM599 135.5c8.5.4 16.9.8 18.5 1 17.3 1.8 27.5 3.1 30.5 4 .8.2 3.5.6 6 .9 2.5.3 5.6.8 7 1.1 1.4.3 3.5.7 4.8.9 1.2.3 3 .7 4 1 .9.3 2.8.7 4.2 1 3.3.7 3.9.8 21 5 .8.3 2.6.9 4 1.4 1.4.5 2.7.9 3 .9.9-.1 29.4 9.4 32.7 10.9 1.7.8 3.6 1.4 4.2 1.4.6 0 1.9.4 2.9.9 1.6.8 3.2 1.6 12.2 5.4 3.5 1.5 11.7 5.3 22 10.1 3 1.4 9.1 4.6 13.5 7.1 4.4 2.4 9.4 5.2 11 6 1.7.9 4.4 2.4 6 3.5 1.7 1.1 3.7 2.3 4.5 2.7.8.3 2.9 1.7 4.6 3 1.7 1.3 3.6 2.3 4.2 2.3.7 0 1.2.4 1.2 1 0 .5.5 1 1.1 1 1.2 0 9.3 5.4 12.3 8.2 1.1 1 2.3 1.8 2.7 1.8.3 0 2.2 1.2 4.1 2.7 2 1.6 4.6 3.5 5.8 4.3 1.2.8 3 2.2 4 3 .9.8 3.2 2.6 5 4 1.8 1.4 4.2 3.3 5.4 4.3 2.4 2.1 6.2 5.2 12.6 10.5 5.4 4.4 37.9 36.9 43.5 43.4 2.2 2.5 5.4 6.3 7 8.3 1.7 2.1 3.7 4.5 4.6 5.6.8 1 2.4 3 3.5 4.4 1 1.5 3.9 5.3 6.4 8.5 6.3 8.1 21 29.7 21 30.8 0 .3 1 1.9 2.3 3.6 1.2 1.7 2.8 4.2 3.5 5.6.7 1.4 2.2 4.1 3.3 6 1.9 3.1 3.8 6.5 11.3 20.5 2.6 5 12.7 27.4 15.9 35.5.5 1.4 1.3 3.3 1.8 4.2.5 1 .9 2.3.9 2.9 0 .6.7 2.5 1.5 4.2 1.8 4 7.5 20.7 7 20.7-.2 0 .3 1.9 1.1 4.2.9 2.4 1.7 5 1.9 5.8.1.8.9 3.5 1.6 6 .7 2.5 1.4 4.9 1.5 5.5.2.5.6 2.3.9 4 .3 1.6 1.1 4.8 1.6 7 1.7 7.2 1.9 8 2.4 10.5.3 1.4.8 4.1 1.1 6 .2 1.9.8 4.8 1.1 6.5.4 1.6.7 3.7.8 4.5.1.8.5 3.3.9 5.5.8 5.4 2.3 17.7 3.1 25.5.6 5.7 2 35 2 41.5 0 11.1-1.7 40.9-2.9 51-1.4 11.4-1.9 14.9-3.2 23-.2 1.1-.5 3.6-.8 5.5-.7 4.3-1.4 7.6-2 9.8-.3.9-.7 3.3-1 5.2-.3 1.9-.8 4.5-1.1 5.8-.3 1.2-.7 3-.9 4-.2.9-1.2 4.6-2.1 8.2-.9 3.6-1.8 6.9-2 7.5-1 4.6-1.8 7.4-2.6 9.5-.5 1.4-1.1 3.4-1.3 4.5-.6 3-5.5 17.6-7.2 21.2-.8 1.7-1.4 3.8-1.4 4.6 0 .9-.4 1.8-.9 2.2-.5.3-1.2 1.8-1.6 3.5-.3 1.6-1.7 5.2-3.1 8-1.3 2.7-2.4 5.5-2.4 6 0 .6-.9 2.8-2 4.8-1 2-4.8 9.5-8.3 16.7-5.7 11.5-7.8 15.6-13.4 25.5-.8 1.4-2.3 3.8-3.3 5.5-1.1 1.6-2.3 3.7-2.7 4.5-.7 1.5-13.5 20.6-15.1 22.5-.5.6-1.7 2.4-2.8 4-1 1.7-2.3 3.5-2.9 4.2-.5.7-1.5 1.8-2 2.5-.6.7-2.3 2.9-3.8 4.8s-3.6 4.5-4.5 5.8c-.9 1.2-2.6 3.4-3.7 4.7-1.2 1.3-3.9 4.5-6 7.1-2.2 2.6-5.6 6.3-7.5 8.3-1.9 2-6.2 6.6-9.6 10.1-10.4 11.1-27.5 26.8-40.4 37-1.7 1.4-4 3.2-5 4.1-1 .8-3.1 2.4-4.5 3.5-1.5 1-3.6 2.7-4.7 3.7-1.2.9-2.4 1.7-2.8 1.7-.3 0-1.5.8-2.6 1.8-2.2 1.9-21.6 14.9-25.4 17-1.4.7-3.2 1.9-4 2.6-.8.7-2.6 1.8-4 2.4-1.4.7-4.3 2.3-6.5 3.6-7.9 4.7-41.1 21-50.2 24.7-6.7 2.7-7.9 3.2-9.5 4-1 .5-2.3.9-2.9.9-.6 0-2.5.6-4.2 1.4-3.2 1.5-20.9 7.5-23.7 8.1-.8.2-4.2 1.1-7.5 2.1s-6.4 1.9-7 2c-.5.1-3.9 1-7.5 1.9-3.6.9-7.3 1.9-8.2 2.1-1 .2-2.8.6-4 .9-1.3.3-3.9.8-5.8 1.1-1.9.3-4.3.7-5.2 1-2.2.6-5.6 1.3-9.8 2-1.9.3-4.6.7-6 .9-4.1.7-10.2 1.5-15 2.1-2.5.3-6 .7-7.9.9-11.6 1.5-24.7 2-48.6 2-23.3 0-33.9-.5-48-2-9.7-1-14.9-1.7-16.8-2.1-1.2-.2-4-.6-6.2-.9-2.2-.3-4.9-.7-6-.9-1.1-.3-5.1-1.1-9-1.9-3.8-.9-8.3-1.7-10-2-1.6-.3-6.8-1.5-11.5-2.7-4.7-1.2-8.9-2.3-9.5-2.4-5-1.2-7.4-1.9-9.5-2.7-1.4-.5-3.6-1.1-4.9-1.4-3.7-.7-18-5.6-21-7.1-1.4-.8-3.3-1.4-4.1-1.4-.9 0-2-.4-2.5-.8-.6-.4-3.7-1.8-7-3.1-14.6-5.6-39.5-17.4-51-24.2-2.7-1.6-6.3-3.6-8-4.4-1.6-.9-4.3-2.5-6-3.5-1.6-1.1-3.8-2.3-4.7-2.6-1-.4-1.8-1-1.8-1.5s-.4-.9-.9-.9c-.8 0-16.9-10.5-19.6-12.8-.6-.5-2.4-1.7-4-2.8-1.7-1-3.5-2.3-4.1-2.9-.6-.5-2.2-1.7-3.4-2.5-1.2-.8-3.9-3-5.9-4.7-2-1.8-3.9-3.3-4.2-3.3-.3 0-1.7-1-3.1-2.2-1.4-1.3-4.2-3.7-6.2-5.3-2.1-1.7-5.9-4.8-8.4-7-6.6-5.7-34.8-34-40.7-40.9-2.7-3.2-5.9-6.8-7-8-1.1-1.2-3-3.6-4.2-5.2-1.2-1.6-2.9-3.8-3.8-4.9-.8-1.1-3.6-4.7-6.1-8-2.5-3.3-5.1-6.7-5.8-7.6-.7-.8-2.1-3-3.2-4.7-1-1.8-2.2-3.2-2.6-3.2-.4 0-.8-.7-.8-1.5s-.4-1.5-1-1.5c-.5 0-1-.7-1-1.5s-.4-1.5-1-1.5c-.5 0-1-.7-1-1.5s-.4-1.5-1-1.5c-.5 0-1-.5-1-1.2 0-.6-1.1-2.6-2.5-4.4-1.4-1.8-2.5-3.6-2.5-4 0-.4-1-2.1-2.3-3.8-1.2-1.7-2.8-4.2-3.5-5.6-.7-1.4-2.4-4.5-3.8-7-6.7-11.5-19.2-37.4-24.3-50.5-1.8-4.4-3.6-8.9-4.1-10-.5-1.1-1.4-3.8-2.1-6-.6-2.2-1.5-4.5-1.9-5-.8-1.1-3-7.5-3.5-10.3-.2-.9-.4-1.8-.4-2-.1-.1-.1-.3 0-.5 0-.1-.9-2.6-2-5.5-1.1-2.8-1.9-5.2-1.7-5.2.2 0-.3-2.1-1.1-4.8-.8-2.6-1.6-5.5-1.9-6.5-1.3-5.1-1.5-6.4-2-8.7-.2-1.4-.7-3.1-1-3.9-.2-.8-.7-3-1-5-.3-2-1-5.6-1.6-8.1-.5-2.5-1.2-5.9-1.4-7.5-.3-1.7-1-5.7-1.5-9-1.1-6-1.3-7.7-2.5-17-3.4-26.7-3.8-77.3-.9-100 .2-1.7.6-5.3 1-8 .7-6.7 1.5-12.7 1.9-14.5.1-.8.6-3.5 1-6 1.1-6.5 1.1-7 2.4-13 .6-3 1.4-6.7 1.6-8.3.3-1.5.7-3.5 1-4.5.3-.9.7-2.8 1-4.2.8-4 1.5-6.6 3.5-14 .7-2.5 1.5-5.2 1.6-6 .2-.8 1-3.4 1.9-5.8.8-2.3 1.3-4.2.9-4.2-.3 0 0-.7.7-1.5s1-1.5.7-1.5c-.7 0 1.6-6.8 3.7-11.5.8-1.7 1.8-4.4 2.2-6 .4-1.7 1-3.5 1.4-4 .4-.6 1.7-3.7 3-7 5.2-13.9 16.4-37.5 24.2-51.3 1.5-2.6 3-5.4 3.4-6.2.5-.8 2.1-3.4 3.6-5.6 1.5-2.3 2.8-4.5 2.8-4.9 0-.3 1.1-2.1 2.5-3.9 1.4-1.8 2.5-3.8 2.5-4.4 0-.7.5-1.2 1-1.2.6 0 1-.7 1-1.5s.5-1.5 1-1.5c.6 0 1-.7 1-1.5s.3-1.5.8-1.5c.4 0 2-2.1 3.7-4.8 1.6-2.6 3.3-5.2 3.7-5.7 1.9-2.4 6.5-8.4 8.3-10.9 1.1-1.5 2.7-3.6 3.5-4.6.8-1 2.9-3.4 4.5-5.5 1.7-2 3.9-4.7 5-5.9 1.1-1.3 4.5-5.1 7.5-8.6 7.1-8 28-28.9 36-36 3.5-3 7.5-6.5 8.9-7.8 1.3-1.3 4-3.5 5.9-5 1.9-1.5 4-3.2 4.6-3.7.6-.6 2.9-2.3 5.1-4 2.2-1.6 4.5-3.3 5-3.7.6-.5 2.8-2.2 5-3.8 2.2-1.6 4.5-3.4 5.2-4 .7-.5 1.6-1 2.2-1 .5 0 1.1-.4 1.3-.8.4-1.2 12.5-9.2 13.7-9.2.6 0 1.1-.5 1.1-1 0-.6.6-1 1.3-1.1.6 0 3.9-1.8 7.2-4 3.3-2.1 6.9-4.4 8-4.9 1.1-.6 4.7-2.6 8-4.5s11.2-6 17.5-9.1c14.1-6.9 18.6-8.9 34.8-15.5 5.4-2.3 6.8-2.8 10.7-4 2.2-.6 4.6-1.6 5.3-2.2.6-.5 1.2-.6 1.2-.2 0 .4.6.3 1.3-.2 1.4-1.2 7.2-3.2 11.3-3.9 1.5-.3 4.2-1.1 6-1.9 1.9-.8 3.4-1.2 3.4-1 0 .3 1.2 0 2.8-.6 1.5-.6 3.4-1.2 4.2-1.5 17.2-4.2 17.7-4.3 21-5 1.4-.3 5.9-1.2 10-2 4.1-.9 8.4-1.7 9.5-2 3.9-.8 17.8-2.8 28-4 8.2-1 12.2-1.2 30-2 9.4-.3 17.2-.8 17.4-1 .2-.2 2-.2 4 .1 2 .2 10.6.7 19.1 1z"/><path d="M563.7 198.6c-.1.1-5.1.4-11.2.8-6 .3-12.8.8-15 1.1-9.8 1.1-13.2 1.5-16 2-1.6.2-5.5.7-8.5 1-3 .4-5.8.9-6.1 1.1-.4.2-2.4.6-4.5.9-2.2.4-4.7.8-5.6 1.1-1 .3-2.8.7-4 1-2.6.4-5.8 1.2-8.8 1.9-4.7 1.2-6.6 1.6-8.9 2.1-1.4.3-2.8.7-3.3 1-.4.3-1.6.7-2.6.9-2.4.4-20.1 6.3-22.7 7.5-1.1.5-3.1 1.2-4.5 1.6-1.4.4-5 1.8-8 3.1-3 1.4-7.5 3.4-10 4.5-10.4 4.6-39.7 19.7-44.5 22.8-1.6 1.1-3.8 2.3-4.7 2.6-1 .4-1.8 1-1.8 1.5s-.4.9-1 .9c-1.1 0-15.5 9.5-18.4 12.2-1.1 1-2.3 1.8-2.6 1.8-.4 0-1.6.8-2.8 1.7-1.1 1-3.2 2.7-4.7 3.7-1.4 1.1-3.4 2.7-4.4 3.5-1 .9-3.3 2.7-5.1 4.1-8.7 6.5-36 33.2-44.7 43.5-7.3 8.7-7.7 9.2-10.4 12.6-1.5 1.9-4.5 5.9-6.8 8.9-2.2 3-4.4 6-4.9 6.5-1.4 1.7-12.8 18.9-13.5 20.5-.4.8-1.6 2.8-2.7 4.5-1.1 1.6-2.5 3.9-3 5-.6 1.1-2.4 4.2-4 7-3.6 6.2-13.9 26.7-16.4 32.6-1 2.4-2.2 5.2-2.7 6.2-1.3 2.4-5.3 13.6-5.9 16.2-.1.5-.5 1.4-1 2-.7.9-4.9 13.1-5.4 15.8-.2.7-1 3.7-2 6.8-.9 3.1-1.9 6.6-2.1 7.8-.3 1.1-.7 3-1 4.1-1.5 6.2-2.1 8.7-2.9 12.8-.3 1.3-.7 3.1-1 4-.3.9-.7 3.3-1 5.2-.3 1.9-.8 4.6-1.1 6-3.4 16.8-6 43.3-6 61 .1 10.2.4 13.1 1.9 16 3 5.6 6.9 8.5 13.1 9.7 2.2.4 42 .8 88.5.8 93 0 90 .2 92.6-6 1.1-2.7 1-3.8-.2-7.6-.9-2.4-2.2-5.1-3-6-.8-.8-1.4-1.9-1.4-2.2 0-.4-1.2-2.6-2.7-5-4.1-6.4-5.9-9.6-9.3-16.7-2.9-6-3.9-8.2-6.8-15-1.1-2.6-5.5-15.8-5.8-17.5-.1-.6-.7-3-1.4-5.5s-1.4-5.4-1.6-6.5c-.2-1.1-.6-3.1-.9-4.5-1.7-8.3-2-13.5-2-31 0-10.7.3-21.3.7-23.5.4-2.2 1.2-6.5 1.8-9.5.6-3 1.3-7.1 1.6-9 .3-1.9 1.1-4.4 1.7-5.5.6-1.1.9-2.1.8-2.3-.3-.3 5.7-19 7.4-22.7 2.6-5.8 8.6-18 10.3-21 2.7-4.6 11.5-17.8 13-19.3.7-.8 2.5-3 4-5 7.6-10 19.1-21.5 29.4-29.3 1.7-1.3 3.6-2.9 4.2-3.5 2.8-2.6 28.2-17.8 32.9-19.6 2.8-1.1 5.6-2.4 6.2-2.9.5-.5 1.5-.9 2.3-.9.7 0 3.2-.9 5.6-2 2.4-1 5.8-2.2 7.6-2.5 1.8-.3 3.7-.8 4.2-1.1.8-.5 3.2-1.1 7.8-2 1.4-.2 3.6-.7 5-1 4.9-1.2 6.6-1.4 12-2 3-.3 68.5-.6 145.5-.7 77-.2 140.7-.5 141.5-.8 10-3.5 10.4-4 9.4-9.6-.8-4-6.3-10.1-12.1-13.2-1.2-.6-2.7-1.7-3.5-2.4-1.5-1.5-12.6-9-14.8-10-.8-.4-2.8-1.6-4.5-2.7-1.6-1.1-3.9-2.4-5-3-1.1-.6-4.2-2.4-7-4-4.8-2.9-21.6-11.3-30-15.1-10-4.5-13.6-5.9-14.5-5.9-.6 0-1.8-.4-2.8-.9-4.6-2.5-21.9-8.6-26.9-9.5-1.1-.3-4.1-1.1-6.6-2-2.5-.8-5.6-1.8-6.9-2-2-.4-5.2-1.2-8.3-2-.5-.1-1.9-.5-3-.9-1.1-.3-3.6-.8-5.5-1.1-1.9-.3-4.6-.8-6-1.1-5-1-8.5-1.7-10.5-2-1.1-.2-3.8-.6-6-.9-2.2-.3-5.8-.8-8-1.1-2.2-.3-5.6-.7-7.5-1-9.6-1.3-57.2-2.9-58.3-1.9z"/><path d="M523.5 355.5c-.5.2-3.5.6-6.5.8-7.4.7-11.4 1.6-18 4.4-5.5 2.3-15.1 7.1-19.2 9.6-3.4 2.1-4.8 3.1-11.5 8.2-4 3-18.4 17.5-21.7 21.9-5.3 6.9-11.9 17.4-14.1 22.6-.9 1.9-2 4.4-2.6 5.4-1.5 2.6-5.9 15.6-5.3 15.6.3 0 0 .8-.5 1.7-.9 1.8-1.5 4.5-2.8 13.3-1.7 10.8-.6 37.4 1.8 43.7.5 1.3.6 2.3.4 2.3-.3 0 .2 1.7 1 3.7.9 2.1 1.6 3.9 1.6 4-.3 1.2 2.3 7.7 6.3 16.3 2.7 5.7 3.1 6.2 8.3 14.3 8.2 12.7 22.6 27 36.2 36.1 2.9 2 5.5 3.6 5.7 3.6.2 0 1.9 1.1 3.8 2.4 1.9 1.3 6.5 3.6 10.3 5.1 3.7 1.5 8.2 3.4 9.8 4.1 1.7.7 4.2 1.5 5.5 1.8 2.5.5 6.7 1.5 8.5 2 1.2.3 6.9 1.4 10.5 2 16.2 2.6 28.8 9.7 33.8 19.1 2.3 4.4 2.5 5.2 2.5 14.5 0 7.5-.3 9.1-2.8 13.4-6.5 11.5-16.6 16.5-34.5 17-3 .1-73.5.3-156.6.4-83.1.2-152.5.7-154.2 1.1-3.1.9-6.3 3.6-8 6.8-1 1.9-.9 12 .2 15.8.3 1.1 1 3.8 1.5 6 .6 2.2 1.7 5.7 2.6 7.8.8 2 1.6 4 1.6 4.4.1.5.5 1.8 1 3.1s.9 2.8.9 3.4c0 .5.7 2.6 1.6 4.6.9 2.1 2.1 4.8 2.6 6.2 2.5 6.2 4 9.5 11.7 25 4.5 9.1 9.5 18.7 11.1 21.5 1.6 2.7 3.6 6.3 4.4 8 .9 1.6 2.5 4.3 3.6 6 1.1 1.6 2.3 3.8 2.6 4.7.4 1 1 1.8 1.5 1.8s.9.5.9 1c0 .6.6 1.8 1.3 2.6 1.4 1.9 11.1 11.5 12.9 12.9 1.3 1 11.3 5.9 11.3 5.6 0-.2 1.3.3 3 .9 7.4 2.8 4 2.7 118 1.7 46.8-.4 113.8-1 149-1.3 79.3-.6 93.9-.9 95.4-1.8.6-.4 2.3-1 3.8-1.2 1.5-.3 3.4-1.1 4.2-1.7.8-.7 1.7-1.1 2-1.1 2.3.5 20.8-9 27.6-14.1 11.2-8.5 22.8-20.2 27.3-27.8.9-1.5 2-2.7 2.4-2.7.4 0 .8-.7.8-1.5s.3-1.5.8-1.5c.4 0 1.2-.9 1.7-1.9 8.3-16.5 10.5-21.1 10.5-22.3 0-.8.4-1.8.9-2.3.6-.6 1.5-3 2.1-5.5.6-2.5 1.3-5.4 1.6-6.5.3-1.1.7-3.1 1-4.4.3-1.4.7-2.8.9-3.1.6-.9 2-17.5 2-23s-1.4-22.1-2-23c-.2-.3-.6-1.7-.9-3.1-2.2-10.5-3.9-15.2-10-27.9-2-4.1-4.2-8.4-4.9-9.5-1.4-2.4-7.5-11.2-9.1-13.3-2.3-3-19.2-19.8-21.6-21.4-10.1-7.1-14.4-9.7-21-12.9-11.3-5.5-14.2-6.7-19-7.9-2.5-.6-5.3-1.3-6.2-1.5-2.4-.7-5.7-1.4-8.8-2-5.2-1-6.6-1.3-11-2.5-2.5-.7-5.4-1.4-6.5-1.6-1.1-.2-4.4-1.5-7.3-2.9-2.8-1.4-5.5-2.5-5.9-2.5-1.9 0-10.2-10.5-11.6-14.7-1.4-4.2-1.7-14.5-.5-19.3.6-2.8 5.5-10.4 8-12.5 2.9-2.5 10.5-6.4 13.7-7 4.6-.9 50.3-1.4 161.6-2 108.4-.5 161.4-1.1 164.5-1.8 5.6-1.3 9-4.7 10.2-9.9.4-2.2.6-4.2.4-4.6-.2-.4-.7-2.7-1.1-5.2-.4-2.4-1.1-5.2-1.6-6.2s-.7-1.8-.5-1.8c.3 0 .1-1.2-.5-2.8-.6-1.5-1.3-3.6-1.5-4.6-.6-3.2-5.6-18-6.4-19.1-.4-.6-1-2.3-1.4-4-.4-1.6-1.9-5.4-3.2-8.5-4.1-9-19.3-39.3-21.4-42.5-1.1-1.7-2.4-3.9-3-5-.6-1.1-1.9-3.4-3-5-1.1-1.7-2.3-3.8-2.6-4.8-.4-.9-1-1.7-1.5-1.7s-.9-.6-.9-1.3c0-4-16.1-16.9-23-18.5-.8-.2-2.4-.6-3.5-.9-2.2-.6-351.3-1.3-353-.8z"/><path d="M774.9 569.7c-8.3 3.4-8.6 10-.9 21.8 1.1 1.6 2.9 4.8 3.9 7 1.1 2.2 2.9 5.6 4 7.5 2.3 4.1 7.1 14.4 7.1 15.4 0 .3.8 2.5 1.9 4.9 2 4.6 5.4 14.4 6.6 19.2.5 1.6.9 3.4 1.1 4 .2.5.5 2.3.9 4 .3 1.6.8 4.1 1.1 5.5 2.3 9.7 2.8 16.5 2.8 33 0 13.4-.5 22.2-1.8 28-.1.8-.6 3.3-1.1 5.5-1 5.3-1.6 7.8-1.9 9-.2.5-.6 2.3-1.1 4-1.2 5.1-4.9 15.8-7.3 21.5-2.4 5.9-13 26.8-15.5 30.7-1.5 2.4-2.7 4.4-2.7 4.7 0 1.2-10.5 15.7-17.7 24.5-6 7.2-20.9 21.5-26.3 25.1-1.2.8-2.8 2-3.4 2.5-1.3 1.2-9.2 6.5-12.1 8.1-4 2.3-20.3 10.4-20.9 10.4-.3 0-3 1.1-5.9 2.5-3 1.3-6.9 2.7-8.7 3-1.8.3-4.1 1-5.1 1.6-1.1.5-1.9.7-1.9.5 0-.3-1.1-.1-2.6.4-1.4.6-3.7 1.2-5.2 1.5-1.5.3-3.8.7-5.2 1-1.4.3-4.3.8-6.5 1.1-2.2.3-5.1.7-6.5.9-8.9 1.3-31.5 1.6-130.5 2-96.9.4-138.7.9-146 1.9-2.8.3-7.5 2.4-7.6 3.3 0 .5-.2 1.8-.5 3.1-.3 1.8.9 3.6 5.5 8 6.5 6.3 8.7 8.2 9.6 8.2.4 0 2.1 1 3.8 2.3 4.4 3.1 6.7 4.5 10.2 6.3 1.7.8 5.3 2.9 8 4.5 2.8 1.6 9.7 5.2 15.5 8 14.1 6.8 18.3 8.7 26.3 11.8 1.2.4 3.3 1.3 4.7 1.9 2.2.9 5.6 2.2 7 2.7.3.1 1.2.5 2 .8 3.6 1.6 19 6.5 19 6.1 0-.3.8 0 1.8.5 1.1.6 3 1.2 4.3 1.5 1.3.3 5.8 1.4 9.9 2.5 4.1 1.1 8.9 2.2 10.5 2.5 1.7.3 4.1.8 5.5 1.1 1.4.3 3.6.7 5 1 1.4.3 3.5.7 4.6.9 1.2.2 3.9.7 6 1 2.2.4 4.6.8 5.4 1.1.8.2 4.2.7 7.5 1 3.3.4 7.6.8 9.5 1.1 17.1 1.9 55.6 2.5 72.5 1.1 14-1.2 22.8-2.2 27.5-3.2 1.4-.3 4.5-.8 7-1.1 2.5-.3 5.3-.8 6.2-1 1-.3 3-.7 4.5-1 1.6-.3 3.6-.7 4.5-1 1.8-.5 4.7-1.2 8.8-2 1.4-.3 3.4-.8 4.5-1.1 2.3-.8 3.1-1 6.3-1.7 1.3-.3 3.7-1 5.5-1.5 1.8-.6 7.7-2.5 13.2-4.2 5.5-1.7 10.4-3.5 10.9-4 .6-.5 1.6-.9 2.4-.9.8 0 3-.7 5-1.6 2.1-.9 4.8-2.1 6.2-2.6 12.2-4.9 33.1-14.9 42.5-20.3 3.3-1.9 6.9-3.8 8-4.4 1.1-.5 3.7-2.1 5.8-3.5 2.1-1.4 4-2.6 4.2-2.6.5 0 18.7-12.2 20.1-13.5.6-.5 2.2-1.7 3.4-2.5 1.2-.8 3-2.2 4-3 1-.8 3-2.4 4.5-3.4 1.4-1.1 3.5-2.7 4.5-3.5 1-.9 3.8-3.2 6.1-5.1 14.4-11.9 32.4-30 43.9-43.9 1.9-2.3 4.2-5.1 5.1-6.1.8-1 2.4-3.1 3.5-4.5 1-1.5 3.1-4.1 4.6-5.8 1.5-1.8 3-4 3.4-5 .3-.9.9-1.7 1.4-1.7.5 0 1.1-.8 1.4-1.8.4-1 1.4-2.7 2.4-3.8 2.6-2.8 10.2-14.1 10.2-15.2 0-.5.6-1.5 1.4-2.1.8-.7 2.2-2.6 3.1-4.4.8-1.8 2.5-4.8 3.7-6.7 7-11.6 16.8-31 21.7-43.3.6-1.5 1.6-3.9 2.2-5.5.7-1.5 1.5-3.6 1.9-4.7.5-1.1 1.5-3.6 2.3-5.5.8-1.9 2.7-7.3 4.1-12 1.5-4.7 3.1-9.9 3.7-11.7.5-1.8 1.2-4.1 1.4-5.3.3-1.1.7-2.9 1-4 .3-1.1.7-2.9 1-4 .3-1.1.7-2.9 1-4 .8-3 1.5-6.2 2-9 .3-1.4.7-3.6 1-5 2-9.7 3-15.5 4-24 .3-2.5.8-6.1 1-8 1.8-13.7 2.6-44.5 1.3-49.2-1.4-4.9-7-9.5-12.9-10.6-3.4-.7-36.1-1-88.5-1-69.7 0-83.6.2-86.5 1.5zM4078 197.4c-23.8 6.7-57.1 30.2-85.6 60.6-31.7 33.8-54.1 74.5-59.9 108.4-1.3 7.8-1.5 45.3-1.5 300.2V958h160V196l-4.2.1c-2.4 0-6.3.6-8.8 1.3zM2003.5 291.9c-53 15.6-118.1 84-138.3 145.4-8.2 24.8-7.7 11.7-7.7 204.2 0 158.3.1 172 1.8 183.9 6.7 48.9 23.4 82.3 53 106.1 34.1 27.5 77.9 38.8 143.7 37.2 25.7-.6 41.1-1.8 57-4.3 14.8-2.3 36.5-6.5 37.8-7.3.9-.5.7-13.9-.8-58.1-1.1-31.5-2.1-57.5-2.3-57.7-.2-.2-3.5 1.1-7.3 2.8-20 9.1-56.5 12.6-75.9 7.4-28-7.6-43.5-28.4-47.4-63.9-.7-6.1-1.1-47.3-1.1-116.1V565h129V451h-129v-73.8c0-40.5-.3-76.7-.7-80.5-.6-6.4-.7-6.7-3.2-6.6-1.4 0-5.3.8-8.6 1.8zM3727 362v43h154v-86h-154v43zM1606 440.6c-53.7 3.2-99.9 17.3-136.2 41.4-25.5 16.9-42.9 37.3-53.2 62.2-15.1 36.5-13.6 88.8 3.4 123.3 11.8 23.9 31.2 40.9 66.5 58 19.5 9.6 38.1 15.8 70.6 23.9 55.9 13.8 82 25.3 91.8 40.6 5 7.7 6.5 14 5.8 24.5-1.4 22.8-16 34.8-50 41.2-11.4 2.1-48.8 2.4-64.7.5-14.3-1.8-34-5.7-45.7-9.1-12.1-3.5-60.4-20.3-68-23.6-3.1-1.4-5.7-2.4-5.8-2.3-.6.7-10.4 121.2-9.9 121.9.6 1 22 8 32.9 10.8 18.9 4.8 48.9 9.3 84 12.7 25.6 2.5 84.9 2.6 105.8.1 50.3-6 86.9-17.9 117.2-38.2 30.4-20.3 48.4-43.1 58.9-74.5 5.9-17.9 7.1-26.5 7-52.5 0-20-.3-24.4-2.3-33.5-6.2-28.8-16.7-48.8-35.5-67.5-24.5-24.3-56.2-39.6-109.6-53-56.5-14.1-85.7-24.7-96.7-34.8-8.4-7.8-11.1-17.4-7.9-29 6.1-22.5 30.1-32 80.6-32 45.9 0 90.2 8.7 124.3 24.5 4.8 2.3 8.9 3.9 9.1 3.7.3-.4 9.7-110.9 9.6-114-.1-4.8-70.2-19.2-113.5-23.4-15.8-1.5-55.9-2.6-68.5-1.9zM2352.2 441.1c-55.9 7.2-113.5 62.3-142.7 136.3-5.5 14.1-11.8 38.2-13.5 51.6-1.9 15.2-.8 106.8 1.4 123 7.5 54 22.9 93 50.4 127.1 7.8 9.6 27.5 28.8 37.7 36.6 34.1 25.9 74.9 42.3 122.5 49.3 41 6 99 5 143.8-2.6 28.3-4.7 56.5-11.8 74-18.4l8.2-3.2v-59.9c0-32.9-.2-59.9-.5-59.9s-2.8 1.1-5.5 2.5c-12.8 6.5-54.2 20.7-75.1 25.9-33.8 8.3-77 10.8-107.1 6.2-45.7-7.1-76.3-27.2-92.8-61-5.3-10.8-12.7-32.1-13.7-39.3l-.6-4.3H2655v-73.3c0-40.2-.5-78.5-1-85-4.8-57.8-35.5-107.9-82.5-134.6-16.1-9.2-34.1-14.9-53.3-17-12-1.3-156.1-1.3-166 0zM2455.7 549c12.6 1.6 23 4.6 32.8 9.4 16.6 8.3 28.5 20.5 37 38 6.7 13.7 10 27.5 12 50.3l.7 7.3h-100.1c-55.1 0-100.1-.3-100.1-.6 0-.4 1.2-5.9 2.6-12.2 6.2-27.9 16.3-47.9 32.3-64.6 9.2-9.4 17.4-15.5 27.5-20.1 6.8-3.2 19.1-6.7 27.1-7.8 6.1-.8 20.3-.7 28.2.3zM2858.5 440.7c-34.8 3.2-71.3 20.7-99.4 47.7-25.3 24.4-43.6 56.3-51.4 90.1-2.1 8.9-2.1 10.4-2.4 194.2l-.4 185.3H2864V829.2c0-135 .2-140.8 4.5-162.8 11.2-55.9 42.7-89.7 90.6-97 19.2-2.9 36.7-.7 48.5 6.2 5.6 3.3 17.1 15.5 21.7 23 7.9 13.2 12.9 29.9 14.7 49.4.6 7.1 1 68 1 160.7V958h161l-.3-187.3-.3-187.2-2.1-9.4c-9.2-39.7-29.8-74.1-58-96.8-26.6-21.4-55.3-33.1-88.8-36.3-10.1-.9-187.9-1.2-198-.3zM3441.8 441.1c-20.9 1.7-48.6 8.3-64.9 15.3-23.6 10.2-46.3 29.1-68.7 57-31.7 39.4-49.5 79.5-54.1 121.8-1.4 12.5-1.4 79.8 0 94.8 6.1 67.3 28.1 117.3 69.9 159 20.2 20.2 41.3 35.3 67.5 48.1 47.8 23.3 100.4 33.1 169 31.6 38.7-.9 55.6-2.9 98.7-11.3 12.6-2.4 23-4.4 23.3-4.4.3 0 .5-27.7.5-61.6 0-58.1-.1-61.5-1.7-61-1 .3-8.8 1.9-17.3 3.6-8.5 1.7-19.8 4.2-25.1 5.5-34.1 8.7-78.4 10.5-108 4.5-49.7-10.1-86.5-41.9-101.9-87.8-6.3-18.9-7.4-27.2-7.4-54.7-.1-22.2.2-26.1 2.2-35.2 6.4-29.5 18.3-50.8 38.9-70.3 20.3-19.2 44-30.2 74.3-34.5 12.2-1.7 39.4-2 52.5-.5 21.2 2.5 49.5 10.3 65.4 18.1 5.3 2.6 9.8 4.6 10 4.3.2-.2 3-26.6 6.2-58.6 5.4-54.3 5.7-58.4 4.1-59.6-3.9-3.1-22.1-11.6-31.6-14.7-12.4-4.1-30.1-8.1-42.1-9.5-10.6-1.2-145-1.1-159.7.1zM3727 706v252h153.5l-.3-252-.2-252h-153v252z"/></g></svg>