<svg xmlns="http://www.w3.org/2000/svg" xml:space="preserve" width="1105.787" height="409.501" viewBox="0 0 1326.944 491.401"><defs><clipPath id="a" clipPathUnits="userSpaceOnUse"><path d="M0 215h841.89V0H0Z"/></clipPath></defs><g style="mix-blend-mode:normal;fill:#979aad;fill-opacity:1"><g clip-path="url(#a)" style="fill:#979aad;fill-opacity:1" transform="matrix(1.33333 0 0 -1.33333 104.277 389.46)"><g style="fill:#979aad;fill-opacity:1"><path d="M0 0c-7.135-7.208-10.702-15.903-10.702-26.083 0-10.253 3.567-18.982 10.702-26.19 7.204-7.131 15.938-10.699 26.191-10.699 10.253 0 18.943 3.568 26.078 10.699 7.204 7.208 10.815 15.937 10.815 26.19 0 10.18-3.611 18.875-10.815 26.083-7.204 7.204-15.903 10.811-26.078 10.811C15.938 10.811 7.204 7.204 0 0m71.549 19.28c12.56-12.56 18.84-27.681 18.84-45.363v-50.709c0-3.789-1.339-6.946-4.017-9.472-2.678-2.674-5.83-4.013-9.476-4.013h-.328c-3.645 0-6.798 1.339-9.476 4.013-2.678 2.526-4.008 5.683-4.008 9.472C54.61-85.78 42.31-90.277 26.191-90.277c-17.682 0-32.808 6.28-45.358 18.836-12.561 12.555-18.84 27.676-18.84 45.358s6.279 32.803 18.84 45.363c12.55 12.555 27.676 18.835 45.358 18.835s32.799-6.28 45.358-18.835" style="fill:#979aad;fill-opacity:1;fill-rule:nonzero;stroke:none" transform="translate(104.946 104.789)"/></g><g style="fill:#979aad;fill-opacity:1"><path d="M0 0c-5.172 0-9.588 1.83-13.247 5.483-3.659 3.654-5.483 8.07-5.483 13.243 0 5.079 1.824 9.448 5.483 13.107C-9.588 35.487-5.172 37.316 0 37.316c5.079 0 9.443-1.829 13.102-5.483 3.742-3.571 5.619-7.94 5.619-13.107 0-5.261-1.877-9.677-5.619-13.243C9.443 1.83 5.079 0 0 0" style="fill:#979aad;fill-opacity:1;fill-rule:nonzero;stroke:none" transform="translate(238.828 164.78)"/></g><g style="fill:#979aad;fill-opacity:1"><path d="M0 0c3.792 0 6.954-1.339 9.476-4.012 2.678-2.678 4.017-5.87 4.017-9.584v-101.312c0-3.788-1.339-6.945-4.017-9.471-2.522-2.674-5.684-4.013-9.476-4.013h-.216c-3.723 0-6.91 1.339-9.588 4.013-2.678 2.526-4.009 5.683-4.009 9.471v101.312c0 3.714 1.331 6.906 4.009 9.584C-7.126-1.339-3.939 0-.216 0Z" style="fill:#979aad;fill-opacity:1;fill-rule:nonzero;stroke:none" transform="translate(238.983 142.904)"/></g><g style="fill:#979aad;fill-opacity:1"><path d="m0 0 35.33 82.359c2.375 5.499 6.539 8.25 12.482 8.25h.225c4.828 0 8.577-2.047 11.255-6.133 1.563-2.302 2.341-4.717 2.341-7.243 0-1.784-.406-3.602-1.227-5.46l-41.35-96.629C15.644-33.473 9.321-37.783.112-37.783c-9.363 0-15.712 4.31-19.055 12.927l-41.463 96.629c-.743 1.858-1.114 3.637-1.114 5.348 0 2.526.777 4.98 2.341 7.355 2.678 4.086 6.427 6.133 11.255 6.133h.337c5.943 0 10.064-2.751 12.37-8.25C-17.458 40.828-7.204 16.9-4.457 10.586-4.457 10.288-2.971 6.759 0 0" style="fill:#979aad;fill-opacity:1;fill-rule:nonzero;stroke:none" transform="translate(335.142 52.295)"/></g><g style="fill:#979aad;fill-opacity:1"><path d="M0 0c-10.545-.619-20.805-5.407-27.429-13.636-6.359-7.9-9.014-16.948-7.966-27.147l.081-.778L23.803-7.358C18.114-1.856 10.178.597 0 0m-22.534-65.54c6.227-6.395 15.364-9.285 26.931-8.23 6.78.619 13.485 2.955 18.88 7.105 7.04 5.415 12.146 12.717 14.265 20.896 1.418 5.477 5.028 9.725 10.612 10.635 5.025.821 9.22-.684 12.575-4.502 1.944-2.192 3.049-4.579 3.316-7.166.159-1.551.021-3.172-.396-4.856-3.064-13.089-9.663-24.074-19.803-32.959-10.397-9.327-22.589-14.649-36.576-15.974-16.685-1.58-33.499 3.59-46.498 14.168-13.447 10.943-21.189 24.931-23.227 41.96C-64.578-26.71-58.999-8.5-47.405 5.111c11.041 12.962 25.081 20.321 42.107 22.073 12.709 1.307 24.675-.975 35.881-6.843C41.706 14.612 50.351 6.466 56.518-4.106c1.075-1.756 1.715-3.592 1.914-5.517.159-1.551.017-3.133-.415-4.745-.898-3.605-3.002-6.361-6.314-8.269" style="fill:#979aad;fill-opacity:1;fill-rule:nonzero;stroke:none" transform="translate(472.805 114.415)"/></g><g style="fill:#979aad;fill-opacity:1"><path d="M0 0c3.714 0 6.901-1.339 9.579-4.012 2.601-2.678 3.905-5.87 3.905-9.584v-.225c0-3.714-1.304-6.871-3.905-9.471C6.901-25.97 3.714-27.305 0-27.305h-6.357c-6.09 0-11.256-2.121-15.489-6.353-4.164-4.237-6.28-9.403-6.357-15.492v-65.758c0-3.788-1.339-6.945-4.009-9.471-2.678-2.674-5.839-4.013-9.476-4.013h-.336c-3.637 0-6.798 1.339-9.467 4.013-2.678 2.526-4.017 5.683-4.017 9.471v65.758c.147 13.596 4.941 25.188 14.382 34.772C-31.546-4.794-19.954 0-6.357 0Z" style="fill:#979aad;fill-opacity:1;fill-rule:nonzero;stroke:none" transform="translate(614.929 142.904)"/></g><g style="fill:#979aad;fill-opacity:1"><path d="M0 0c-7.57 0-13.708 6.137-13.708 13.708v50.87c0 50.436-40.887 91.321-91.322 91.321h-423.866c-7.571 0-13.708 6.138-13.708 13.709s6.137 13.709 13.708 13.709h423.866c65.578 0 118.739-53.161 118.739-118.739v-50.87C13.709 6.137 7.571 0 0 0" style="fill:#979aad;fill-opacity:1;fill-rule:nonzero;stroke:none" transform="translate(813.291 14.51)"/></g><g style="fill:#979aad;fill-opacity:1"><path d="M0 0c-7.571 0-13.708 6.137-13.708 13.708v50.887c0 65.569 53.153 118.722 118.721 118.722h62.993c7.572 0 13.709-6.138 13.709-13.709s-6.137-13.709-13.709-13.709h-62.993c-50.426 0-91.305-40.878-91.305-91.304V13.708C13.708 6.137 7.571 0 0 0" style="fill:#979aad;fill-opacity:1;fill-rule:nonzero;stroke:none" transform="translate(25.5 14.51)"/></g><g style="fill:#979aad;fill-opacity:1"><path d="M0 0c-10.25 0-18.979-3.603-26.183-10.807-7.128-7.204-10.695-15.931-10.695-26.18 0-10.177 3.567-18.865 10.695-26.069C-18.979-70.261-10.25-73.863 0-73.863c10.173 0 18.863 3.602 26.067 10.807 7.204 7.204 10.806 15.892 10.806 26.069 0 10.249-3.602 18.976-10.806 26.18C18.863-3.603 10.173 0 0 0m0 27.519c17.676 0 32.791-6.279 45.341-18.829C57.892-3.862 64.17-18.977 64.17-36.653c0-17.677-6.278-32.791-18.829-45.342C32.791-94.548 17.676-100.823 0-100.823c-17.677 0-32.792 6.275-45.342 18.828C-57.896-69.444-64.17-54.33-64.17-36.653c0 17.676 6.274 32.791 18.828 45.343C-32.792 21.24-17.677 27.519 0 27.519" style="fill:#979aad;fill-opacity:1;fill-rule:nonzero;stroke:none" transform="translate(708.317 115.332)"/></g></g></g></svg>