<svg xmlns="http://www.w3.org/2000/svg" width="290" height="100" viewBox="-15 -15 310 120"><path fill="#979AAD" d="M42.613 50V0h4.082v100h-4.082zM1.01 83.206c.309-.725 6.753-16.197 14.322-34.383l13.76-33.065.044 12.741.043 12.742-3.912 9.776c-2.152 5.377-3.913 9.835-3.913 9.907 0 .071 1.76.13 3.912.13h3.911v9.354H17.495l-5.58 14.112-11.467.004.562-1.318zm277.4-25.917L267.356 45.19l-.044 11.334-.044 11.334h-5.61V30.603l7.186 7.873c3.952 4.33 8.946 9.806 11.097 12.17l3.912 4.295.087-22.627h5.61V50.85c0 10.196-.02 18.537-.043 18.537-.024 0-5.017-5.445-11.097-12.1zM65.28 67.56c.073-.252 13.928-33.576 14.961-35.984.238-.555.394-.749.48-.595.096.172 14.83 35.6 15.247 36.665.065.165-.596.212-2.972.212H89.94l-3.023-7.652-12.585.002-1.519 3.825-1.518 3.825h-3.05c-2.826 0-3.045-.022-2.965-.297zm19.511-12.456c0-.148-4.052-10.397-4.151-10.5-.047-.049-4.006 9.845-4.132 10.325-.088.339-.023.344 4.096.344 2.658 0 4.187-.061 4.187-.169zm25.68-5.03V32.288l6.59.067c6.24.063 6.658.087 7.864.45 1.948.585 3.179 1.315 4.612 2.734 1.511 1.496 2.487 3.309 2.965 5.509.448 2.064.286 5.504-.35 7.393-.912 2.71-2.889 5.026-5.225 6.12-.537.25-.958.511-.935.578.022.067 2.106 2.893 4.632 6.28 2.525 3.388 4.617 6.222 4.648 6.299.032.077-1.346.138-3.06.137l-3.119-.002-4.492-6.04-4.492-6.04-3.94.094-.045 5.995-.045 5.995h-5.608zm12.379.614c3.505-.665 5.426-3.8 4.83-7.884-.383-2.63-1.732-4.379-3.893-5.046-.948-.293-1.582-.342-4.406-.342h-3.298V50.85h2.953c1.624 0 3.34-.074 3.814-.164zm26.566-.602V32.314h5.442v35.544h-5.442zm29.89 3.359c4.824-7.928 8.92-14.662 9.1-14.966l.33-.553h-14.15v-5.612h24.145l-1.942 3.188-9.085 14.923-7.143 11.735 17.666.088v5.61h-27.691zm46.046 14.226c-2.24-.32-5.053-1.424-7.213-2.832-1.251-.816-4.027-3.604-4.864-4.887-3.696-5.663-3.95-13.172-.632-18.71 2.57-4.29 6.276-7.105 11.008-8.36 1.503-.4 2.018-.452 4.422-.452 2.406 0 2.918.052 4.422.452 6.37 1.694 11.088 6.412 12.782 12.782.4 1.504.452 2.016.452 4.422 0 2.407-.052 2.917-.452 4.418-2.366 8.88-10.82 14.467-19.925 13.167zm5.593-5.76c3.492-.894 6.594-3.404 8.097-6.552.912-1.91 1.25-3.618 1.142-5.78-.05-1.031-.222-2.295-.38-2.81-1.301-4.23-4.674-7.448-8.935-8.526-1.977-.5-4.601-.395-6.537.262-3.685 1.249-6.514 4.045-7.85 7.76-.414 1.148-.459 1.507-.47 3.736-.013 2.152.037 2.617.383 3.656 1.739 5.212 6.253 8.548 11.608 8.58 1.094.005 2.063-.102 2.942-.327z"/></svg>