<svg xmlns="http://www.w3.org/2000/svg" width="1080" height="289" fill="none"><g fill="#979AAD" fill-rule="evenodd" clip-path="url(#a)" clip-rule="evenodd"><path d="M344.841 105.164c-3.407 2.209-7.79 3.316-13.156 3.316h-29.89V81.96h29.251c2.895 0 5.789.389 8.686 1.169 2.896.782 5.322 2.126 7.28 4.03 1.96 1.907 2.939 4.508 2.939 7.8 0 4.596-1.705 7.995-5.11 10.205ZM301.795 44.52h27.08c4.597 0 8.474.91 11.623 2.73 3.15 1.82 4.726 4.853 4.726 9.1 0 3.814-1.492 6.76-4.47 8.841-2.983 2.078-6.431 3.163-10.345 3.248h-28.614V44.52Zm53.456 32.24a31.194 31.194 0 0 0-8.493-4.42c4.088-1.734 7.196-4.227 9.325-7.476 2.125-3.25 3.191-6.91 3.191-10.982 0-7.455-2.469-13.132-7.408-17.034C346.928 32.951 339.604 31 329.898 31H288v91h43.94c3.748 0 7.492-.41 11.24-1.235 3.748-.823 7.195-2.232 10.347-4.225 3.15-1.994 5.685-4.724 7.602-8.192 1.915-3.463 2.871-7.841 2.871-13.13 0-4.331-.808-8.015-2.426-11.048-1.62-3.032-3.726-5.502-6.323-7.41ZM409.42 86.38l9.29-21.842a175.155 175.155 0 0 0 3.483-8.97c1.116-3.12 2.279-6.325 3.485-9.62a449.422 449.422 0 0 0 3.353 9.297 608.849 608.849 0 0 0 3.357 8.774l9.548 22.361H409.42ZM418.581 31 380 122h14.322l9.42-22.1h43.873l9.29 22.1H472l-38.323-91h-15.096ZM566.948 44.52v56.037L508.142 31H495v91h14.052V54.376L567.599 122H581V31h-14.052v13.52ZM680.084 92.555c-2.216 4.81-5.692 8.668-10.426 11.571-4.734 2.905-10.88 4.355-18.437 4.355h-25.148v-63.96h25.148c7.47 0 13.596 1.474 18.373 4.42 4.776 2.945 8.274 6.847 10.49 11.7 2.214 4.853 3.322 10.14 3.322 15.858 0 5.895-1.108 11.246-3.322 16.056Zm14.983-33.541c-1.953-5.503-4.884-10.357-8.795-14.56-3.909-4.2-8.731-7.496-14.462-9.88C666.074 32.193 659.432 31 651.872 31H612v91h39.872c10.076 0 18.546-2.056 25.409-6.174 6.863-4.115 12.031-9.619 15.507-16.511C696.261 92.425 698 84.82 698 76.499c0-6.151-.978-11.98-2.933-17.485ZM329.928 211.159c2.636 0 5.08-.693 7.333-2.081a15.92 15.92 0 0 0 5.419-5.523c1.358-2.295 2.04-4.829 2.04-7.605 0-2.685-.682-5.112-2.04-7.279-1.361-2.167-3.17-3.902-5.419-5.203-2.253-1.297-4.697-1.946-7.333-1.946H302.77v29.637h27.158ZM331.587 168c4.929 0 9.477 1.235 13.643 3.705 4.162 2.47 7.499 5.808 10.009 10.009 2.504 4.204 3.761 8.952 3.761 14.236 0 5.377-1.296 10.225-3.888 14.559-2.595 4.334-6.037 7.78-10.329 10.335-4.294 2.557-9.034 3.835-14.217 3.835H302.77V259H289v-91h42.587ZM428.474 181.503h-26.771v29.987h28.929c2.958 0 5.561-.696 7.802-2.077 2.239-1.384 3.974-3.225 5.201-5.517 1.225-2.294 1.842-4.783 1.842-7.466 0-2.943-.763-5.538-2.284-7.788-1.524-2.25-3.576-4.002-6.155-5.258-2.58-1.254-5.436-1.881-8.564-1.881Zm31.212 15.055c0 5.887-1.734 11.23-5.204 16.036-3.469 4.801-7.907 8.285-13.319 10.449L464 259l-16.875-.128-21.188-33.884h-24.234v33.884H388V168h43.391c4.822 0 9.389 1.19 13.703 3.57 4.314 2.381 7.823 5.735 10.532 10.062 2.706 4.328 4.06 9.302 4.06 14.926ZM565.773 213.499c0-6.283-1.467-11.904-4.397-16.853-2.932-4.951-6.985-8.87-12.157-11.757-5.173-2.884-11.08-4.325-17.719-4.325-6.812 0-12.783 1.441-17.912 4.325-5.13 2.887-9.14 6.806-12.028 11.757-2.891 4.949-4.335 10.57-4.335 16.853 0 6.287 1.444 11.906 4.335 16.856 2.888 4.955 6.898 8.87 12.028 11.753 5.129 2.887 11.1 4.33 17.912 4.33 6.639 0 12.546-1.443 17.719-4.33 5.172-2.883 9.225-6.823 12.157-11.817 2.93-4.992 4.397-10.591 4.397-16.792Zm14.227 0c0 6.544-1.185 12.64-3.558 18.278-2.371 5.642-5.735 10.571-10.086 14.79-4.354 4.22-9.487 7.512-15.392 9.881-5.907 2.365-12.395 3.552-19.464 3.552-7.071 0-13.582-1.187-19.529-3.552-5.951-2.369-11.08-5.661-15.391-9.881-4.311-4.219-7.653-9.148-10.024-14.79-2.372-5.638-3.556-11.734-3.556-18.278 0-6.542 1.184-12.634 3.556-18.276 2.371-5.639 5.713-10.569 10.024-14.788 4.311-4.218 9.44-7.513 15.391-9.883 5.947-2.368 12.458-3.552 19.529-3.552 7.069 0 13.557 1.184 19.464 3.552 5.905 2.37 11.038 5.665 15.392 9.883 4.351 4.219 7.715 9.149 10.086 14.788 2.373 5.642 3.558 11.734 3.558 18.276ZM621.3 259v-77.478H593V168h71v13.522h-29.056V259H621.3ZM758.773 213.499c0-6.283-1.467-11.904-4.397-16.853-2.932-4.951-6.985-8.87-12.156-11.757-5.174-2.884-11.08-4.325-17.721-4.325-6.81 0-12.781 1.441-17.91 4.325-5.13 2.887-9.141 6.806-12.028 11.757-2.89 4.949-4.334 10.57-4.334 16.853 0 6.287 1.444 11.906 4.334 16.856 2.887 4.955 6.898 8.87 12.028 11.753 5.129 2.887 11.1 4.33 17.91 4.33 6.641 0 12.547-1.443 17.721-4.33 5.171-2.883 9.224-6.823 12.156-11.817 2.93-4.992 4.397-10.591 4.397-16.792Zm14.227 0c0 6.544-1.185 12.64-3.558 18.278-2.371 5.642-5.735 10.571-10.086 14.79-4.354 4.22-9.486 7.512-15.392 9.881-5.906 2.365-12.394 3.552-19.465 3.552-7.069 0-13.58-1.187-19.527-3.552-5.951-2.369-11.08-5.661-15.392-9.881-4.31-4.219-7.651-9.148-10.022-14.79-2.373-5.638-3.558-11.734-3.558-18.278 0-6.542 1.185-12.634 3.558-18.276 2.371-5.639 5.712-10.569 10.022-14.788 4.312-4.218 9.441-7.513 15.392-9.883 5.947-2.368 12.458-3.552 19.527-3.552 7.071 0 13.559 1.184 19.465 3.552 5.906 2.37 11.038 5.665 15.392 9.883 4.351 4.219 7.715 9.149 10.086 14.788 2.373 5.642 3.558 11.734 3.558 18.276ZM876.703 245.765c-2.072 2.057-4.906 4.092-8.491 6.104-3.585 2.012-7.713 3.706-12.38 5.076-4.667 1.368-9.636 2.055-14.907 2.055-6.569 0-12.702-1.093-18.407-3.276-5.704-2.185-10.695-5.291-14.973-9.316-4.278-4.026-7.604-8.888-9.98-14.586-2.381-5.694-3.565-12.054-3.565-19.08 0-6.594 1.251-12.676 3.757-18.245 2.506-5.567 5.985-10.406 10.436-14.518 4.45-4.112 9.529-7.301 15.231-9.573 5.705-2.268 11.753-3.406 18.149-3.406 5.357 0 10.392.753 15.102 2.25 4.709 1.501 8.902 3.406 12.575 5.718 3.673 2.314 6.589 4.753 8.75 7.323l-8.945 10.537a52.946 52.946 0 0 0-12.639-8.674c-4.623-2.267-9.745-3.406-15.362-3.406-5.531 0-10.803 1.286-15.815 3.857-5.012 2.569-9.094 6.253-12.251 11.049-3.153 4.799-4.73 10.494-4.73 17.088 0 7.198 1.62 13.192 4.859 17.989 3.243 4.8 7.476 8.414 12.706 10.856 5.228 2.445 10.867 3.665 16.917 3.665 6.135 0 11.448-1.178 15.946-3.534 4.491-2.355 8.208-4.82 11.145-7.389l6.872 11.436ZM977.773 213.499c0-6.283-1.47-11.904-4.397-16.853-2.933-4.951-6.985-8.87-12.16-11.757-5.173-2.884-11.08-4.325-17.716-4.325-6.812 0-12.785 1.441-17.915 4.325-5.13 2.887-9.141 6.806-12.027 11.757-2.889 4.949-4.333 10.57-4.333 16.853 0 6.287 1.444 11.906 4.333 16.856 2.886 4.955 6.897 8.87 12.027 11.753 5.13 2.887 11.103 4.33 17.915 4.33 6.636 0 12.543-1.443 17.716-4.33 5.175-2.883 9.227-6.823 12.16-11.817 2.927-4.992 4.397-10.591 4.397-16.792Zm14.227 0c0 6.544-1.188 12.64-3.556 18.278-2.375 5.642-5.737 10.571-10.091 14.79-4.354 4.22-9.484 7.512-15.389 9.881-5.907 2.365-12.398 3.552-19.464 3.552-7.073 0-13.58-1.187-19.531-3.552-5.949-2.369-11.081-5.661-15.389-9.881-4.314-4.219-7.653-9.148-10.024-14.79-2.373-5.638-3.556-11.734-3.556-18.278 0-6.542 1.183-12.634 3.556-18.276 2.371-5.639 5.71-10.569 10.024-14.788 4.308-4.218 9.44-7.513 15.389-9.883C929.92 168.184 936.427 167 943.5 167c7.066 0 13.557 1.184 19.464 3.552 5.905 2.37 11.035 5.665 15.389 9.883 4.354 4.219 7.716 9.149 10.091 14.788 2.368 5.642 3.556 11.734 3.556 18.276ZM1080 245.48V259h-63v-91h13.83v77.48H1080ZM201.994 197.37c0 24.262-19.846 43.997-44.246 43.997H72.917l88.161-87.666c22.821 1.729 40.916 20.54 40.916 43.669ZM60.407 149.734V47.774h97.341c1.664 0 3.304.09 4.92.27L60.407 149.735Zm159.278-57.957c0-20.54-10.158-38.758-25.742-49.955L236 0l-25.16.143-33.413 33.224a62.052 62.052 0 0 0-19.679-3.185H42.716v162.02L181.21 54.483c12.474 7.791 20.784 21.595 20.784 37.294 0 24.262-19.846 43.998-44.246 43.998h-3.662L0 289h25.017l30.209-30.041h102.522c34.152 0 61.937-27.629 61.937-61.589 0-22.398-12.121-41.982-30.145-52.763 18.043-10.779 30.145-30.422 30.145-52.83Z"/></g><defs><clipPath id="a"><path fill="#fff" d="M0 0h1080v289H0z"/></clipPath></defs></svg>