<svg xmlns="http://www.w3.org/2000/svg" width="368" height="92" fill="none"><path fill="#979AAD" fill-rule="evenodd" d="M173.049 26.942c-5.146-5.185-11.669-8.037-18.375-8.037-6.717 0-13.24 2.852-18.392 8.049a27.28 27.28 0 0 0-5.927 8.906 27.436 27.436 0 0 0-2.061 10.516c-.011 3.61.691 7.18 2.061 10.517a27.339 27.339 0 0 0 5.927 8.906c5.146 5.186 11.669 8.037 18.375 8.037 6.707 0 13.24-2.868 18.376-8.037a27.535 27.535 0 0 0 3.019-3.604l.111-.161 9.865 7.441-.112.15a39.491 39.491 0 0 1-4.406 5.047c-7.269 7.035-17.128 10.912-27.761 10.912-10.109 0-19.071-3.86-26.635-11.469a38.94 38.94 0 0 1-8.467-12.716 39.191 39.191 0 0 1-2.946-15.017 39.17 39.17 0 0 1 2.946-15.017 38.94 38.94 0 0 1 8.467-12.716c7.441-7.492 17.183-11.614 27.437-11.614 9.993 0 19.562 3.938 26.954 11.101a39.993 39.993 0 0 1 3.147 3.431 39.75 39.75 0 0 1 2.016 2.713l.106.156-10.082 7.063-.106-.167a25.774 25.774 0 0 0-1.375-1.922 24.63 24.63 0 0 0-2.162-2.468Zm128.896 39.642V7.397H290.71v59.978c0 9.937 5.493 16.37 15.925 16.37h2.663V72.907h-1.744c-3.927 0-5.609-2.256-5.609-6.322Zm-38.277-32.267v-4.294h-11.235V83.75h11.235V45.68c0-2.105-1.331-3.537-3.013-3.682v-2.077h25.483V29.18a27.736 27.736 0 0 0-22.47 5.136Zm-19.077-4.3h-11.235v4.723c-5.136-4.389-10.533-6.127-16.855-6.127-15.485 0-28.084 12.683-28.084 28.274 0 15.59 12.599 28.273 28.084 28.273 1.498 0 2.919-.066 4.272-.19 4.807-.573 9.531-2.35 11.675-5.458h1.855v4.245h10.282v-53.74h.006Zm-27.316 43.83c-9.719 0-17.623-7.608-17.623-16.966 0-9.357 7.904-16.966 17.623-16.966 9.72 0 17.624 7.609 17.624 16.966-.006 9.358-7.91 16.967-17.624 16.967Zm138.866-43.83h11.235v53.74h-10.288v-4.245h-1.854c-2.139 3.103-6.863 4.885-11.67 5.459-1.359.123-2.779.19-4.272.19-15.484 0-28.089-12.69-28.089-28.274 0-15.59 12.599-28.274 28.089-28.274 6.317 0 11.72 1.733 16.855 6.127v-4.723h-.006Zm-33.709 26.864c0 9.358 7.904 16.967 17.623 16.967 9.726 0 17.624-7.609 17.624-16.967 0-9.357-7.904-16.966-17.624-16.966-9.719 0-17.623 7.609-17.623 16.966ZM45.602 92a45.289 45.289 0 0 1-17.457-3.504 45.481 45.481 0 0 1-14.788-9.97C4.8 69.893 0 58.196 0 45.997c0-12.193 4.801-23.89 13.357-32.523a45.54 45.54 0 0 1 14.788-9.97A45.267 45.267 0 0 1 45.602 0v92Zm26.43-48.286c2.851 0 5.675-.563 8.31-1.66a21.716 21.716 0 0 0 7.046-4.735 21.856 21.856 0 0 0 4.707-7.09 21.967 21.967 0 0 0 1.654-8.367c0-5.798-2.29-11.357-6.361-15.456a21.63 21.63 0 0 0-15.351-6.4c-5.76 0-11.28 2.306-15.35 6.4a21.932 21.932 0 0 0-6.362 15.45c0 5.8 2.29 11.358 6.361 15.452a21.599 21.599 0 0 0 15.345 6.406Zm21.711 26.418c0 2.869-.562 5.715-1.654 8.366a21.854 21.854 0 0 1-4.707 7.09 21.856 21.856 0 0 1-7.04 4.741 21.617 21.617 0 0 1-8.31 1.665c-5.76 0-11.28-2.3-15.351-6.4a21.935 21.935 0 0 1-6.361-15.456c0-5.799 2.289-11.352 6.36-15.452a21.63 21.63 0 0 1 15.351-6.4c2.852 0 5.676.563 8.31 1.666a21.643 21.643 0 0 1 7.047 4.74 21.88 21.88 0 0 1 4.707 7.096 21.983 21.983 0 0 1 1.648 8.366v-.022Z" clip-rule="evenodd"/></svg>