<svg xmlns="http://www.w3.org/2000/svg" width="60" height="48" fill="none"><path fill="#979AAD" d="M34.08 18.014c0-1.04.35-1.91 1.071-2.66.715-.748 1.57-1.111 2.609-1.111 1.023 0 1.9.375 2.608 1.11.72.75 1.073 1.62 1.073 2.661v3.738H37.76c-1.038 0-1.894-.358-2.61-1.096-.72-.737-1.07-1.604-1.07-2.642Zm8.61-4.883c-1.37-1.343-3.028-2.023-4.92-2.023-1.897 0-3.552.68-4.916 2.023-1.367 1.342-2.06 2.985-2.06 4.883 0 1.897.693 3.538 2.062 4.869 1.364 1.331 3.017 2.005 4.914 2.005h6.987v-6.874c0-1.898-.697-3.541-2.067-4.883ZM22.375 31.994c-.731 0-1.504-.28-2.176-.785-4.154-3.103-6.536-7.918-6.536-13.212 0-5.292 2.383-10.109 6.536-13.214C20.87 4.278 21.644 4 22.376 4c.698 0 1.226.261 1.406.698.422.985-.43 2.224-1.398 2.961-3.248 2.43-5.113 6.198-5.113 10.338 0 4.14 1.865 7.908 5.115 10.338.965.735 1.817 1.976 1.401 2.957-.185.441-.713.702-1.412.702Z"/><path fill="#979AAD" d="M28.752 28.12c-.649 0-1.32-.237-1.894-.669-3.003-2.243-4.724-5.72-4.724-9.541 0-3.819 1.722-7.3 4.724-9.544.574-.43 1.246-.666 1.894-.666.75 0 1.36.343 1.59.893.427 1.011-.28 2.146-1.17 2.826-2.04 1.523-3.213 3.89-3.213 6.49 0 2.602 1.17 4.966 3.208 6.49.893.68 1.6 1.82 1.174 2.83-.232.552-.839.892-1.59.892ZM16.543 43.878c-1.92 0-2.88-1.054-2.88-3.161 0-1.049.262-1.85.784-2.403.522-.553 1.27-.83 2.245-.83.713 0 1.354.14 1.92.419l-.496 1.302a8.467 8.467 0 0 0-.74-.262 2.378 2.378 0 0 0-.684-.102c-.875 0-1.313.621-1.313 1.864 0 1.207.438 1.81 1.313 1.81a3 3 0 0 0 .9-.13c.275-.086.55-.221.827-.405v1.44a2.724 2.724 0 0 1-.825.359 4.65 4.65 0 0 1-1.05.099ZM22.353 43.878c-1.92 0-2.88-1.054-2.88-3.161 0-1.049.26-1.85.783-2.403.522-.553 1.27-.83 2.246-.83.713 0 1.353.14 1.92.419l-.497 1.302a8.477 8.477 0 0 0-.74-.262 2.379 2.379 0 0 0-.683-.102c-.876 0-1.314.621-1.314 1.864 0 1.207.438 1.81 1.314 1.81a3 3 0 0 0 .899-.13c.276-.086.552-.221.827-.405v1.44a2.723 2.723 0 0 1-.825.359 4.65 4.65 0 0 1-1.05.099ZM29.078 40.91l-.651.022c-.49.015-.853.103-1.093.265-.239.162-.358.408-.358.74 0 .473.272.71.817.71.39 0 .7-.111.934-.336.234-.224.35-.522.35-.894v-.507Zm.496 2.858-.325-.84h-.044c-.284.358-.575.605-.875.743-.3.138-.69.207-1.172.207-.592 0-1.059-.17-1.399-.508-.34-.338-.51-.82-.51-1.445 0-.655.229-1.137.687-1.448.458-.311 1.148-.483 2.072-.516l1.07-.033v-.27c0-.626-.32-.938-.96-.938-.493 0-1.072.148-1.738.446l-.557-1.136c.71-.372 1.497-.558 2.361-.558.827 0 1.462.181 1.904.541.44.36.661.909.661 1.645v4.11h-1.175ZM32.245 42.979c0-.31.082-.543.248-.701.166-.158.406-.237.723-.237.305 0 .541.08.709.243.167.162.25.393.25.695 0 .29-.084.52-.253.686-.17.168-.405.252-.706.252-.31 0-.548-.082-.718-.246-.169-.163-.253-.395-.253-.692ZM37.387 43.767h-1.683V37.6h1.683v6.168Zm-1.755-7.762c0-.548.305-.822.916-.822.61 0 .916.274.916.822 0 .261-.076.464-.23.61-.152.145-.38.218-.686.218-.61 0-.916-.276-.916-.828ZM40.493 40.672c0 .611.1 1.073.3 1.385.2.313.527.47.98.47.448 0 .771-.156.968-.467.197-.31.295-.773.295-1.388 0-.61-.1-1.068-.298-1.373-.199-.306-.524-.458-.977-.458-.448 0-.772.152-.97.455-.2.304-.298.763-.298 1.377Zm4.264 0c0 1.005-.264 1.79-.794 2.356-.53.567-1.267.85-2.212.85-.593 0-1.115-.13-1.567-.389a2.59 2.59 0 0 1-1.043-1.117c-.243-.486-.364-1.052-.364-1.7 0-1.007.263-1.79.789-2.35.526-.559 1.265-.838 2.217-.838.593 0 1.115.129 1.567.386.453.257.8.627 1.043 1.109.243.482.364 1.046.364 1.694Z"/><path fill="#979AAD" d="M21.572 31.85c-.859-.224-1.824-.908-3.13-2.217-2.676-2.684-4.244-6.008-4.671-9.903-.095-.857-.08-2.779.027-3.67.369-3.075 1.447-5.751 3.305-8.202.562-.742 2.17-2.344 2.9-2.89.91-.68 1.524-.919 2.368-.919 1.05 0 1.517.432 1.457 1.348-.052.785-.534 1.49-1.613 2.357-2.111 1.697-3.527 3.714-4.317 6.15-.448 1.379-.633 2.596-.63 4.13.007 2.9.859 5.49 2.556 7.776.498.672 1.666 1.856 2.403 2.437 1.1.868 1.624 1.673 1.624 2.495 0 .99-.956 1.455-2.28 1.109Z"/><path fill="#979AAD" d="M27.993 27.99c-.686-.196-1.462-.74-2.42-1.7-1.889-1.89-3.033-4.32-3.35-7.115-.084-.738-.037-2.508.085-3.226.516-3.024 2.105-5.696 4.433-7.453.553-.417.88-.577 1.43-.7 1.06-.236 1.963.18 2.208 1.017.12.409.053.876-.195 1.375-.228.457-.51.772-1.251 1.392-1.984 1.663-2.98 3.783-2.98 6.351-.002 2.55 1.11 4.834 3.135 6.438.251.2.565.495.696.656.906 1.111.86 2.323-.108 2.85-.272.147-.363.166-.86.178-.346.008-.657-.015-.823-.063ZM15.852 43.802c-.915-.153-1.55-.645-1.895-1.469-.39-.929-.325-2.641.133-3.482.33-.607.963-1.07 1.7-1.244.457-.108 1.33-.106 1.866.004.435.09.901.263.901.336 0 .022-.102.305-.226.63l-.227.59-.482-.164c-.362-.124-.589-.166-.905-.168-.377-.003-.453.015-.695.165-.364.225-.556.604-.633 1.25-.063.519-.005 1.194.128 1.511.116.278.37.549.619.662.435.198 1.252.112 1.89-.197l.364-.178v1.368l-.289.146c-.51.259-1.503.364-2.25.24ZM21.866 43.832a21.448 21.448 0 0 0-.418-.088c-.909-.184-1.541-.822-1.82-1.84-.122-.443-.135-1.811-.022-2.268.24-.968.814-1.625 1.708-1.956.288-.107.44-.122 1.219-.123.822 0 .924.01 1.346.151.251.084.467.17.48.193.02.036-.388 1.177-.441 1.23-.013.014-.23-.041-.482-.122-.618-.197-.924-.233-1.27-.15-.633.152-.931.66-.98 1.667-.046.927.15 1.52.606 1.82.441.292 1.353.227 2.102-.151l.335-.17v1.372l-.209.116c-.356.198-.796.297-1.432.321-.336.013-.661.012-.723-.002ZM26.639 43.804a1.712 1.712 0 0 1-1.198-.97c-.109-.237-.128-.37-.128-.89 0-.576.01-.63.167-.913.38-.688 1.178-.99 2.777-1.055l.837-.034-.015-.33c-.017-.368-.125-.598-.364-.776-.135-.1-.232-.116-.668-.112-.428.004-.602.036-1.084.199l-.574.194-.272-.542-.272-.542.401-.167c.648-.27 1.212-.359 2.09-.33.584.018.831.05 1.076.14.595.217.977.581 1.2 1.146.078.198.094.564.11 2.58l.02 2.35h-1.149l-.16-.418c-.087-.23-.175-.417-.196-.417-.02 0-.148.115-.284.255-.136.14-.351.316-.478.39-.42.25-1.25.359-1.836.242Zm1.692-1.23c.465-.142.732-.564.777-1.23l.03-.443-.665.024c-.586.02-.704.042-.978.176-.248.121-.335.2-.427.39-.134.278-.146.522-.036.784.154.37.676.49 1.299.299ZM32.987 43.864c-.47-.073-.696-.373-.695-.927 0-.577.297-.854.917-.854.613 0 .917.286.917.86 0 .693-.42 1.032-1.14.92ZM35.739 40.693v-3.058h1.613v6.116h-1.613v-3.058ZM36.044 36.697c-.274-.125-.36-.3-.36-.729 0-.268.025-.356.14-.494.276-.327 1.122-.35 1.414-.038.244.26.255.836.021 1.098-.241.272-.808.348-1.215.163ZM41.022 43.78c-1.034-.235-1.803-.983-2.09-2.033-.13-.48-.157-1.341-.058-1.887.273-1.503 1.303-2.333 2.9-2.336.867-.001 1.55.253 2.087.778.707.691 1.02 1.894.807 3.112-.212 1.216-.853 1.984-1.923 2.305-.437.132-1.28.161-1.723.06Zm1.333-1.363c.12-.06.279-.192.354-.292.279-.367.412-1.181.318-1.932-.121-.962-.488-1.36-1.254-1.36-.709 0-1.067.315-1.23 1.081-.105.496-.077 1.317.06 1.767.102.333.333.624.599.755.266.131.879.121 1.153-.019Z"/></svg>