<svg xmlns="http://www.w3.org/2000/svg" width="1340" height="480" fill="none"><circle cx="120" cy="120" r="40" fill="#979aad"/><circle cx="120" cy="120" r="40" fill="#979aad" fill-opacity=".1"/><circle cx="120" cy="240" r="40" fill="#979aad"/><circle cx="120" cy="240" r="40" fill="#979aad" fill-opacity=".1"/><circle cx="260" cy="360" r="40" fill="#979aad"/><circle cx="260" cy="360" r="40" fill="#979aad" fill-opacity=".1"/><path stroke="#979aad" stroke-linecap="round" stroke-width="20" d="m100 330 38.917 29.041a1.007 1.007 0 0 1-.013 1.614C122.303 372.877 117.106 377.438 100 390"/><path stroke="#979aad" stroke-linecap="round" stroke-opacity=".1" stroke-width="20" d="m100 330 38.917 29.041a1.007 1.007 0 0 1-.013 1.614C122.303 372.877 117.106 377.438 100 390"/><rect width="80" height="200" x="220" y="80" fill="#979aad" rx="40"/><rect width="80" height="200" x="220" y="80" fill="#979aad" fill-opacity=".1" rx="40"/><path fill="#979aad" d="M636.758 330V205.84h15.36l1.536 22.784h.768c4.266-7.851 9.386-14.08 15.36-18.688 6.144-4.779 12.8-7.168 19.968-7.168 2.56 0 4.864.256 6.912.768 2.048.341 4.01.939 5.888 1.792l-3.584 16.384c-2.048-.683-3.926-1.195-5.632-1.536-1.536-.341-3.584-.512-6.144-.512-5.291 0-10.838 2.219-16.64 6.656-5.803 4.267-10.923 11.861-15.36 22.784V330h-18.432ZM722.758 330V147.216h18.176V273.68h.768l55.04-67.84h20.736l-41.472 49.664L823.11 330h-20.224l-37.632-61.44-24.32 28.672V330h-18.176ZM864.982 333.072c-4.779 0-8.704-1.024-11.776-3.072-2.902-1.877-5.035-4.693-6.4-8.448-1.366-3.925-2.048-8.704-2.048-14.336v-160h18.432v161.536c0 3.072.597 5.291 1.792 6.656 1.194 1.365 2.56 2.048 4.096 2.048h1.792c.682-.171 1.621-.341 2.816-.512l2.56 14.336c-1.366.512-2.987.939-4.864 1.28-1.707.341-3.84.512-6.4.512ZM934.918 333.072c-6.826 0-12.97-1.365-18.432-4.096-5.461-2.731-9.813-6.656-13.056-11.776-3.242-5.291-4.864-11.605-4.864-18.944 0-13.653 6.144-24.064 18.432-31.232 12.459-7.339 32.086-12.459 58.88-15.36 0-5.461-.768-10.752-2.304-15.872-1.365-5.291-4.01-9.472-7.936-12.544-3.754-3.243-9.216-4.864-16.384-4.864-7.509 0-14.506 1.451-20.992 4.352-6.314 2.901-11.861 5.973-16.64 9.216l-7.424-12.8c3.584-2.389 7.851-4.864 12.8-7.424 4.95-2.56 10.411-4.693 16.384-6.4 5.974-1.707 12.288-2.56 18.944-2.56 9.899 0 17.92 2.133 24.064 6.4 6.315 4.267 10.838 10.155 13.568 17.664 2.902 7.509 4.352 16.299 4.352 26.368V330h-15.36l-1.536-15.104h-.768a106.435 106.435 0 0 1-19.456 12.8c-6.997 3.584-14.421 5.376-22.272 5.376Zm4.864-15.104c6.315 0 12.288-1.451 17.92-4.352 5.632-3.072 11.691-7.424 18.176-13.056v-36.352c-14.677 1.707-26.282 4.096-34.816 7.168-8.533 2.901-14.677 6.485-18.432 10.752-3.754 4.267-5.632 9.216-5.632 14.848 0 7.339 2.219 12.715 6.656 16.128 4.608 3.243 9.984 4.864 16.128 4.864ZM1026.76 330V205.84h15.36l1.53 18.432h.77c5.98-6.144 12.29-11.264 18.95-15.36 6.82-4.096 14.42-6.144 22.78-6.144 13.14 0 22.7 4.096 28.67 12.288 6.15 8.192 9.22 20.224 9.22 36.096V330h-18.69v-76.544c0-11.947-1.96-20.651-5.89-26.112-3.75-5.461-9.98-8.192-18.69-8.192-6.65 0-12.63 1.707-17.92 5.12-5.12 3.243-11 8.192-17.66 14.848V330h-18.43ZM1197.23 387.856c-10.24 0-19.2-1.365-26.88-4.096s-13.65-6.571-17.92-11.52c-4.27-4.949-6.4-10.923-6.4-17.92 0-5.461 1.62-10.667 4.87-15.616 3.24-4.949 7.68-9.301 13.31-13.056v-1.024c-3.07-2.048-5.72-4.693-7.94-7.936-2.05-3.413-3.07-7.509-3.07-12.288 0-5.291 1.45-9.899 4.35-13.824 3.07-3.925 6.15-6.997 9.22-9.216v-1.024c-3.93-3.243-7.6-7.765-11.01-13.568-3.24-5.803-4.86-12.373-4.86-19.712 0-9.045 2.04-16.811 6.14-23.296 4.27-6.656 9.81-11.776 16.64-15.36 7-3.755 14.68-5.632 23.04-5.632 3.41 0 6.57.341 9.47 1.024 3.07.512 5.63 1.195 7.68 2.048h43.01v14.592h-26.37c3.24 3.072 5.89 6.912 7.94 11.52 2.05 4.608 3.07 9.728 3.07 15.36 0 8.875-2.05 16.555-6.14 23.04-3.93 6.315-9.31 11.264-16.13 14.848-6.66 3.584-14.17 5.376-22.53 5.376a47.1 47.1 0 0 1-9.73-1.024 53.644 53.644 0 0 1-9.21-3.328 31.231 31.231 0 0 0-6.15 6.4c-1.53 2.389-2.3 5.376-2.3 8.96 0 4.096 1.53 7.509 4.61 10.24 3.24 2.56 9.04 3.84 17.4 3.84h24.84c14.33 0 25 2.389 32 7.168 7.16 4.608 10.75 12.032 10.75 22.272 0 7.509-2.56 14.507-7.68 20.992-4.95 6.485-12.03 11.691-21.25 15.616-9.22 4.096-20.14 6.144-32.77 6.144Zm2.56-13.312c8.19 0 15.28-1.28 21.25-3.84 6.14-2.56 10.92-5.888 14.34-9.984 3.41-4.096 5.12-8.448 5.12-13.056 0-5.973-2.22-10.155-6.66-12.544-4.27-2.389-10.67-3.584-19.2-3.584h-22.78c-1.88 0-4.27-.171-7.17-.512-2.9-.341-5.81-.853-8.71-1.536-4.78 3.413-8.27 6.997-10.49 10.752-2.05 3.925-3.07 7.765-3.07 11.52 0 6.997 3.32 12.544 9.98 16.64s15.79 6.144 27.39 6.144Zm-3.07-96.768c4.95 0 9.47-1.28 13.57-3.84 4.26-2.56 7.68-6.144 10.24-10.752 2.56-4.608 3.84-9.984 3.84-16.128 0-6.315-1.28-11.691-3.84-16.128-2.39-4.608-5.72-8.107-9.99-10.496-4.09-2.56-8.7-3.84-13.82-3.84-7.68 0-14.25 2.731-19.71 8.192-5.46 5.291-8.19 12.715-8.19 22.272 0 6.144 1.28 11.52 3.84 16.128 2.56 4.608 5.88 8.192 9.98 10.752 4.27 2.56 8.96 3.84 14.08 3.84ZM545.918 333.072c-6.826 0-12.97-1.365-18.432-4.096-5.461-2.731-9.813-6.656-13.056-11.776-3.242-5.291-4.864-11.605-4.864-18.944 0-13.653 6.144-24.064 18.432-31.232 12.459-7.339 32.086-12.459 58.88-15.36 0-5.461-.768-10.752-2.304-15.872-1.365-5.291-4.01-9.472-7.936-12.544-3.754-3.243-9.216-4.864-16.384-4.864-7.509 0-14.506 1.451-20.992 4.352-6.314 2.901-11.861 5.973-16.64 9.216l-7.424-12.8c3.584-2.389 7.851-4.864 12.8-7.424 4.95-2.56 10.411-4.693 16.384-6.4 5.974-1.707 12.288-2.56 18.944-2.56 9.899 0 17.92 2.133 24.064 6.4 6.315 4.267 10.838 10.155 13.568 17.664 2.902 7.509 4.352 16.299 4.352 26.368V330h-15.36l-1.536-15.104h-.768a106.435 106.435 0 0 1-19.456 12.8c-6.997 3.584-14.421 5.376-22.272 5.376Zm4.864-15.104c6.315 0 12.288-1.451 17.92-4.352 5.632-3.072 11.691-7.424 18.176-13.056v-36.352c-14.677 1.707-26.282 4.096-34.816 7.168-8.533 2.901-14.677 6.485-18.432 10.752-3.754 4.267-5.632 9.216-5.632 14.848 0 7.339 2.219 12.715 6.656 16.128 4.608 3.243 9.984 4.864 16.128 4.864ZM431.487 333.072c-15.36 0-27.733-5.632-37.12-16.896-9.216-11.435-13.824-27.477-13.824-48.128 0-13.312 2.475-24.832 7.424-34.56 5.12-9.728 11.776-17.237 19.968-22.528 8.192-5.461 17.067-8.192 26.624-8.192 7.339 0 13.653 1.28 18.944 3.84 5.461 2.56 10.923 6.144 16.384 10.752l-.768-21.504v-48.64h18.432V330h-15.36l-1.536-15.104h-.768c-4.779 4.949-10.496 9.216-17.152 12.8-6.485 3.584-13.568 5.376-21.248 5.376Zm4.096-15.872c5.973 0 11.691-1.451 17.152-4.352 5.461-3.072 10.923-7.509 16.384-13.312v-67.328c-5.632-4.949-11.008-8.448-16.128-10.496-4.949-2.048-10.155-3.072-15.616-3.072-6.997 0-13.397 2.133-19.2 6.4-5.632 4.096-10.155 9.899-13.568 17.408-3.243 7.339-4.864 15.872-4.864 25.6 0 15.189 3.072 27.221 9.216 36.096 6.315 8.704 15.189 13.056 26.624 13.056Z"/></svg>