<svg xmlns="http://www.w3.org/2000/svg" width="384" height="384" fill="none"><path stroke="#0B0D22" stroke-opacity=".15" d="M0 11.5h384M0 35.5h384M0 59.5h384M0 83.5h384M0 107.5h384M0 131.5h384M0 155.5h384M0 179.5h384M0 203.5h384M0 227.5h384M0 251.5h384M0 275.5h384M0 299.5h384M0 323.5h384M0 347.5h384M0 371.5h384M11.5 384V0M35.5 384V0M59.5 384V0M83.5 384V0M107.5 384V0M131.5 384V0M155.5 384V0M179.5 384V0M203.5 384V0M227.5 384V0M251.5 384V0M275.5 384V0M299.5 384V0M323.5 384V0M347.5 384V0M371.5 384V0"/></svg>