<svg xmlns="http://www.w3.org/2000/svg" width="385" height="102" fill="none"><path fill="#979AAD" d="M60.424 74h12.544V28.88H60.424v16.96H45.128V28.88H32.584V74h12.544V55.888h15.296V74Zm56.459-35.904h-12.608V57.36c0 4.16-2.304 6.592-5.953 6.592-3.584 0-5.951-2.432-5.951-6.592V38.096H79.89V58.96c0 9.472 5.183 15.36 13.503 15.36 5.056 0 8.833-2.368 10.881-5.44V74h12.608V38.096ZM172.918 74h12.544V53.072c0-9.408-5.44-15.296-14.528-15.296-5.312 0-9.536 2.944-11.968 6.592-2.369-4.16-6.592-6.592-11.968-6.592-4.864 0-8.384 2.176-10.432 5.056v-4.736h-12.544V74h12.544V54.736c0-3.904 2.304-6.08 6.016-6.08 3.584 0 5.888 2.176 5.888 6.08V74h12.544V54.736c0-3.904 2.304-6.08 5.952-6.08 3.584 0 5.952 2.176 5.952 6.08V74Zm17.368-17.984c0 11.456 6.784 18.432 15.296 18.432 5.056 0 8.704-2.24 10.56-5.44V74h12.544V38.096h-12.544v4.992c-1.856-3.2-5.44-5.44-10.56-5.44-8.512 0-15.296 6.912-15.296 18.368Zm25.856 0c0 4.864-3.008 7.488-6.528 7.488-3.584 0-6.528-2.688-6.528-7.488 0-4.864 2.944-7.424 6.528-7.424 3.52 0 6.528 2.624 6.528 7.424Zm17.644 0c0 11.456 6.784 18.432 15.296 18.432 5.056 0 8.704-2.24 10.56-5.44V74h12.544V38.096h-12.544v4.992c-1.856-3.2-5.44-5.44-10.56-5.44-8.512 0-15.296 6.912-15.296 18.368Zm25.856 0c0 4.864-3.008 7.488-6.528 7.488-3.584 0-6.528-2.688-6.528-7.488 0-4.864 2.944-7.424 6.528-7.424 3.52 0 6.528 2.624 6.528 7.424ZM303.782 74h12.544V53.072c0-9.408-5.184-15.296-13.504-15.296-5.056 0-8.832 2.368-10.944 5.44v-5.12h-12.544V74h12.544V54.736c0-4.16 2.304-6.592 6.016-6.592 3.584 0 5.888 2.432 5.888 6.592V74Zm49.635-10.56c-.064-13.632-19.2-9.536-19.2-14.656 0-1.344 1.088-2.176 3.136-2.176 2.688 0 4.288 1.344 4.672 3.584h11.328c-.832-7.104-5.952-12.544-15.744-12.544-9.728 0-14.912 5.184-14.912 11.456 0 13.184 19.072 8.896 19.072 14.144 0 1.28-1.216 2.304-3.328 2.304-2.624 0-4.608-1.28-4.928-3.648h-12.16c.512 7.168 7.168 12.544 17.152 12.544 9.28 0 14.912-4.736 14.912-11.008Z"/></svg>