<svg xmlns="http://www.w3.org/2000/svg" width="160" height="48" fill="none" viewBox="25 -15 150 70"><path fill="#979AAD" fill-rule="evenodd" d="M22.035 43.813c-1.05.029-2.07-.059-3.12-.204-2.828-.407-5.481-1.309-7.93-2.792C5.56 37.56 2.091 32.819.663 26.595a18.952 18.952 0 0 1-.466-4.246c-.03-5.7 1.836-10.703 5.627-14.95C9.118 3.736 13.2 1.497 18.01.566c1.341-.262 2.683-.407 4.024-.35v6.516c-.058.029-.117.058-.175.116a44.162 44.162 0 0 0-2.333 1.745c-1.72 1.396-3.353 2.88-4.723 4.653-1.837 2.356-3.061 4.945-3.236 7.999a11.01 11.01 0 0 0 .554 4.246c1.137 3.403 4.665 6.922 9.621 7.009.292 0 .35.058.35.378-.029 1.483-.029 4.45-.029 4.45v.262c-.03 2.065-.03 4.13-.03 6.224Z" clip-rule="evenodd"/><path fill="#979AAD" fill-rule="evenodd" d="M22.034 6.7V.187c1.196-.029 2.362.087 3.528.262 2.187.349 4.286.989 6.269 2.007 4.11 2.123 7.347 5.147 9.534 9.277 1.254 2.385 2.07 4.916 2.39 7.562a21.804 21.804 0 0 1-.845 9.19c-1.078 3.403-2.886 6.4-5.423 8.93-3.09 3.053-6.764 5.031-11.021 5.933-1.458.29-2.945.465-4.432.436v-6.486s.088-.058.117-.087c2.274-1.6 4.432-3.345 6.298-5.439 1.224-1.367 2.274-2.82 3.003-4.508 1.02-2.385 1.428-4.828.904-7.416-.933-4.712-5.161-8.23-10.03-8.347-.32 0-.292-.262-.292-.262V6.701Z" clip-rule="evenodd"/><path fill="#979AAD" d="M67.67 28.82c0 1.232-.202 2.405-.579 3.55-.377 1.143-.985 2.14-1.739 3.02-.782.88-1.739 1.554-2.898 2.082-1.16.498-2.522.762-4.029.762-2.434 0-4.434-.586-5.97-1.73-1.566-1.144-2.58-2.962-3.073-5.455l5.13-1.231c.174 1.026.58 1.847 1.247 2.463.637.616 1.449.91 2.405.91 1.565 0 2.638-.529 3.188-1.614.551-1.055.84-2.551.84-4.428V6.3h5.479V28.82ZM97.871 26.006c0 1.876-.319 3.577-.956 5.073-.638 1.525-1.507 2.786-2.609 3.841a11.218 11.218 0 0 1-3.912 2.434c-1.508.587-3.16.85-4.928.85-1.767 0-3.42-.292-4.898-.85a11.615 11.615 0 0 1-3.942-2.434c-1.13-1.055-2-2.346-2.608-3.841-.638-1.496-.927-3.197-.927-5.073V6.299h5.477v19.53c0 .763.116 1.555.348 2.405a6.69 6.69 0 0 0 1.16 2.317c.521.704 1.246 1.29 2.144 1.73.87.47 1.971.675 3.275.675 1.305 0 2.406-.235 3.275-.675a6.314 6.314 0 0 0 2.145-1.73c.522-.704.928-1.466 1.16-2.317.231-.85.347-1.642.347-2.405V6.3H97.9v19.707h-.029ZM118.623 12.986c-.579-.85-1.362-1.466-2.318-1.877-.986-.41-2-.587-3.073-.587-.637 0-1.246.088-1.854.235a4.654 4.654 0 0 0-1.595.704 3.453 3.453 0 0 0-1.159 1.26c-.29.529-.435 1.115-.435 1.819 0 1.056.348 1.877 1.102 2.405.724.557 1.623 1.055 2.695 1.437 1.073.41 2.232.82 3.507 1.202 1.275.381 2.435.91 3.536 1.584 1.073.674 1.971 1.583 2.696 2.668.724 1.115 1.101 2.61 1.101 4.428 0 1.672-.29 3.138-.899 4.37-.608 1.26-1.42 2.287-2.463 3.108a10.752 10.752 0 0 1-3.594 1.848c-1.362.41-2.811.616-4.29.616a15.78 15.78 0 0 1-5.506-.968c-1.768-.645-3.304-1.73-4.58-3.255l4.145-4.047a6.984 6.984 0 0 0 2.637 2.404 7.158 7.158 0 0 0 3.449.85c.638 0 1.276-.087 1.913-.263a5.87 5.87 0 0 0 1.739-.792 3.955 3.955 0 0 0 1.247-1.349c.318-.528.492-1.173.492-1.877 0-1.143-.377-2.023-1.101-2.639-.725-.616-1.623-1.143-2.696-1.554a49.725 49.725 0 0 0-3.536-1.202 14.68 14.68 0 0 1-3.506-1.555c-1.073-.645-1.971-1.525-2.696-2.639-.725-1.114-1.101-2.58-1.101-4.428 0-1.613.319-2.991.985-4.164a8.9 8.9 0 0 1 2.58-2.933c1.043-.762 2.26-1.349 3.623-1.73a15.396 15.396 0 0 1 4.173-.557c1.623 0 3.188.264 4.724.733a11.04 11.04 0 0 1 4.116 2.463l-4.058 4.282ZM127.405 6.299h10.347c1.478 0 2.898.146 4.29.44 1.362.293 2.579.791 3.623 1.466a7.576 7.576 0 0 1 2.492 2.757c.609 1.173.928 2.61.928 4.34 0 1.965-.348 3.548-1.015 4.75-.666 1.203-1.565 2.141-2.695 2.786-1.131.645-2.435 1.115-3.942 1.35a30.115 30.115 0 0 1-4.666.351h-3.913v12.903h-5.478V6.3h.029Zm8.782 13.519c.783 0 1.594-.03 2.435-.088a7.263 7.263 0 0 0 2.318-.528 4.313 4.313 0 0 0 1.739-1.32c.435-.586.667-1.407.667-2.463 0-.968-.203-1.73-.609-2.317a3.807 3.807 0 0 0-1.565-1.32c-.638-.322-1.362-.498-2.145-.586a20.346 20.346 0 0 0-2.26-.146h-3.913v8.768h3.333ZM159.606 6.299h4.724l13.274 31.143h-6.26l-2.869-7.126h-13.333l-2.782 7.126h-6.145L159.606 6.3Zm6.956 19.267-4.754-12.669-4.811 12.669h9.565ZM184.27 24.129l-11.564-17.83h6.869l7.565 12.404L194.791 6.3h6.522l-11.565 17.83v13.343h-5.478V24.129Z"/></svg>