<svg xmlns="http://www.w3.org/2000/svg" xml:space="preserve" viewBox="0 0 425.2 138.9"><g fill="#979aad"><path d="m331.9 65.7-.1 3.7v14.7l-.9.3h-7.5l-.3-.2c-.3-.6-.3-1.1-.2-1.7v-15a4 4 0 0 0-.2-2l-4-.7c-4 5.1-9.5 8.7-15.7 10.2-.3.5-.4 1.1-.3 1.7v13.2c-1 .2-2 .2-2.9.1h-5.5l-.1-1.4v-13l-1-.2a27 27 0 0 1-22.3-19.2c-.7-2.1-1-4.4-1-6.7v-2.2c0-3 .5-5.8 1.6-8.6a27.6 27.6 0 0 1 30.1-17.2l4.2.8 1.5-1.8a28 28 0 0 1 19-9.1h2.3a27.5 27.5 0 0 1 25.6 20c.5 1.9.8 3.8.8 5.8V40c0 3-.6 5.9-1.7 8.5a28.2 28.2 0 0 1-16.6 15.7l-5 1.6zm-15-8.8a21.8 21.8 0 0 0 20.6.4c8.4-4.1 13-13.2 11.3-22.4a21 21 0 0 0-23.7-17.7c-7.6 1-13 5.2-16.6 12 0 .3-.2.5-.4.7a21.6 21.6 0 0 0-30 8.3A21.5 21.5 0 0 0 302 69.4c7-1.6 11.9-6 15-12.5zM141.9 54.2l-5.6-5.7c0-.7.4-.9.8-1.3l15.5-15.9 17.1-17.7c1.7-1.6 3.3-3.4 5-5.2l.9.8L187.9 22l3 3.2a3651 3651 0 0 0 62.4 63.2l1.3 1.3-.3.3h-11.1c-22.6-22.8-45.4-45.4-68.3-68.3l-.8.5-1.5 1.5-29 29c-.6.5-1 .8-1.6 1.5zM206.2 108.3V126c.8.7 1.8.3 2.7 1 .2.8.2 1.6 0 2.4-.3 0-.7 0-1 .2h-13.2l-.8-.1c-.3-.9-.4-1.8-.2-2.7l2.9-.8c.2-2 .2-16.6 0-18.7-1-.3-2.3-.3-3.4-.6v-2.2l.8-.4 9.5-3.2.7-.2c.6-.2 1.2.2 1.3.8v.2l.3 3c.3.3.6.1.8 0l1.4-1.4c2.3-2 5.3-3.1 8.4-2.6a7 7 0 0 1 5.6 3.8l.6.9.7-.7a16 16 0 0 1 3-2.6c2.7-1.7 6-2 9-1 1.7.4 3.1 1.6 3.9 3.3.5 1.2.9 2.4 1 3.7l.2 3.4v13l.2 1.6 2.6.8c.2.8.2 1.7 0 2.5l-.7.2H229l-.4-.1c-.5-.8-.2-1.7-.2-2.6l2.7-.9.1-1 .1-13.3-.1-2.1c0-.6-.2-1.1-.4-1.6-.2-1-1.2-1.8-2.3-1.8a7 7 0 0 0-5.3 2c0 3 0 16.5.2 17.8.8.6 1.7.3 2.5 1 .2.8.2 1.6 0 2.4a121.7 121.7 0 0 1-14.8 0c-.2-.8-.2-1.7 0-2.5l2.9-.9v-14.4c0-1 0-1.8-.2-2.8-.1-1.6-1.5-2.7-3-2.5-.8 0-1.5.2-2.3.5l-1.1.5zM117.3 41.3c15.8 16.5 32 32.3 48 48.5l-.7.2h-9.8c-.7 0-1.2-.2-1.6-.6l-.8-.9-33.8-33.8-1.3-1.2-1.3 1.3-26.7 26.4-.5.6c-.5.5-1.2 1-2 .8h-10c-.3-.3 0-.4.1-.6l1-1 25-25c4.2-4.2 8.3-8.7 12.5-13l1.8-1.7zM105.1 126.1l2.8.8v2.6c-.2 0-.6 0-1 .2H93.8l-1-.1a8 8 0 0 1 0-2.6l2.8-.9.1-1.3v-13.5c0-.8 0-1.6-.2-2.4 0-1.5-1.3-2.7-2.7-2.6l-.6.1c-.6.1-1.2.2-1.7.5l-2.5 1.6c-.4.2-.7.8-.6 1.3a902.8 902.8 0 0 0 .2 16.3c.7.7 1.8.4 2.6 1v2.4l-.7.3-14.3-.1c-.2-.9-.2-1.8 0-2.6l2.8-.8.1-1.3.1-9.1V93.2c-1.1-.5-2.3-.4-3.4-.8-.2-.7-.3-1.4-.1-2.3l1-.4 10.2-2.2h.5c.5 0 1 .4 1 1v14.7c-.1.5 0 1 .2 1.6l1.3-1a12 12 0 0 1 5-3c1.8-.5 3.8-.5 5.6 0 1.9.6 3.3 1.9 4.3 3.6.8 1.5 1.2 3.2 1.3 5V126zM278.3 93.1l-3.4-.7c-.2-.7-.3-1.5-.2-2.3l1.1-.4 10-2 .9-.3c.6 0 1 .5 1.2 1.1v1.3l-.2 10.6v13l.6-.2 8.1-7.9.3-.6c-1.2-.4-2.6-.3-3.8-.8a7 7 0 0 1-.1-2.4c.3 0 .5 0 .7-.2 2.2 0 12 0 13.2.2.2.7.2 1.6 0 2.3-.4.4-.9.4-1.3.4-1 0-1.9.2-2.8.4-.5 0-1 .2-1.3.5l-4.6 4.4.4 1 7.2 14.2c.3.7 1 1.3 1.7 1.3l2.4.6c.2.8.2 1.8 0 2.6-3.8.3-7.7.3-11.6 0l-.7-1.1c-1.6-3.6-3.4-7.2-5-11l-.8-1.4c-.8.4-1.6 1-2.2 1.8v8.4l3 .7v2.5l-.4.2H276l-.4-.2v-2.4c.9-.6 2-.5 3-1 .1-.5.2-1 .1-1.7V94.5c-.4-.3-.5-.9-.5-1.4zM122.8 126.1l1.3.3 1.2.4c.2.8.2 1.7.1 2.5l-.7.2H111l-.7-.1v-2.5c.9-.7 2-.4 3-1V111c0-1.2 0-2.5-.2-3.8l-3.3-.5c-.3-.7-.3-1.5-.2-2.2l1-.4 9.1-3 1-.3c.6-.1 1.1.2 1.2.9l.2 1.7.1 1.4v.1c.4.2.6 0 .7-.2l2.5-2.2a10 10 0 0 1 8.1-1.6c2.5.4 4.6 2.2 5.5 4.6.6 1.7 1 3.7.9 5.5v15c1 .7 2.1.3 3 1v2.4l-.5.2H128c-.5-.9-.2-1.7-.2-2.5.9-.8 2-.4 3-1.1v-14.8c0-.9 0-1.8-.3-2.7a2.6 2.6 0 0 0-2.7-2.3l-1.2.1c-1.3.4-2.7 1-3.8 2-.2 2.2-.1 16.5 0 17.8zM57.9 130.3c-1.6.1-3.3 0-5-.6-3.9-1.1-7-4-8.4-7.8-1.6-3.7-1.7-8-.4-11.8 1.9-5.4 6-8.5 11.6-9.4 3-.6 6.2-.1 9 1.3 4.2 1.8 7.1 5.7 7.9 10.2.4 2.5.3 5-.3 7.6-1.5 5.6-5 9-10.8 10.2l-1.4.3h-2.2zm5-14.6c0-2.2-.2-4.5-.5-6.7a7.7 7.7 0 0 0-1.7-4 3.4 3.4 0 0 0-4.9-.6c-.4.3-.7.5-.8.9-.5.7-.8 1.3-1 2a36.4 36.4 0 0 0 .4 17.7c.6 2 2.6 3 4.5 2.4 1.2-.3 2-1.2 2.4-2.3a30.3 30.3 0 0 0 1.6-9.4zM273.1 125l1.2.9a5.7 5.7 0 0 1-3.6 4c-1.6.5-3.4.6-5.1.2a5.6 5.6 0 0 1-4.1-3 2 2 0 0 0-.4-.5l-.2-.2-1 1c-1 .9-2 1.6-3.1 2.2-2.3.9-4.8 1-7 .2-2.5-.6-4.2-2.6-4.5-5.1-.2-1.2-.2-2.4 0-3.5.2-1.3.7-2.5 1.7-3.4 1-1 2-1.7 3.2-2.2 1.8-1 3.9-1.8 6-2.2l4.5-1.3c.1-.7.2-1.3.1-2 0-1 0-2.1-.2-3.2-.1-2-1.8-3.4-3.7-3.3h-2a3 3 0 0 0-.5 1.8l-.4 2.6-.4 1.2a4 4 0 0 1-5.4 2.1l-.5-.3c-1.2-.5-1.8-1.8-1.6-3.1.2-1.4.8-2.6 1.8-3.6a10 10 0 0 1 4-2.6 21.4 21.4 0 0 1 11.7-.7c2.6.6 4.6 2.5 5.4 5 .5 1.8.7 3.7.7 5.5v12l.1 1.6c0 .7.7 1.2 1.3 1.1l.7-.1 1.3-1zm-12.3-10.2a9 9 0 0 0-3.8 1.4c-.6.4-1.3.9-1.7 1.4a5.4 5.4 0 0 0-1 6 3.1 3.1 0 0 0 4 1.8h.1c1-.4 1.8-.8 2.5-1.5zM353.7 116h-16.6c0 2.5.8 5 2.5 6.8a7.3 7.3 0 0 0 6.8 1.9 9 9 0 0 0 4.3-2l1-.8c.7.4 1.4 1 2 1.7-.2.3-.3.5-.3.8-2 3.4-5.7 5.6-9.7 6-1.7 0-3.6 0-5.3-.3-6-1.2-9.6-4.7-10.9-10.5-.7-3-.6-6.2.4-9.2 1.7-5 5.2-8 10.2-9.4 2.3-.6 4.7-.6 7.1-.1 4.6 1 7.3 4 8.5 8.5.4 1.6.5 3.2.4 4.8l-.4 1.8zm-16.7-3.2h5.8c1.3 0 2.5-1 2.5-2.3v-3c-.2-1.3-.8-2.4-1.8-3.2a3 3 0 0 0-4.2.2c-.5.4-.9 1-1.2 1.7a19 19 0 0 0-1.1 6.5zM169.8 121.7l1.9 1.8-.4.9a12 12 0 0 1-7.9 5.5c-2.5.6-5 .6-7.6 0-4.6-.9-8.4-4.2-9.8-8.8-1.1-3-1.2-6.4-.4-9.6 1.4-5.6 5.1-9 10.7-10.5 2.1-.6 4.4-.7 6.6-.2 4.6.7 8.2 4.5 8.8 9.1.5 2 .4 4 0 5.8-.5.3-1.2.3-1.7.2h-15c-.2.5-.2 1 0 1.6a9 9 0 0 0 1.5 4c1.2 2 3.4 3.2 5.7 3.3 2.3 0 4.5-.7 6.3-2.2.6-.2 1-.5 1.3-.9zm-14.8-9 .6.1h5.9c1-.3 1.8-1.2 2-2.2v-3c-.2-1-.6-2-1.2-2.7-1-1.4-3-1.8-4.5-.7l-.8.7c-.3.6-.7 1.1-.9 1.7-.7 2-1 4-1.1 6zM312.3 93.1l-3.4-.7c-.2-.7-.3-1.5 0-2.3l1-.4 10.1-2 .5-.2c.6 0 1.2.3 1.3 1v.1l-.1 3.5-.2 4v30c1 .7 2.1.3 3 1 .2.8.2 1.6 0 2.5h-15.4c-.4-.8-.4-1.6-.2-2.5 1-.7 2-.4 3-1 .2-1.4.2-2.8.2-4.2V94.2c.2-.4.2-.7.1-1.1zM369.2 125.7c1.4.6 3 .5 4.4 1 .2 1 .2 1.8.1 2.6l-.7.2h-15.5l-.6-.1c-.3-.8-.4-1.8-.1-2.6l3-.8c.2-1.7.2-16 0-18.7-1-.4-2.3-.3-3.4-.7-.2-.7-.3-1.5 0-2.2l.8-.4 9.3-3.1.5-.2c.6-.3 1.3 0 1.5.6l.1.4.2 2.8.3 2.7.6-.9c.7-1.6 1.7-3 3-4 1.4-1.3 3.3-2 5.3-1.7 2.5.4 4.3 2.7 4 5.2-.1.7-.4 1.4-.9 2a4 4 0 0 1-5.1 1.3c-.8-.4-1.4-1-2-1.5l-1-1c-.3 0-.5.4-.8.6-1 1.4-2 3-2.6 4.7a7 7 0 0 0-.5 2.4v11.4zM175.3 117.3v-4.9l.2-.1h14.8c.3 1.7.3 3.4 0 5-1.1.3-7 .4-13.7.2l-1.2-.2z" class="st0"/><path d="M165.2 46.4c2.8-.2 5.8-.2 8.7 0v8.3l-.1.5h-8.5c-.2-3-.3-6-.1-8.8zM175.5 55.2v-8.8c2.8-.3 5.7-.4 8.7 0l.1.5V55c-1 .2-1.9.3-3 .2h-2.7zM173.9 56.7c.2 2.9.2 5.7-.1 8.6-2.9.2-5.7.3-8.5 0l-.2-.7v-7.8l.9-.2c2.6-.2 5.3-.1 7.9 0zM175.6 65.4c-.2-2.9-.2-5.8 0-8.6 2.8-.3 5.7-.3 8.5-.1l.1.5v8.3c-2.8.2-5.7.2-8.6 0z" class="st0"/></g></svg>