<svg width="146" height="51" viewBox="0 0 146 51" fill="none" xmlns="http://www.w3.org/2000/svg">
<path fill-rule="evenodd" clip-rule="evenodd" d="M11.659 18.0474C15.2141 19.6037 20.3449 24.515 20.4256 30.8437C20.4256 33.3171 20.4321 35.0091 20.4353 36.2264C20.4385 37.6568 20.4418 38.4318 20.4321 39.0517C20.4321 39.1873 20.3094 39.2874 20.177 39.2616C17.3549 38.7353 16.5993 37.3049 16.5993 34.7055C16.5993 33.3817 16.5993 32.2225 16.5993 30.9696C16.5993 30.3045 16.5993 29.6167 16.5993 28.8644C16.5993 26.1197 15.0333 23.7465 13.803 23.162C12.5728 22.5808 10.7743 23.2686 9.84758 23.8498C9.73133 22.7584 9.4375 21.6541 9.4375 21.6541C9.4375 21.6541 10.6677 21.0729 12.7956 20.9276C12.7956 20.9276 11.6849 20.1882 10.5483 19.975C10.5709 19.9363 10.5999 19.8911 10.6322 19.8394C10.8356 19.5133 11.207 18.9127 11.6622 18.0506L11.659 18.0474ZM10.784 34.5828C10.784 29.8137 11.1553 26.194 12.9797 24.5666C13.7966 24.9961 15.0946 26.927 14.8137 27.5663C14.5328 28.2089 14.5199 29.3229 14.5199 30.9244V34.9477C14.5199 37.3275 14.8847 40.5435 20.2061 40.6242C20.0123 41.5703 16.2603 43.0685 13.6222 41.764C10.9809 40.4595 10.7872 36.5138 10.7872 34.5828H10.784ZM19.6345 18.3251C18.8564 18.5898 16.9545 20.0332 16.9545 20.0332C17.103 20.1817 17.2645 20.3367 17.4324 20.4981C18.1202 21.1568 18.9242 21.9318 19.4247 22.8101C20.2319 22.7261 21.1069 23.0878 21.1069 23.0878C21.1069 23.0878 21.094 22.3225 21.5364 21.3635C20.5225 21.0309 19.2987 21.0567 19.2987 21.0567L20.7292 19.9718C20.7292 19.9718 19.9348 18.9999 19.6313 18.3186L19.6345 18.3251Z" fill="#183F48"/>
<path fill-rule="evenodd" clip-rule="evenodd" d="M9.33136 10.1848C9.33136 6.87833 12.0114 4.19507 15.3211 4.19507C18.6308 4.19507 21.3108 6.8751 21.3108 10.1848C21.3108 13.4945 18.6308 16.1745 15.3211 16.1745C12.0114 16.1745 9.33136 13.4945 9.33136 10.1848ZM0.548608 23.6786C0.548608 22.7002 0.910251 21.8058 1.51084 21.1245C2.58931 21.8607 3.89058 22.2934 5.29517 22.2934C6.18636 22.2934 7.03558 22.119 7.81053 21.8058C8.11728 22.3612 8.29487 23.0005 8.29487 23.6786C8.29487 25.8162 6.56092 27.5501 4.42335 27.5501C2.28579 27.5501 0.551837 25.8162 0.551837 23.6786H0.548608ZM23.0157 11.2503C22.7574 13.136 21.821 14.8086 20.4616 16.0098C20.6779 18.5316 22.7961 20.5142 25.3728 20.5142C28.0948 20.5142 30.3034 18.3056 30.3034 15.5836C30.3034 12.8616 28.0948 10.653 25.3728 10.653C24.5204 10.653 23.7164 10.8693 23.0157 11.2536V11.2503ZM29.141 21.1342C28.0658 21.8639 26.771 22.2901 25.3728 22.2901C24.4752 22.2901 23.6163 22.1125 22.8349 21.7929C22.5249 22.3515 22.3473 22.9908 22.3473 23.6754C22.3473 25.8129 24.0812 27.5469 26.2188 27.5469C28.3564 27.5469 30.0903 25.8129 30.0903 23.6754C30.0903 22.7034 29.7319 21.8122 29.1378 21.1309L29.141 21.1342ZM5.29517 10.653C6.13793 10.653 6.93225 10.8629 7.62325 11.2374C7.88156 13.1425 8.82765 14.828 10.2032 16.0324C9.97716 18.5445 7.86542 20.5142 5.29194 20.5142C2.56993 20.5142 0.361328 18.3056 0.361328 15.5836C0.361328 12.8616 2.56993 10.653 5.29194 10.653H5.29517Z" fill="#0D6F38"/>
<path fill-rule="evenodd" clip-rule="evenodd" d="M9.33136 10.1848C9.33136 6.87833 12.0114 4.19507 15.3211 4.19507C18.6308 4.19507 21.3108 6.8751 21.3108 10.1848C21.3108 13.4945 18.6308 16.1745 15.3211 16.1745C12.0114 16.1745 9.33136 13.4945 9.33136 10.1848ZM0.548608 23.6786C0.548608 22.7002 0.910251 21.8058 1.51084 21.1245C2.58931 21.8607 3.89058 22.2934 5.29517 22.2934C6.18636 22.2934 7.03558 22.119 7.81053 21.8058C8.11728 22.3612 8.29487 23.0005 8.29487 23.6786C8.29487 25.8162 6.56092 27.5501 4.42335 27.5501C2.28579 27.5501 0.551837 25.8162 0.551837 23.6786H0.548608ZM23.0157 11.2503C22.7574 13.136 21.821 14.8086 20.4616 16.0098C20.6779 18.5316 22.7961 20.5142 25.3728 20.5142C28.0948 20.5142 30.3034 18.3056 30.3034 15.5836C30.3034 12.8616 28.0948 10.653 25.3728 10.653C24.5204 10.653 23.7164 10.8693 23.0157 11.2536V11.2503ZM29.141 21.1342C28.0658 21.8639 26.771 22.2901 25.3728 22.2901C24.4752 22.2901 23.6163 22.1125 22.8349 21.7929C22.5249 22.3515 22.3473 22.9908 22.3473 23.6754C22.3473 25.8129 24.0812 27.5469 26.2188 27.5469C28.3564 27.5469 30.0903 25.8129 30.0903 23.6754C30.0903 22.7034 29.7319 21.8122 29.1378 21.1309L29.141 21.1342ZM5.29517 10.653C6.13793 10.653 6.93225 10.8629 7.62325 11.2374C7.88156 13.1425 8.82765 14.828 10.2032 16.0324C9.97716 18.5445 7.86542 20.5142 5.29194 20.5142C2.56993 20.5142 0.361328 18.3056 0.361328 15.5836C0.361328 12.8616 2.56993 10.653 5.29194 10.653H5.29517Z" fill="url(#paint0_radial_6146_4665)"/>
<path fill-rule="evenodd" clip-rule="evenodd" d="M9.33136 10.1848C9.33136 6.87833 12.0114 4.19507 15.3211 4.19507C18.6308 4.19507 21.3108 6.8751 21.3108 10.1848C21.3108 13.4945 18.6308 16.1745 15.3211 16.1745C12.0114 16.1745 9.33136 13.4945 9.33136 10.1848ZM0.548608 23.6786C0.548608 22.7002 0.910251 21.8058 1.51084 21.1245C2.58931 21.8607 3.89058 22.2934 5.29517 22.2934C6.18636 22.2934 7.03558 22.119 7.81053 21.8058C8.11728 22.3612 8.29487 23.0005 8.29487 23.6786C8.29487 25.8162 6.56092 27.5501 4.42335 27.5501C2.28579 27.5501 0.551837 25.8162 0.551837 23.6786H0.548608ZM23.0157 11.2503C22.7574 13.136 21.821 14.8086 20.4616 16.0098C20.6779 18.5316 22.7961 20.5142 25.3728 20.5142C28.0948 20.5142 30.3034 18.3056 30.3034 15.5836C30.3034 12.8616 28.0948 10.653 25.3728 10.653C24.5204 10.653 23.7164 10.8693 23.0157 11.2536V11.2503ZM29.141 21.1342C28.0658 21.8639 26.771 22.2901 25.3728 22.2901C24.4752 22.2901 23.6163 22.1125 22.8349 21.7929C22.5249 22.3515 22.3473 22.9908 22.3473 23.6754C22.3473 25.8129 24.0812 27.5469 26.2188 27.5469C28.3564 27.5469 30.0903 25.8129 30.0903 23.6754C30.0903 22.7034 29.7319 21.8122 29.1378 21.1309L29.141 21.1342ZM5.29517 10.653C6.13793 10.653 6.93225 10.8629 7.62325 11.2374C7.88156 13.1425 8.82765 14.828 10.2032 16.0324C9.97716 18.5445 7.86542 20.5142 5.29194 20.5142C2.56993 20.5142 0.361328 18.3056 0.361328 15.5836C0.361328 12.8616 2.56993 10.653 5.29194 10.653H5.29517Z" fill="url(#paint1_linear_6146_4665)"/>
<path d="M59.5929 15.2317H52.9412L44.5266 25.3868V15.2317H38.9082V38.2767H44.5266V33.0265L47.4843 29.5327L53.9616 38.2445L53.9842 38.2767H60.4938L50.9587 25.4481L59.5929 15.2317Z" fill="#183F48"/>
<path d="M68.1046 19.7136C63.2579 19.7136 58.8633 22.2936 58.8633 29.0582C58.8633 35.8229 63.6066 38.5449 68.1046 38.5449C72.6025 38.5449 75.8121 36.2426 76.6484 32.0579H71.6273C71.3141 33.2429 70.5456 34.2213 68.2111 34.2213C65.8766 34.2213 64.585 33.2107 64.2718 30.5597H76.7904C76.8615 30.1399 76.8938 29.7912 76.8938 29.1293C76.8938 22.0514 72.7801 19.7136 68.1046 19.7136ZM64.3041 27.2435C64.6528 25.1512 65.8378 24.034 67.9657 24.034C70.5812 24.034 71.3819 25.6743 71.4885 27.2435H64.3041Z" fill="#183F48"/>
<path d="M86.4485 31.638V24.4891H90.0068V20.059H86.4485V15.3157H80.73V20.059H77.627V24.4891H80.73V32.4388C80.73 36.6591 83.2421 38.4382 87.1459 38.4382C88.2276 38.4382 89.2738 38.2994 90.1456 38.054V33.8337C89.3448 33.9048 89.0284 33.9048 88.6474 33.9048C86.8004 33.9048 86.4517 32.8941 86.4517 31.638H86.4485Z" fill="#183F48"/>
<path d="M98.4439 24.5603H98.3405V20.0624H92.6221V38.1962H98.3405V30.5952C98.3405 26.0262 101.027 24.7379 103.536 24.7379C103.988 24.7379 104.408 24.7734 105.002 24.8412V20.0301C104.443 19.8912 103.991 19.8557 103.607 19.8557C100.853 19.8557 99.1446 21.7027 98.4471 24.5635L98.4439 24.5603Z" fill="#183F48"/>
<path d="M115.774 30.9051L111.902 20.0591H106.077L112.667 36.3459C113.12 37.4276 113.155 37.9862 112.771 38.8581C112.458 39.5555 111.654 40.9149 107.889 40.4273V45.2385C113.504 45.8326 115.838 43.9469 118.279 37.9862L125.603 20.0623H119.745L115.77 30.9084L115.774 30.9051Z" fill="#183F48"/>
<path d="M139.122 29.0226L144.912 20.0623H138.773L135.877 24.9444L132.948 20.0623H126.81L132.6 29.0226L126.394 38.1961H132.496L135.877 33.1395L139.225 38.1961H145.364L139.122 29.0226Z" fill="#183F48"/>
<defs>
<radialGradient id="paint0_radial_6146_4665" cx="0" cy="0" r="1" gradientUnits="userSpaceOnUse" gradientTransform="translate(5.98217 -5.44687) rotate(66.14) scale(42.1866 54.3644)">
<stop stop-color="#DED71F"/>
<stop offset="1" stop-color="#4CB648" stop-opacity="0"/>
</radialGradient>
<linearGradient id="paint1_linear_6146_4665" x1="19.4315" y1="40.227" x2="11.2106" y2="-2.16597" gradientUnits="userSpaceOnUse">
<stop stop-color="#293279"/>
<stop offset="1" stop-color="#4FA14C" stop-opacity="0"/>
</linearGradient>
</defs>
</svg>
